<svg width="1280" height="651" viewBox="0 0 1280 651" fill="none" xmlns="http://www.w3.org/2000/svg">
<g opacity="0.1">
<path d="M169.078 647.203C169.078 647.203 71.9984 523.07 99.8604 345.851C125.291 184.108 329.318 82.7697 443.886 158.937C499.306 195.778 548.532 64.8207 732.474 10.6072C868.499 -29.4831 1136.65 38.2771 1085.57 313.617C1046.73 522.958 1221.41 415.935 1179.33 647.198H169.078V647.203Z" fill="#EBF3FA"/>
<path d="M523.87 598.156C523.87 598.156 525.001 589.356 527.615 584.117C530.234 578.884 546.887 582.213 546.887 582.213C546.887 582.213 550.217 585.069 550.932 598.393L523.87 598.156Z" fill="#233862"/>
<path d="M467.131 598.04C471.047 595.653 468.816 577.834 468.816 577.834C468.816 577.834 450.581 563.245 448.074 574.414C445.567 585.583 430.751 590.598 422.317 591.966C416.493 592.909 414.692 596.136 414.133 598.04H467.131V598.04Z" fill="#233862"/>
<path d="M504.902 468.446C504.16 472.535 503.691 475.892 503.566 478.296C501.872 511.356 475.735 586.955 471.06 588.716C463.828 591.447 452.436 585.641 446.478 583.746C444.011 582.96 442.344 580.466 442.894 577.941C455.837 518.44 460.593 432.758 462.327 382.03C463.203 356.479 467.587 338.829 467.587 338.829C467.587 338.829 531.334 321.823 531.709 343.334C532.036 362.374 510.587 437.039 504.902 468.446Z" fill="#2B478B"/>
<path d="M504.902 468.446L462.318 382.03C463.194 356.479 467.578 338.829 467.578 338.829C467.578 338.829 531.325 321.823 531.7 343.334C532.036 362.374 510.587 437.039 504.902 468.446Z" fill="#233862"/>
<path d="M490.716 343.41L524.415 587.644C524.415 587.644 539.213 591.21 550.722 588.359C550.722 588.359 560.59 458.465 559.764 427.059C558.941 395.657 566.843 343.03 557.958 337.225C549.082 331.423 490.716 343.41 490.716 343.41Z" fill="#2B478B"/>
<path d="M380.998 221.772C383.027 227.224 382.495 228.163 386.187 229.736C390.365 231.519 392.113 234.04 392.113 234.04L395.492 232.078L399.523 229.736C399.523 229.736 399.429 229.289 399.233 228.561C399.036 227.837 398.737 226.822 398.325 225.7C398.325 225.7 397.087 224.109 397.847 222.111C398.607 220.114 398.455 217.03 397.159 215.148C395.863 213.271 392.605 209.941 391.827 210.08C389.941 210.406 394.209 215.327 393.4 216.507C392.672 217.575 392.319 217.347 392.149 217.267C392.135 217.258 392.126 217.258 392.117 217.249C386.826 214.925 387.018 207.666 384.175 209.36C383.107 209.995 380.135 219.448 380.998 221.772Z" fill="#FFB27D"/>
<path d="M473.348 206.665C463.029 223.85 447.953 249.424 440.543 255.976L398.299 224.48C398.299 224.48 392.171 226.362 389.485 232.516C389.485 232.516 415.139 284.781 440.396 286.998C465.652 289.215 501.103 224.351 501.103 224.351L492.593 207.631C488.812 200.207 477.634 199.523 473.348 206.665Z" fill="#FF2323"/>
<path d="M562.588 327.151C562.566 326.874 562.548 326.601 562.526 326.328C562.459 325.51 562.401 324.693 562.338 323.884C562.32 323.647 562.302 323.41 562.289 323.173C562.137 321.104 562.003 319.057 561.873 317.041C561.86 316.813 561.846 316.59 561.833 316.366C561.779 315.53 561.735 314.699 561.686 313.868C561.677 313.689 561.663 313.506 561.654 313.327C561.601 312.317 561.543 311.311 561.493 310.31C561.489 310.288 561.489 310.27 561.489 310.247C561.44 309.291 561.391 308.348 561.35 307.414C561.341 307.195 561.328 306.976 561.319 306.757C561.283 305.948 561.243 305.148 561.207 304.352C561.198 304.187 561.194 304.022 561.185 303.861C561.14 302.909 561.105 301.961 561.064 301.023C561.055 300.893 561.055 300.768 561.046 300.638C561.015 299.847 560.984 299.056 560.953 298.274C560.944 298.001 560.93 297.733 560.921 297.461C560.899 296.79 560.872 296.124 560.845 295.463C560.836 295.208 560.827 294.953 560.818 294.703C560.792 293.899 560.765 293.094 560.738 292.298C560.716 291.686 560.693 291.078 560.671 290.475C560.667 290.35 560.662 290.216 560.658 290.086C560.55 286.922 560.448 283.847 560.34 280.843C560.336 280.799 560.336 280.754 560.331 280.709C560.264 278.953 560.202 277.219 560.13 275.516C560.126 275.413 560.121 275.31 560.117 275.208C560.09 274.506 560.059 273.813 560.023 273.125C560.014 272.942 560.01 272.763 560.001 272.584C559.965 271.851 559.934 271.118 559.893 270.394C559.889 270.331 559.884 270.273 559.884 270.211C559.88 270.139 559.875 270.068 559.871 269.996C560.148 269.679 560.461 269.321 560.582 269.174C575.165 251.578 581.61 215.555 575.724 207.143C566.115 193.414 535.473 188.207 535.473 188.207C535.473 192.788 526.512 198.41 518.283 199.049C518.27 199.049 517.787 192.122 517.774 192.122C510.288 192.806 501.412 195.304 501.412 195.304L495.239 186.24C495.239 186.24 495.145 185.096 482.667 189.23L485.809 198.021C476.91 201.123 469.599 200.994 469.818 234.009C469.934 251.685 469.576 266.586 469.25 279.132C468.888 293.072 468.387 304.102 467.869 312.8C466.336 338.485 464.638 343.888 465.75 343.866C465.75 343.866 475.525 352.765 501.336 352.599C517.564 352.501 530.775 350.695 540.59 348.653C553.793 345.918 560.854 342.758 560.854 342.758C563.688 342.713 563.093 332.97 562.861 330.293C562.758 329.238 562.673 328.192 562.588 327.151Z" fill="#FF2323"/>
<path d="M503.047 185.19L502.971 195.121C502.962 196.48 503.856 197.668 505.166 198.039C506.797 198.5 509.604 199.094 514.386 199.693C526.561 201.222 535.803 195.836 535.473 188.198C534.373 182.285 533.171 178.227 533.09 173.333C533.059 171.514 533.184 169.587 533.524 167.406L509.912 166.933L502.958 168.068L503.047 185.19Z" fill="#FFB27D"/>
<path d="M502.958 168.077L503.047 185.19C505.555 186.356 508.384 187.067 511.557 187.067C522.409 187.067 529.421 179.112 533.086 173.333C533.055 171.514 533.18 169.587 533.52 167.406L509.908 166.933L502.958 168.077Z" fill="#E2915A"/>
<path d="M535.33 163.612C532.59 178.356 513.568 177.869 505.345 176.944C503.029 176.685 501.577 176.39 501.577 176.39C498.967 175.692 497.514 171.585 496.835 166.2C495.494 155.549 497.188 139.915 498.989 135.915C501.698 129.899 506.797 123.392 525.957 128.085C545.118 132.791 538.847 144.724 535.33 163.612Z" fill="#FFB27D"/>
<path d="M559.956 269.907C559.96 269.938 559.96 269.929 559.956 269.907V269.907Z" fill="#FF2323"/>
<path d="M472.151 196.471C471.614 196.068 471.507 195.309 471.905 194.772L474.765 190.955L476.705 192.408L473.844 196.225C473.447 196.761 472.687 196.868 472.151 196.471Z" fill="#233862"/>
<path d="M474.01 194.191C472.888 193.351 472.633 191.778 473.424 190.625L489.733 166.964L495.709 171.438L477.594 193.744C476.709 194.835 475.127 195.031 474.01 194.191Z" fill="#2B478B"/>
<path d="M500.947 169.771C498.667 172.814 494.354 173.431 491.315 171.156C488.272 168.877 487.655 164.564 489.93 161.525C492.205 158.485 496.522 157.864 499.561 160.139C502.605 162.418 503.222 166.731 500.947 169.771Z" fill="#233862"/>
<path d="M494.578 186.991C494.578 186.991 491.838 164.805 484.575 168.863C477.313 172.921 477.742 179.429 477.925 181.802C478.104 184.175 484.607 190.982 484.607 190.982L494.578 186.991Z" fill="#FFB27D"/>
<path d="M493.112 121.886C493.112 121.886 501.546 121.238 511.49 116.911C519.562 113.403 529.747 117.269 533.055 119.007C532.965 118.476 532.755 117.747 532.25 117.019C532.25 117.019 533.734 118.069 533.953 119.544C534.105 119.655 534.172 119.736 534.136 119.758C534.136 119.758 535.817 119.45 536.898 119.937C536.898 119.937 536.143 119.83 535.87 120.317C535.844 120.371 535.799 120.411 535.75 120.451C548.34 126.534 549.506 146.436 545.453 151.039C540.577 156.581 534.731 169.055 534.731 169.055C534.731 169.055 532.599 166.11 533.484 161.234C534.369 156.358 530.158 156.358 524.84 154.141C519.521 151.924 523.955 145.721 519.298 141.953C514.645 138.185 497.581 140.402 497.805 137.52C491.472 135.218 493.112 122.534 493.112 121.886Z" fill="#233862"/>
<path d="M533.059 281.438C529.577 280.919 526.203 278.931 522.981 275.927C505.161 259.332 489.702 210.522 489.702 210.522C490.64 234.085 498.605 278.291 526.27 290.783L526.275 290.788C539.45 288.678 550.686 280.969 559.871 269.996C554.646 275.874 533.059 281.438 533.059 281.438Z" fill="#BA550F"/>
<path d="M548.371 231.506C548.371 231.506 538.579 255.533 530.288 240.02C530.288 240.016 534.878 241.839 548.371 231.506Z" fill="#BA550F"/>
<path d="M482.658 189.221C482.658 189.221 488.477 185.807 494.886 185.579L499.655 192.734L484.204 193.557L482.658 189.221Z" fill="#FF2323"/>
<path d="M469.482 269.491L470.13 222.196C470.13 222.196 464.705 284.866 440.396 286.993C440.391 286.998 451.006 289.733 469.482 269.491Z" fill="#BA550F"/>
<path d="M408.27 192.922L408.35 192.672C408.498 192.22 408.247 191.733 407.796 191.59C407.344 191.443 406.857 191.693 406.71 192.144L406.084 194.075L405.624 193.928L405.727 193.615C405.896 193.092 405.61 192.533 405.087 192.363L389.592 187.349C389.069 187.179 388.511 187.465 388.341 187.988L388.238 188.301L387.858 188.18L388.484 186.249C388.631 185.798 388.381 185.311 387.929 185.168C387.478 185.02 386.991 185.27 386.843 185.722L386.763 185.972C386.146 185.775 385.489 186.111 385.288 186.723L382.75 194.576C382.553 195.192 382.888 195.849 383.5 196.05L383.42 196.301C383.272 196.752 383.523 197.239 383.974 197.387C384.426 197.534 384.913 197.284 385.056 196.833L385.681 194.902L386.061 195.023L385.959 195.335C385.789 195.858 386.075 196.417 386.598 196.587L392.529 198.504L389.297 208.489C388.22 208.784 387.308 209.593 386.937 210.737L379.871 232.57C379.29 234.366 380.273 236.293 382.07 236.874C383.867 237.455 385.793 236.472 386.374 234.675L393.44 212.842C393.811 211.702 393.543 210.509 392.841 209.637L396.073 199.653L402.089 201.597C402.611 201.767 403.17 201.481 403.34 200.958L403.443 200.641L403.903 200.788L403.277 202.719C403.13 203.17 403.38 203.657 403.832 203.805C404.283 203.952 404.77 203.702 404.913 203.251L404.994 203C405.61 203.197 406.267 202.862 406.468 202.25L409.007 194.397C409.222 193.78 408.886 193.119 408.27 192.922Z" fill="#9B5129"/>
<path d="M392.024 217.213C392.024 217.213 390.209 211.027 391.492 210.147C392.77 209.266 397.861 214.831 398.12 217.562C398.379 220.292 394.026 221.079 394.026 221.079L392.024 217.213Z" fill="#FFB27D"/>
<path d="M370.638 332.447H361.194V598.397H370.638V332.447Z" fill="#E5BD9E"/>
<path d="M384.56 594.419H346.744C346.744 591.934 348.76 589.914 351.245 589.914H380.054C382.544 589.919 384.56 591.934 384.56 594.419Z" fill="#B27F5D"/>
<path d="M406.227 598.397H325.077C323.584 598.397 322.373 597.186 322.373 595.693C322.373 594.2 323.584 592.989 325.077 592.989H406.227C407.72 592.989 408.931 594.2 408.931 595.693C408.931 597.186 407.72 598.397 406.227 598.397Z" fill="#916140"/>
<path d="M442.411 353.162H330.324L289.416 311.101H401.503L442.411 353.162Z" fill="#C6916D"/>
<path d="M401.275 306.458H289.416V311.101H403.353L401.275 306.458Z" fill="#E5BD9E"/>
<path d="M442.411 348.519L401.275 306.457V311.101L442.411 353.162V348.519Z" fill="#9B5129"/>
<path d="M370.638 397.736V332.447H361.194V368.358C361.194 368.358 370.638 379.639 370.638 397.736Z" fill="#9B5129"/>
<path d="M861.782 598.397H861C859.712 598.393 858.765 597.199 859.051 595.943L955.661 172.649H969.31L863.596 596.985C863.386 597.812 862.635 598.397 861.782 598.397Z" fill="#B27D59"/>
<path d="M689.081 598.388H688.298C687.011 598.384 686.064 597.19 686.35 595.934L782.96 172.64H796.609L690.895 596.976C690.69 597.807 689.939 598.393 689.081 598.388Z" fill="#B27D59"/>
<path d="M847.176 596.48L784.497 172.649H800.015L851.203 596.404C851.332 597.423 850.465 598.388 849.424 598.388H849.41C848.262 598.384 847.337 597.597 847.176 596.48Z" fill="#916140"/>
<path d="M784.497 172.649L780.234 191.858L844.633 595.438C844.91 597.172 846.358 598.388 848.146 598.388H849.424L784.497 172.649Z" fill="#916140"/>
<path d="M1018.39 596.48L957.578 172.649H971.228L1022.42 596.404C1022.55 597.423 1021.68 598.388 1020.64 598.388H1020.62C1019.47 598.384 1018.55 597.597 1018.39 596.48Z" fill="#916140"/>
<path d="M957.574 172.649L951.442 191.858L1015.84 595.438C1016.12 597.172 1017.57 598.388 1019.35 598.388H1020.63L957.574 172.649Z" fill="#916140"/>
<path d="M977.261 333.314H805.557L806.473 323.021H978.182L977.261 333.314Z" fill="#916140"/>
<path d="M729.269 425.611H720.925L778.66 172.649H784.497L729.269 425.611Z" fill="#B27F5D"/>
<path d="M910.958 425.611H715.727L774.173 172.649H971.268L910.958 425.611Z" fill="#E5BD9E"/>
<path d="M912.12 425.611H705.774C704.652 425.611 703.745 424.704 703.745 423.582V418.205C703.745 417.083 704.652 416.176 705.774 416.176H912.12C913.242 416.176 914.149 417.083 914.149 418.205V423.577C914.154 424.699 913.242 425.611 912.12 425.611Z" fill="#B27F5D"/>
<path d="M891.659 425.611H689.809C688.701 425.611 687.802 424.713 687.802 423.6V418.183C687.802 417.075 688.701 416.172 689.809 416.172H891.664C892.772 416.172 893.675 417.07 893.675 418.183V423.6C893.671 424.713 892.772 425.611 891.659 425.611Z" fill="#C6916D"/>
<path d="M929.131 195C929.131 194.33 928.586 193.785 927.915 193.785C927.24 193.785 926.699 194.33 926.699 195C926.699 195.671 927.245 196.216 927.915 196.216C928.586 196.22 929.131 195.675 929.131 195Z" fill="#E5BD9E"/>
<path d="M796.113 195C796.113 194.33 795.568 193.785 794.898 193.785C794.223 193.785 793.682 194.33 793.682 195C793.682 195.671 794.227 196.216 794.898 196.216C795.568 196.22 796.113 195.675 796.113 195Z" fill="#E5BD9E"/>
<path d="M604.444 414.549L1039.13 414.549V146.521L604.444 146.521V414.549Z" fill="#FFF6EE"/>
<path d="M598.884 416.177H1039.44V142.276H598.884V416.177V416.177ZM1033.57 410.3H604.761V148.149H1033.57V410.3Z" fill="#B27D59"/>
<path d="M634.644 350.181C634.697 350.409 634.751 350.642 634.804 350.874L726.677 350.847L804.694 350.825L815.439 350.82L997.396 350.767C997.396 350.767 997.476 350.566 997.624 350.177C998.79 347.098 1004.06 332.277 1004.77 314.377C1004.94 310.18 1004.86 305.818 1004.42 301.394C1004.31 300.267 1004.17 299.137 1004.01 298.001C1003.71 295.91 1003.32 293.814 1002.84 291.722C1002.84 291.713 1002.84 291.704 1002.83 291.691C1002.37 289.711 1001.83 287.735 1001.19 285.773C1000.98 285.156 1000.77 284.544 1000.55 283.932C1000.31 283.261 1000.06 282.591 999.787 281.925C999.64 281.554 999.488 281.183 999.331 280.817C998.062 277.813 996.533 274.863 994.71 272.008C992.574 268.664 990.039 265.446 987.036 262.421C955.71 230.804 917.586 242.264 891.642 249.853C882.627 252.49 875.083 254.662 869.804 254.394C863.453 254.072 858.962 249.911 853.96 244.186C850.067 239.725 845.862 234.317 840.235 229.021C840.226 229.012 840.217 229.008 840.217 229.003C839.274 228.118 838.291 227.233 837.263 226.357C826.903 217.548 811.944 209.584 787.027 207.595C768.72 206.133 749.685 207.309 734.194 213.168C720.979 218.165 710.341 226.576 704.929 239.672C704.031 241.848 703.275 244.154 702.676 246.595C700.191 256.727 700.397 269.187 704.174 284.401C705.278 288.853 705.55 292.602 705.139 295.776C704.737 298.882 703.678 301.438 702.1 303.566C701.313 304.629 700.397 305.586 699.365 306.449C688.571 315.486 665.433 314.319 649.661 319.946C638.054 324.089 630.433 331.911 634.644 350.181Z" fill="#EBF3FA"/>
<path d="M810.268 253.066L1004.42 301.398C1004.1 298.189 1003.59 294.953 1002.84 291.726C1002.84 291.717 1002.84 291.709 1002.84 291.7C1002.38 289.72 1001.83 287.744 1001.19 285.782L810.268 253.066Z" fill="#F8FBFF"/>
<path d="M742.025 233.124C742.025 230.322 739.754 228.047 736.952 228.047C734.15 228.047 731.875 230.317 731.875 233.124C731.875 235.926 734.145 238.201 736.952 238.201C739.754 238.201 742.025 235.926 742.025 233.124Z" fill="#F8FBFF"/>
<path d="M702.1 303.57L941.153 331.459C943.491 323.861 944.689 315.611 944.085 306.819L702.676 246.604C700.191 256.736 700.397 269.196 704.174 284.41C706.359 293.21 705.291 299.271 702.1 303.57Z" fill="#F8FBFF"/>
<path d="M815.443 350.825L997.4 350.767C997.4 350.767 1009.54 320.742 1002.84 291.726C1002.84 291.717 1002.84 291.709 1002.84 291.7C991.59 291.177 973.118 292.5 953.672 303.557C922.963 321.019 872.544 308.241 857.956 318.038C843.363 327.834 840.011 337.976 829.164 339.719C819.698 341.243 816.181 348.899 815.443 350.825Z" fill="#C1E0E4"/>
<path d="M826.867 347.397C826.867 347.397 852.396 338.829 867.167 342.995C881.934 347.165 929.931 339.696 936.845 343.272V350.776H826.867V347.397Z" fill="#A8D29F"/>
<path d="M933.967 350.181H997.628C998.795 347.102 1004.06 332.282 1004.78 314.382V314.368C1004.78 314.368 984.515 311.494 975.054 322.981C965.587 334.467 953.136 331.911 944.242 331.459C935.352 331.008 927.271 340.738 933.967 350.181Z" fill="#A8D29F"/>
<path d="M634.009 347.151C634.179 348.175 634.389 349.238 634.644 350.338H829.267C826.496 328.742 794.795 338.382 784.949 328.532C775.098 318.681 746.476 328.532 739.088 313.452C731.701 298.372 705.139 295.937 705.139 295.937C704.737 299.043 703.678 301.599 702.1 303.727C701.313 304.79 700.397 305.747 699.365 306.609C688.571 315.647 665.433 314.48 649.661 320.107C643.757 322.212 638.885 325.269 636.078 330.168L636.074 330.172C633.696 334.324 632.798 339.803 634.009 347.151Z" fill="#FFC6C5"/>
<path d="M969.051 266.376C969.051 266.376 992.131 312.116 974.589 350.181H992.363C992.363 350.181 994.442 308.616 974.821 268.222L969.051 266.376Z" fill="#365DA4"/>
<path d="M977.101 288.656C977.101 288.656 963.764 289.183 955.044 277.237L953.913 277.702C953.913 277.702 961.775 290.788 978.692 291.986L977.101 288.656Z" fill="#365DA4"/>
<path d="M964.3 286.135C964.761 277.988 961.14 271.815 961.114 271.762L960.568 272.043C960.595 272.097 963.371 277.612 962.919 285.581L964.3 286.135Z" fill="#365DA4"/>
<path d="M774.826 240.548C774.826 240.548 761.779 237.727 756.322 223.975L755.116 224.145C755.116 224.145 759.455 238.778 775.536 244.168L774.826 240.548Z" fill="#365DA4"/>
<path d="M763.062 234.907C765.543 227.135 763.581 220.252 763.567 220.19L762.968 220.324C762.982 220.382 764.291 226.415 761.864 234.018L763.062 234.907Z" fill="#365DA4"/>
<path d="M985.539 302.833C990.491 297.881 992.52 288.732 991.988 280.213C991.59 273.818 989.758 268.964 989.677 268.758L988.529 269.196C988.547 269.245 990.379 274.108 990.763 280.321C990.987 283.95 990.678 287.32 989.847 290.341C988.815 294.095 986.969 297.322 984.359 299.932L985.539 302.833Z" fill="#365DA4"/>
<path d="M891.642 249.862C891.642 249.862 899.803 263.838 913.881 264.07C927.96 264.302 925.881 278.148 938.347 281.152C950.812 284.151 959.12 277.921 962.812 271.458C966.504 264.995 991.291 276.964 994.71 272.016C992.573 268.673 990.039 265.455 987.036 262.43C955.714 230.809 917.591 242.268 891.642 249.862Z" fill="#E57970"/>
<path d="M991.559 287.06C994.831 286.05 997.695 284.213 999.792 281.934C999.644 281.563 999.492 281.192 999.336 280.826C997.454 282.747 994.835 284.231 991.711 285.192C991.353 285.304 991.465 287.087 991.559 287.06Z" fill="#365DA4"/>
<path d="M996.283 295.342C997.467 297.635 1001.62 299.271 1004.01 298.01C1003.71 295.919 1003.33 293.823 1002.84 291.731C1002.84 291.722 1002.84 291.713 1002.84 291.7C1002.38 289.72 1001.83 287.744 1001.19 285.782C1000.99 285.165 1000.77 284.553 1000.56 283.941C1000.56 283.941 998.643 284.978 998.437 287.597C998.236 290.216 994.54 291.959 996.283 295.342Z" fill="#E57970"/>
<path d="M908.058 274.314C908.058 277.429 910.905 279.959 914.417 279.959C917.93 279.959 922.829 277.536 922.829 274.417C922.829 271.301 916.085 267.645 912.572 267.645C909.059 267.645 908.058 271.194 908.058 274.314Z" fill="#E57970"/>
<path d="M759.42 350.888L780.233 350.865C777.892 334.257 776.837 316.594 777.016 299.771C777.159 286.296 778.115 272.87 779.858 259.873C782.83 237.71 787.121 224.292 787.165 224.158L777.798 221.119C777.614 221.687 756.421 296.491 759.42 350.888Z" fill="#365DA4"/>
<path d="M779.138 265.674C807.626 261.312 823.144 233.785 823.3 233.517L821.977 232.731C821.942 232.793 818.125 239.122 811.032 245.509C806.88 249.245 802.428 252.275 797.807 254.505C792.046 257.285 785.306 258.917 779.138 259.185V265.674Z" fill="#365DA4"/>
<path d="M806.299 249.933L808.748 248.476L809.646 247.471C809.584 247.413 802.317 241.728 803.64 233.204L802.576 233.039C800.591 237.942 806.227 249.871 806.299 249.933Z" fill="#365DA4"/>
<path d="M734.194 213.173C737.001 223.846 757.86 228.659 772.019 226.362C786.178 224.065 795.103 237.276 811.72 238.197C828.342 239.122 837.263 226.362 837.263 226.362C826.903 217.553 811.944 209.588 787.027 207.599C768.72 206.138 749.69 207.313 734.194 213.173Z" fill="#FFA49F"/>
<path d="M625.821 350.338C625.821 350.338 635.747 342.472 656.056 345.471C676.37 348.47 705.684 339.736 716.992 350.338H625.821Z" fill="#82B378"/>
<path d="M691.141 346.239C691.141 346.239 707.991 323.16 716.992 328.697C725.998 334.239 691.141 346.239 691.141 346.239Z" fill="#82B378"/>
<path d="M703.222 345.077C703.222 345.077 718.31 338.534 721.85 341.153C725.39 343.768 703.222 345.077 703.222 345.077Z" fill="#82B378"/>
<path d="M634.009 347.562L686.108 345.587C683.717 345.663 665.849 345.998 657.674 338.91C648.901 331.307 636.083 330.011 636.083 330.011L636.078 330.016C633.696 334.306 632.798 339.969 634.009 347.562Z" fill="#82B378"/>
<path d="M1003.98 350.356C1003.98 350.356 997.15 345.779 984.18 347.518C971.21 349.252 933.908 350.557 915.749 348.711C897.59 346.865 860.101 350.342 860.101 350.342L1003.98 350.356Z" fill="#82B378"/>
<path d="M615.358 351.419H1022.97C1023.23 351.419 1023.44 351.209 1023.44 350.955V350.798C1023.44 350.543 1023.23 350.333 1022.97 350.333H615.358C615.103 350.333 614.893 350.543 614.893 350.798V350.955C614.893 351.209 615.103 351.419 615.358 351.419Z" fill="#2E3552"/>
<path d="M990.947 348.988C990.947 348.988 987.528 334.293 985.776 337.448C984.024 340.599 990.947 348.988 990.947 348.988Z" fill="#82B378"/>
<path d="M989.083 348.733C989.083 348.733 984.779 342.128 983.997 342.986C983.215 343.844 989.083 348.733 989.083 348.733Z" fill="#82B378"/>
<path d="M993.043 348.072C993.083 347.996 995.197 341.068 996.632 342.405C998.071 343.737 993.043 348.072 993.043 348.072Z" fill="#82B378"/>
<path d="M901.13 349.229C901.13 348.997 906.283 339.723 908.134 341.149C909.984 342.574 901.13 349.229 901.13 349.229Z" fill="#82B378"/>
<path d="M900.594 349.229C900.518 348.769 899.593 340.773 901.595 341.001C903.597 341.229 900.518 348.769 900.518 348.769L900.594 349.229Z" fill="#82B378"/>
<path d="M932.814 338.847H971.103L972.872 329.85H934.65L932.814 338.847Z" fill="#B27D59"/>
<path d="M932.156 338.847H970.446L972.215 329.85H933.998L932.156 338.847Z" fill="#E0B594"/>
<path d="M959.8 339.951H970.262C970.727 339.951 971.103 339.576 971.103 339.111V338.847H959.8V339.951Z" fill="#B27D59"/>
<path d="M925.11 339.95H959.886V338.85H925.11V339.95Z" fill="#D3A07D"/>
<path d="M814.674 268.821H815.443L815.439 268.758L815.206 266.707C815.197 266.64 815.144 266.591 815.077 266.591C815.068 266.591 815.059 266.591 815.054 266.591C815.01 266.595 814.969 266.613 814.943 266.644C814.907 266.676 814.88 266.725 814.876 266.778L814.674 268.821Z" fill="#2B478B"/>
<path d="M815.372 268.356H815.398L815.206 266.711C815.197 266.644 815.144 266.595 815.077 266.595C815.068 266.595 815.059 266.595 815.054 266.595C815.045 266.6 815.041 266.609 815.037 266.613C815.001 266.649 814.983 266.698 814.983 266.752L814.974 267.936C814.965 268.164 815.144 268.352 815.372 268.356Z" fill="#3F65B2"/>
<path d="M815.671 277.947H814.187V343.419H815.671V277.947Z" fill="#2B478B"/>
<path d="M815.667 277.947H814.983V343.419H815.667V277.947Z" fill="#4365AA"/>
<path d="M817.289 332.97H812.565V350.293H817.289V332.97Z" fill="#2B478B"/>
<path d="M817.289 332.97H814.473V350.293H817.289V332.97Z" fill="#4365AA"/>
<path d="M812.346 269.809C812.346 270.618 813.562 271.275 815.059 271.275C815.175 271.275 815.287 271.27 815.399 271.261C816.739 271.172 817.776 270.555 817.776 269.809C817.776 269.062 816.739 268.445 815.399 268.356C815.287 268.347 815.175 268.343 815.059 268.343C813.562 268.347 812.346 269 812.346 269.809Z" fill="#2B478B"/>
<path d="M813.749 269.809C813.749 270.461 814.429 271.02 815.394 271.261C816.735 271.172 817.772 270.555 817.772 269.809C817.772 269.062 816.735 268.445 815.394 268.356C814.429 268.597 813.749 269.156 813.749 269.809Z" fill="#3F65B2"/>
<path d="M812.574 279.239H817.293L818.961 271.221H811.162L812.574 279.239Z" fill="#3F65B2"/>
<path d="M819.381 270.618H810.741V271.386H819.381V270.618Z" fill="#2B478B"/>
<path d="M819.381 270.618H813.95V271.386H819.381V270.618Z" fill="#3F65B2"/>
<path d="M816.516 332.97H813.499L813.941 331.629C813.982 331.508 814.093 331.432 814.219 331.432H815.631C815.783 331.432 815.921 331.526 815.98 331.665L816.516 332.97Z" fill="#365DA4"/>
<path d="M818.402 271.614H811.743L813.043 278.819H816.864L818.402 271.614Z" fill="#F9DDBF"/>
<path d="M817.593 269.894C817.593 269.894 817.083 268.785 816.082 268.821C816.082 268.821 816.721 269.388 816.663 269.894C816.605 270.403 817.593 269.894 817.593 269.894Z" fill="#C7DCF9"/>
<path d="M811.291 270.618H818.827L818.21 269.737H811.877L811.291 270.618Z" fill="#2B478B"/>
<path d="M813.15 270.618H818.827L818.21 269.737H813.736L813.15 270.618Z" fill="#3F65B2"/>
<path d="M817.959 271.865H816.431L815.989 278.591H816.431L817.959 271.865Z" fill="#FFEBD9"/>
<path d="M918.006 297.246H918.507L918.503 297.206L918.351 295.87C918.346 295.825 918.31 295.794 918.266 295.794C918.261 295.794 918.257 295.794 918.248 295.794C918.221 295.798 918.194 295.807 918.172 295.829C918.149 295.852 918.132 295.883 918.127 295.914L918.006 297.246Z" fill="#2B478B"/>
<path d="M918.458 296.942H918.476L918.351 295.87C918.346 295.825 918.31 295.794 918.266 295.794C918.261 295.794 918.257 295.794 918.248 295.794C918.243 295.798 918.239 295.802 918.234 295.807C918.212 295.829 918.199 295.861 918.199 295.896L918.19 296.665C918.194 296.817 918.31 296.938 918.458 296.942Z" fill="#3F65B2"/>
<path d="M918.65 303.186H917.685V345.815H918.65V303.186Z" fill="#2B478B"/>
<path d="M918.65 303.186H918.203V345.815H918.65V303.186Z" fill="#4365AA"/>
<path d="M919.705 339.012H916.63V350.293H919.705V339.012Z" fill="#2B478B"/>
<path d="M919.705 339.012H917.872V350.293H919.705V339.012Z" fill="#4365AA"/>
<path d="M916.487 297.885C916.487 298.413 917.278 298.837 918.252 298.837C918.328 298.837 918.4 298.837 918.471 298.828C919.343 298.77 920.018 298.368 920.018 297.881C920.018 297.394 919.343 296.991 918.471 296.933C918.4 296.929 918.324 296.924 918.252 296.924C917.278 296.933 916.487 297.362 916.487 297.885Z" fill="#2B478B"/>
<path d="M917.403 297.885C917.403 298.31 917.846 298.676 918.476 298.833C919.347 298.775 920.022 298.372 920.022 297.885C920.022 297.398 919.347 296.996 918.476 296.938C917.846 297.099 917.403 297.461 917.403 297.885Z" fill="#3F65B2"/>
<path d="M916.634 304.026H919.709L920.795 298.806H915.718L916.634 304.026Z" fill="#3F65B2"/>
<path d="M921.068 298.413H915.441V298.913H921.068V298.413Z" fill="#2B478B"/>
<path d="M921.068 298.413H917.533V298.913H921.068V298.413Z" fill="#3F65B2"/>
<path d="M919.204 339.012H917.238L917.524 338.141C917.551 338.065 917.622 338.011 917.703 338.011H918.623C918.722 338.011 918.811 338.069 918.851 338.163L919.204 339.012Z" fill="#365DA4"/>
<path d="M920.429 299.061H916.094L916.943 303.754H919.432L920.429 299.061Z" fill="#F9DDBF"/>
<path d="M919.906 297.943C919.906 297.943 919.575 297.224 918.923 297.246C918.923 297.246 919.338 297.617 919.298 297.943C919.262 298.274 919.906 297.943 919.906 297.943Z" fill="#C7DCF9"/>
<path d="M915.803 298.413H920.71L920.308 297.841H916.183L915.803 298.413Z" fill="#2B478B"/>
<path d="M917.01 298.413H920.71L920.308 297.841H917.39L917.01 298.413Z" fill="#3F65B2"/>
<path d="M920.143 299.226H919.151L918.86 303.606H919.151L920.143 299.226Z" fill="#FFEBD9"/>
<path d="M968.814 339.951L969.471 342.53C969.471 342.53 969.471 342.53 969.471 342.535L971.411 350.168C971.438 350.267 971.527 350.338 971.63 350.338C971.827 350.338 971.974 350.159 971.938 349.967L970.209 341.06L969.994 339.951H968.814Z" fill="#EDBE9D"/>
<path d="M969.471 342.525C969.409 341.207 970.204 341.055 970.204 341.055L969.99 339.947H968.814L969.471 342.525Z" fill="#B27D59"/>
<path d="M960.51 339.951L961.167 342.53C961.167 342.53 961.167 342.53 961.167 342.535L963.107 350.168C963.134 350.267 963.223 350.338 963.326 350.338C963.523 350.338 963.674 350.159 963.634 349.967L961.905 341.06L961.69 339.951H960.51Z" fill="#EDBE9D"/>
<path d="M961.167 342.525C961.105 341.207 961.9 341.055 961.9 341.055L961.686 339.947H960.51L961.167 342.525Z" fill="#B27D59"/>
<path d="M928.282 339.951L927.625 342.53C927.625 342.53 927.625 342.53 927.625 342.535L925.685 350.168C925.658 350.267 925.569 350.338 925.466 350.338C925.269 350.338 925.122 350.159 925.157 349.967L926.887 341.06L927.102 339.951H928.282Z" fill="#EDBE9D"/>
<path d="M927.629 342.525C927.692 341.207 926.896 341.055 926.896 341.055L927.111 339.947H928.286L927.629 342.525Z" fill="#B27D59"/>
<path d="M936.59 339.951L935.933 342.53C935.933 342.53 935.933 342.53 935.933 342.535L933.993 350.168C933.967 350.267 933.877 350.338 933.774 350.338C933.578 350.338 933.43 350.159 933.466 349.967L935.196 341.06L935.41 339.951H936.59Z" fill="#EDBE9D"/>
<path d="M935.933 342.525C935.996 341.207 935.2 341.055 935.2 341.055L935.415 339.947H936.59L935.933 342.525Z" fill="#B27D59"/>
<path d="M961.252 338.847H969.19C969.981 337.681 969.083 334.981 968.819 333.788C968.533 332.496 970.093 330.436 970.562 329.85H964.327C963.478 332.188 961.587 337.024 961.252 338.847Z" fill="#D3A07D"/>
<path d="M933.028 338.847H940.966C941.757 337.681 940.858 334.981 940.595 333.788C940.309 332.496 941.869 330.436 942.338 329.85H936.103C935.258 332.188 933.363 337.024 933.028 338.847Z" fill="#D3A07D"/>
<path d="M738.043 266.412C738.043 266.412 740.42 267.386 740.827 269.183C741.234 270.98 737.721 270.618 738.043 266.412Z" fill="#FFA49F"/>
<path d="M735.392 245.996C735.392 245.996 731.62 249.124 730.007 247.43C728.389 245.741 735.392 245.996 735.392 245.996Z" fill="#FFA49F"/>
<path d="M716.08 283.364C716.08 283.364 721.39 284.441 720.697 286.059C720.004 287.673 716.08 283.364 716.08 283.364Z" fill="#FFA49F"/>
<path d="M747.5 282.314C747.5 282.314 747.357 285.702 744.402 285.648C744.402 285.648 743.446 283.288 747.5 282.314Z" fill="#FFA49F"/>
<path d="M789.972 292.576C789.972 292.576 791.563 294.783 793.154 294.882C794.746 294.985 795.259 296.728 793.154 296.83C791.049 296.933 789.512 293.447 789.972 292.576Z" fill="#FFA49F"/>
<path d="M798.589 285.648C798.589 285.648 797.512 288.674 796.229 287.851C794.947 287.034 798.589 285.648 798.589 285.648Z" fill="#FFA49F"/>
<path d="M1039.45 416.173H1047.07V142.272H1039.45V416.173Z" fill="#916140"/>
<path d="M897.926 425.611H906.288L903.526 436.708C894.922 439.417 891.324 454.532 891.324 454.532L897.926 425.611Z" fill="#916140"/>
<path d="M725.081 425.611H733.444L730.682 436.708C722.078 439.417 718.628 454.532 718.628 454.532L725.081 425.611Z" fill="#916140"/>
<path d="M1205.31 597.168H101.778V647.203H1205.31V597.168Z" fill="#FF2323"/>
<path d="M126.444 559.412L120.406 576.283C120.406 576.283 116.688 576.493 115.981 580.547C115.271 584.601 114.94 606.979 114.94 606.979L98.5554 600.583C98.8548 599.873 102.144 574.701 101.639 570.875C101.143 567.05 95.5922 560.69 100.428 552.81C103.06 548.529 102.864 543.286 102.149 539.407C101.881 537.985 101.55 536.747 101.255 535.804C101.103 535.308 101.233 534.826 101.527 534.486C101.849 534.11 102.359 533.909 102.904 534.043C104.298 534.396 106.05 535.255 107.44 537.293C108.455 538.772 108.683 541.306 109.304 543.813C111.798 541.36 117.702 541.485 120.357 542.383C124.916 543.921 126.444 559.412 126.444 559.412Z" fill="#EFA26F"/>
<path d="M102.627 539.209L102.153 539.41C101.885 537.989 100.482 535.236 100.187 534.293C100.035 533.797 101.027 533.882 101.42 534.199C101.666 534.324 101.988 534.807 102.126 535.062C102.533 535.795 103.038 536.791 103.315 537.681C103.521 538.297 103.226 538.959 102.627 539.209Z" fill="#FFC197"/>
<path d="M121.416 579.313L120.925 579.46C119.307 579.943 117.765 579.532 117.497 578.553L100.879 517.85L104.531 516.768L123.754 576.734C124.053 577.682 123.003 578.844 121.416 579.313Z" fill="#EFCBAB"/>
<path d="M142.664 507.034L63.4306 530.561C61.1959 531.227 58.8226 529.94 58.1612 527.705L36.4445 454.568C35.783 452.333 37.0657 449.96 39.3004 449.299L118.533 425.772C120.768 425.11 123.141 426.393 123.803 428.628L145.52 501.765C146.186 503.999 144.898 506.373 142.664 507.034Z" fill="#E1473D"/>
<path d="M127.168 507.45L76.6421 522.453C68.7849 524.786 60.4495 520.268 58.1165 512.411L44.7531 467.404C42.4201 459.547 46.9386 451.212 54.7958 448.879L105.322 433.875C113.179 431.542 121.515 436.06 123.848 443.918L137.211 488.924C139.544 496.781 135.026 505.117 127.168 507.45Z" fill="#FCECDB"/>
<path d="M111.199 493.751C110.471 491.293 108.683 490.488 105.84 491.333L101.447 492.643L92.9552 464.039L91.0691 457.688C90.4166 455.489 89.8401 454.175 89.3306 453.737C88.8255 453.303 87.9093 453.281 86.573 453.679C85.1964 454.085 83.3997 454.716 81.1874 455.556C78.9795 456.401 77.4063 457.147 76.4766 457.799C74.6442 459.051 73.9559 460.445 74.4207 461.996C75.0598 464.15 76.6733 464.843 79.2566 464.074L83.5204 462.805L85.907 470.846L93.1161 495.114L88.0747 496.612C85.1874 497.47 84.1148 499.146 84.8612 501.644C85.2187 502.851 85.916 503.664 86.9573 504.08C87.9942 504.5 89.1384 504.522 90.3898 504.151L108.093 498.895C110.931 498.046 111.968 496.334 111.199 493.751Z" fill="#FF2323"/>
<path d="M121.48 543.352L109.305 549.359C108.286 549.9 107.37 549.721 106.829 548.707L105.824 546.812C105.283 545.797 105.676 544.523 106.691 543.983L116.268 538.293C117.52 537.569 119.169 538.016 119.987 538.963C119.991 538.963 123.513 542.382 121.48 543.352Z" fill="#FFB27D"/>
<path d="M124.934 549.002L112.58 555.549C110.976 556.403 108.965 555.782 108.111 554.177C107.257 552.573 107.879 550.561 109.483 549.708L121.836 543.16C123.441 542.306 124.911 541.783 126.306 544.532C127.794 546.691 126.538 548.152 124.934 549.002Z" fill="#FFB27D"/>
<path d="M126.435 554.258L116.415 559.008C115.03 559.741 113.582 559.621 112.849 558.235C112.116 556.85 112.647 555.111 114.033 554.378L123.763 549.221C125.148 548.488 126.511 547.688 127.62 550.405C128.536 552.26 127.83 553.551 126.435 554.258Z" fill="#FFB27D"/>
<path d="M128.17 558.79L122.467 561.815C121.269 562.45 119.772 561.99 119.137 560.792C118.502 559.594 118.963 558.097 120.16 557.462L125.863 554.436C127.061 553.802 128.558 554.262 129.193 555.46C129.823 556.653 129.363 558.155 128.17 558.79Z" fill="#FFB27D"/>
<path d="M106.073 545.587C106.775 545.122 107.727 544.537 108.589 544.188C109.188 543.947 109.867 544.184 110.167 544.756L111.025 546.396C111.32 546.964 111.11 547.67 110.547 547.974C109.85 548.349 108.875 548.832 107.887 549.194C107.195 549.448 106.422 549.131 106.095 548.465L105.577 547.41C105.264 546.767 105.474 545.989 106.073 545.587Z" fill="#FFC197"/>
<path d="M108.062 552.05C108.755 551.589 109.702 551.013 110.556 550.664C111.146 550.423 111.821 550.66 112.116 551.227L112.965 552.854C113.26 553.417 113.05 554.114 112.491 554.418C111.803 554.789 110.837 555.268 109.858 555.625C109.17 555.875 108.406 555.563 108.084 554.906L107.575 553.86C107.257 553.216 107.467 552.443 108.062 552.05Z" fill="#FFC197"/>
<path d="M112.567 556.26C113.157 555.867 113.961 555.379 114.685 555.08C115.186 554.874 115.763 555.075 116.013 555.558L116.732 556.939C116.983 557.417 116.804 558.012 116.33 558.267C115.745 558.584 114.927 558.991 114.095 559.295C113.51 559.509 112.862 559.241 112.589 558.682L112.156 557.793C111.883 557.252 112.062 556.595 112.567 556.26Z" fill="#FFC197"/>
<path d="M118.913 559.263C119.427 558.924 120.12 558.499 120.75 558.24C121.188 558.061 121.684 558.235 121.903 558.655L122.529 559.853C122.748 560.269 122.592 560.783 122.181 561.006C121.676 561.279 120.96 561.632 120.241 561.896C119.736 562.079 119.173 561.851 118.936 561.364L118.56 560.595C118.323 560.121 118.475 559.554 118.913 559.263Z" fill="#FFC197"/>
<path d="M123.897 647.203H90.7072C92.191 628.413 99.7129 577.963 99.7129 577.963C99.7129 577.963 100.316 578.119 101.291 578.432C104.678 579.505 112.58 582.392 115.503 586.728C115.807 587.174 116.057 587.635 116.241 588.117C116.245 588.117 124.513 631.448 123.897 647.203Z" fill="#82B378"/>
<path d="M890.27 620.833C890.529 629.24 891.619 642.917 891.807 643.435L880.415 647.198H875.838C875.963 643.641 876.258 634.657 876.271 628.628C876.28 626.223 876.24 624.293 876.124 623.354C875.945 621.852 875.311 620.869 874.6 620.226C873.402 619.148 872.383 617.888 871.623 616.485C871.208 615.72 870.868 614.916 870.613 614.071L868.951 608.511L867.279 602.925L867.176 602.58C867.176 602.58 867.48 600.578 868.088 597.99C868.092 597.964 868.097 597.941 868.106 597.919V597.914C868.472 596.35 868.951 594.585 869.536 592.913C869.572 592.806 869.612 592.694 869.648 592.587C870.439 590.401 871.418 588.417 872.58 587.344C872.58 587.34 872.58 587.34 872.584 587.34C872.986 586.964 873.411 586.701 873.858 586.58C875.404 586.147 878.041 586.035 880.401 586.54C881.997 586.884 883.463 587.51 884.374 588.506C884.495 588.118 884.602 587.729 884.705 587.344C885.228 585.373 885.612 583.496 886.493 582.352C887.11 581.539 887.785 580.944 888.455 580.506C889.344 579.925 890.234 579.621 891.003 579.469C891.472 579.38 891.905 579.545 892.2 579.849C892.236 579.885 892.267 579.925 892.299 579.961C892.567 580.305 892.665 580.774 892.495 581.235C892.165 582.124 891.785 583.295 891.458 584.64C890.578 588.319 890.126 593.333 892.433 597.57C896.665 605.36 891.029 611.175 890.354 614.813C890.189 615.743 890.18 617.986 890.27 620.833Z" fill="#EFA26F"/>
<path d="M891.02 584.435L891.463 584.649C891.789 583.304 893.273 580.734 893.604 579.845C893.774 579.38 892.817 579.407 892.424 579.693C892.182 579.8 891.852 580.247 891.704 580.484C891.28 581.168 890.743 582.093 890.43 582.933C890.211 583.514 890.457 584.167 891.02 584.435Z" fill="#FFC197"/>
<path d="M863.14 626.179L863.601 626.407C865.111 627.153 866.702 627.014 867.132 626.094L893.8 569.087L890.386 567.402L861.272 623.238C860.816 624.123 861.657 625.446 863.14 626.179Z" fill="#EFCBAB"/>
<path d="M854.452 551.343L928.55 587.966C930.641 588.998 933.193 588.135 934.226 586.044L968.032 517.644C969.065 515.553 968.202 513.001 966.11 511.964L892.013 475.342C889.921 474.309 887.369 475.172 886.332 477.264L852.526 545.663C851.498 547.755 852.365 550.311 854.452 551.343Z" fill="#E1473D"/>
<path d="M869.657 554.383L916.907 577.735C924.255 581.364 933.238 578.325 936.867 570.977L957.672 528.889C961.301 521.542 958.262 512.563 950.914 508.929L903.664 485.577C896.317 481.947 887.338 484.987 883.704 492.334L862.904 534.422C859.27 541.77 862.309 550.754 869.657 554.383Z" fill="#FCECDB"/>
<path d="M929.984 511.807L915.588 505.725C913.984 505.045 912.746 504.849 911.883 505.13C911.016 505.412 910.14 506.31 909.246 507.83C905.38 514.266 902.931 518.413 901.899 520.268C901.827 520.438 901.452 521.028 900.777 522.038C900.276 522.874 899.968 523.414 899.861 523.669C898.806 526.163 899.253 527.821 901.197 528.644C902.122 529.037 903.557 529.305 905.488 529.448C907.418 529.591 908.849 529.859 909.778 530.253C914.681 532.326 915.991 536.067 913.707 541.48C912.67 543.933 911.101 545.672 908.996 546.704C906.891 547.732 904.616 547.728 902.162 546.695C900.048 545.801 898.243 544.179 896.746 541.828C895.248 539.477 894.14 538.15 893.425 537.846C892.495 537.453 891.583 537.488 890.685 537.958C889.791 538.427 889.148 539.124 888.75 540.054C888.285 541.153 888.276 542.418 888.714 543.853C889.389 546.034 890.766 548.134 892.853 550.159C894.761 552.014 896.857 553.422 899.137 554.387C902.475 555.795 905.868 556.197 909.318 555.585C912.764 554.977 915.767 553.417 918.319 550.91C920.022 549.238 921.434 547.071 922.561 544.407C924.277 540.349 924.527 536.393 923.316 532.545C922.087 528.492 919.463 525.613 915.445 523.915C913.796 523.218 911.95 522.811 909.908 522.69L915.057 514.109L927.035 519.173C929.993 520.42 931.973 519.852 932.983 517.461C934.029 514.972 933.028 513.09 929.984 511.807Z" fill="#FF2323"/>
<path d="M872.75 587.447L884.106 593.82C885.054 594.388 885.943 594.267 886.511 593.32L887.57 591.559C888.138 590.611 887.829 589.373 886.882 588.806L877.997 582.87C876.835 582.111 875.23 582.459 874.399 583.322C874.399 583.317 870.85 586.419 872.75 587.447Z" fill="#FFB27D"/>
<path d="M869.156 592.69L880.656 599.59C882.153 600.489 884.111 599.997 885.005 598.504C885.903 597.007 885.411 595.05 883.914 594.156L872.414 587.255C870.917 586.357 869.536 585.78 868.066 588.341C866.533 590.33 867.659 591.791 869.156 592.69Z" fill="#FFB27D"/>
<path d="M867.453 597.646L876.812 602.706C878.104 603.479 879.494 603.434 880.267 602.142C881.04 600.851 880.62 599.161 879.329 598.388L870.269 592.953C868.977 592.18 867.713 591.344 866.515 593.892C865.54 595.626 866.148 596.9 867.453 597.646Z" fill="#FFB27D"/>
<path d="M865.558 601.897L870.872 605.083C871.985 605.754 873.442 605.387 874.113 604.274C874.783 603.161 874.417 601.704 873.304 601.034L867.994 597.847C866.881 597.177 865.424 597.543 864.754 598.656C864.083 599.769 864.445 601.231 865.558 601.897Z" fill="#FFB27D"/>
<path d="M887.396 590.37C886.748 589.887 885.863 589.28 885.054 588.9C884.495 588.636 883.829 588.828 883.512 589.364L882.609 590.893C882.296 591.425 882.462 592.109 882.989 592.43C883.637 592.824 884.544 593.338 885.474 593.735C886.126 594.013 886.882 593.749 887.226 593.128L887.776 592.144C888.111 591.541 887.95 590.786 887.396 590.37Z" fill="#FFC197"/>
<path d="M885.166 596.462C884.526 595.984 883.65 595.385 882.85 595.009C882.296 594.75 881.639 594.942 881.326 595.47L880.432 596.985C880.12 597.508 880.285 598.187 880.808 598.504C881.447 598.893 882.345 599.403 883.266 599.796C883.91 600.069 884.661 599.809 885 599.197L885.545 598.223C885.872 597.619 885.715 596.868 885.166 596.462Z" fill="#FFC197"/>
<path d="M880.638 600.265C880.093 599.859 879.351 599.349 878.667 599.027C878.198 598.804 877.635 598.969 877.371 599.416L876.611 600.703C876.348 601.15 876.486 601.727 876.929 601.995C877.474 602.326 878.238 602.759 879.02 603.09C879.57 603.322 880.205 603.099 880.495 602.58L880.955 601.754C881.237 601.253 881.103 600.614 880.638 600.265Z" fill="#FFC197"/>
<path d="M874.403 602.822C873.93 602.469 873.286 602.026 872.696 601.749C872.289 601.557 871.802 601.7 871.57 602.089L870.908 603.206C870.68 603.595 870.801 604.096 871.185 604.328C871.659 604.614 872.321 604.989 873 605.28C873.474 605.481 874.028 605.289 874.278 604.837L874.68 604.118C874.926 603.675 874.81 603.121 874.403 602.822Z" fill="#FFC197"/>
<path d="M894.913 647.203H872.173C874.005 637.375 875.623 629.83 875.623 629.83C875.793 629.419 876.012 629.017 876.276 628.632C879.136 624.422 887.025 621.776 890.27 620.838C891.155 620.583 891.695 620.453 891.695 620.453C891.695 620.453 893.242 632.709 894.913 647.203Z" fill="#82B378"/>
<path d="M455.323 569.686L460.338 585.834C460.338 585.834 463.833 586.178 464.342 590.026C464.847 593.874 460.472 616.654 460.472 616.654L482.157 613.41C481.907 612.73 477.621 585.074 478.251 581.485C478.872 577.896 484.361 572.126 480.115 564.501C477.804 560.358 478.197 555.424 479.029 551.795C479.337 550.467 479.699 549.314 480.016 548.434C480.177 547.974 480.075 547.513 479.811 547.178C479.525 546.812 479.051 546.601 478.533 546.709C477.205 546.986 475.516 547.723 474.126 549.591C473.107 550.946 472.794 553.323 472.106 555.665C469.853 553.252 464.284 553.136 461.741 553.878C457.388 555.147 455.323 569.686 455.323 569.686Z" fill="#EFA26F"/>
<path d="M478.591 551.594L479.029 551.799C479.337 550.472 480.772 547.929 481.089 547.053C481.25 546.593 480.311 546.628 479.927 546.919C479.69 547.026 479.368 547.469 479.225 547.705C478.814 548.38 478.296 549.301 477.996 550.128C477.782 550.7 478.032 551.335 478.591 551.594Z" fill="#FFC197"/>
<path d="M454.483 599.93L454.97 600.1C456.561 600.663 458.121 600.332 458.438 599.367L479.297 536.438L475.708 535.173L452.284 597.231C451.931 598.165 452.919 599.38 454.483 599.93Z" fill="#EFCBAB"/>
<path d="M438.112 523.522L516.053 551.035C518.252 551.813 520.683 550.646 521.461 548.447L546.861 476.504C547.638 474.305 546.472 471.874 544.273 471.096L466.331 443.582C464.132 442.805 461.701 443.971 460.923 446.17L435.524 518.114C434.746 520.313 435.913 522.744 438.112 523.522Z" fill="#E1473D"/>
<path d="M453.567 524.724L503.266 542.271C510.994 544.997 519.548 540.908 522.279 533.18L537.908 488.911C540.635 481.183 536.545 472.629 528.818 469.898L479.118 452.356C471.391 449.629 462.836 453.719 460.11 461.447L444.48 505.716C441.75 513.439 445.839 521.998 453.567 524.724Z" fill="#FCECDB"/>
<path d="M482.475 468.495C482.309 467.833 481.55 467.279 480.204 466.828C478.81 466.363 476.942 465.835 474.6 465.245C472.258 464.655 470.506 464.36 469.344 464.36C467.082 464.329 465.688 465.098 465.16 466.662C464.432 468.839 465.375 470.363 467.985 471.239L472.298 472.682L461.379 505.322L456.284 503.619C453.366 502.645 451.489 503.418 450.644 505.944C450.237 507.164 450.344 508.254 450.966 509.211C451.591 510.172 452.53 510.86 453.795 511.28L471.686 517.26C474.559 518.221 476.432 517.399 477.304 514.784C478.135 512.303 477.116 510.583 474.242 509.622L469.8 508.134L481.612 472.817C482.354 470.595 482.64 469.156 482.475 468.495Z" fill="#FF2323"/>
<path d="M527.937 491.213C526.999 485.925 524.339 482.104 519.959 479.757C519.016 479.252 517.993 478.814 516.889 478.444C510.663 476.361 505.161 477.55 500.383 481.997C496.652 485.492 493.657 490.609 491.4 497.358C489.143 504.102 488.473 510.024 489.38 515.119C490.52 521.551 494.18 525.801 500.361 527.866C506.542 529.931 512.022 528.742 516.804 524.29C520.594 520.768 523.62 515.633 525.872 508.884C526.02 508.446 526.158 508.008 526.292 507.575C526.292 507.57 526.292 507.57 526.292 507.57C528.214 501.371 528.76 495.923 527.937 491.213ZM517.398 506.015C515.955 510.332 514.279 513.747 512.375 516.263C509.479 520.143 506.337 521.515 502.94 520.38C497.063 518.413 496.048 511.678 499.901 500.165C501.331 495.892 503.025 492.482 504.991 489.939C507.856 486.149 511.007 484.826 514.449 485.974C517.801 487.096 519.495 490.059 519.53 494.877C519.521 498.073 518.811 501.787 517.398 506.015Z" fill="#FF2323"/>
<path d="M460.646 554.745L471.882 560.895C472.821 561.444 473.692 561.315 474.242 560.376L475.265 558.633C475.815 557.695 475.498 556.479 474.559 555.934L465.759 550.186C464.606 549.453 463.037 549.806 462.228 550.669C462.228 550.669 458.769 553.752 460.646 554.745Z" fill="#FFB27D"/>
<path d="M457.169 559.938L468.553 566.606C470.032 567.474 471.954 566.973 472.821 565.494C473.688 564.014 473.187 562.092 471.708 561.225L460.324 554.557C458.845 553.69 457.477 553.136 456.056 555.67C454.563 557.641 455.685 559.067 457.169 559.938Z" fill="#FFB27D"/>
<path d="M455.542 564.832L464.798 569.713C466.077 570.463 467.444 570.401 468.191 569.123C468.941 567.844 468.508 566.186 467.23 565.44L458.264 560.188C456.986 559.442 455.734 558.633 454.581 561.149C453.643 562.861 454.251 564.108 455.542 564.832Z" fill="#FFB27D"/>
<path d="M453.723 569.029L458.979 572.108C460.083 572.752 461.513 572.381 462.157 571.277C462.8 570.173 462.43 568.743 461.326 568.099L456.07 565.02C454.966 564.376 453.535 564.747 452.892 565.851C452.248 566.955 452.624 568.385 453.723 569.029Z" fill="#FFB27D"/>
<path d="M475.082 557.471C474.439 557.002 473.563 556.416 472.763 556.05C472.209 555.795 471.556 555.996 471.252 556.524L470.381 558.039C470.077 558.562 470.246 559.236 470.769 559.545C471.409 559.925 472.307 560.421 473.228 560.801C473.871 561.069 474.613 560.801 474.944 560.188L475.476 559.214C475.797 558.615 475.632 557.873 475.082 557.471Z" fill="#FFC197"/>
<path d="M472.95 563.482C472.316 563.018 471.449 562.436 470.658 562.074C470.112 561.824 469.464 562.021 469.165 562.539L468.298 564.037C467.998 564.555 468.168 565.221 468.682 565.529C469.317 565.905 470.206 566.396 471.114 566.772C471.753 567.035 472.486 566.772 472.812 566.164L473.335 565.199C473.661 564.613 473.496 563.88 472.95 563.482Z" fill="#FFC197"/>
<path d="M468.535 567.272C467.994 566.879 467.257 566.383 466.586 566.075C466.121 565.86 465.572 566.03 465.317 566.472L464.584 567.746C464.329 568.189 464.472 568.752 464.91 569.015C465.451 569.337 466.206 569.753 466.979 570.075C467.52 570.298 468.146 570.075 468.423 569.556L468.87 568.738C469.138 568.233 469 567.608 468.535 567.272Z" fill="#FFC197"/>
<path d="M462.43 569.847C461.96 569.507 461.321 569.078 460.74 568.81C460.338 568.627 459.86 568.77 459.636 569.154L458.997 570.258C458.778 570.642 458.899 571.134 459.283 571.357C459.748 571.635 460.405 571.996 461.075 572.274C461.545 572.47 462.085 572.274 462.327 571.827L462.711 571.116C462.952 570.683 462.832 570.142 462.43 569.847Z" fill="#FFC197"/>
<path d="M486.904 647.203H456.123C456.4 642.313 457.138 636.145 458.058 629.808C458.438 627.166 458.854 624.494 459.283 621.875C459.377 621.307 459.466 620.735 459.556 620.176C459.663 619.546 459.766 618.916 459.873 618.29C459.976 617.691 460.074 617.092 460.177 616.502C460.391 615.251 460.606 614.026 460.816 612.842C460.941 612.833 461.066 612.82 461.191 612.806C465.375 612.4 471.654 611.546 475.109 609.848C477.42 608.712 479.476 607.711 481.116 607.077C481.514 606.925 481.88 606.79 482.224 606.688C482.627 609.848 483.056 613.213 483.485 616.663C484.808 627.394 486.148 638.898 486.904 647.203Z" fill="#2B478B"/>
<path d="M483.48 616.668C483.48 616.668 460.749 624.163 458.054 629.808C458.438 627.166 458.85 624.494 459.279 621.875C459.373 621.307 459.462 620.735 459.556 620.176C460.459 619.376 461.571 618.822 462.921 618.688L483.48 616.668Z" fill="#233862"/>
<path d="M483.48 616.668C477.482 619.077 464.718 622.259 459.279 621.879C458.572 621.83 457.987 621.718 457.558 621.54C457.558 621.54 456.369 620.722 456.736 619.434C456.771 619.305 456.825 619.162 456.901 619.019C457.388 618.071 456.378 616.257 456.119 614.871C455.962 614.031 456.083 613.352 456.986 613.119C456.986 613.119 458.546 613.052 460.812 612.842C464.986 612.453 471.547 611.6 475.105 609.852C477.974 608.444 480.45 607.246 482.22 606.692C483.833 606.192 484.861 606.227 485.067 607.126C485.496 609.012 485.63 612.663 486.676 614.576C486.926 615.032 485.643 615.796 483.48 616.668Z" fill="#2B478B"/>
<path d="M463.806 617.32C463.14 617.468 457.603 618.71 456.731 619.43C456.767 619.3 456.82 619.157 456.896 619.014C457.384 618.067 456.373 616.252 456.114 614.867C456.539 615.242 458.648 616.878 462.76 616.561C467.408 616.208 464.539 617.164 463.806 617.32Z" fill="#233862"/>
<path d="M743.844 593.847L755.129 608.006C755.129 608.006 758.754 606.992 760.756 610.634C762.758 614.277 770.392 635.569 770.392 635.569L783.97 624.096C783.451 623.515 772.081 600.524 771.313 596.699C770.535 592.877 773.766 584.98 766.566 579.027C762.651 575.791 761.122 570.714 760.537 566.776C760.327 565.333 760.238 564.041 760.215 563.04C760.197 562.517 759.916 562.101 759.522 561.869C759.093 561.614 758.539 561.592 758.065 561.896C756.85 562.687 755.451 564.086 754.789 566.486C754.302 568.233 754.915 570.732 755.138 573.333C751.951 571.8 746.351 573.851 744.103 575.581C740.242 578.535 743.844 593.847 743.844 593.847Z" fill="#EFA26F"/>
<path d="M760.014 566.745L760.533 566.781C760.322 565.337 760.765 562.244 760.738 561.243C760.72 560.72 759.8 561.122 759.527 561.56C759.335 561.757 759.187 562.329 759.134 562.62C758.986 563.455 758.825 564.573 758.852 565.511C758.861 566.164 759.362 566.7 760.014 566.745Z" fill="#FFC197"/>
<path d="M762.977 617.955C762.977 617.955 763.75 623.412 765.006 631.135C765.015 631.189 765.024 631.242 765.033 631.292C765.064 631.502 765.1 631.712 765.131 631.913C765.131 631.922 765.136 631.935 765.136 631.949C765.167 632.15 765.199 632.346 765.234 632.543C765.333 633.138 765.431 633.736 765.543 634.407C765.654 635.086 765.771 635.779 765.891 636.481C766.012 637.191 766.133 637.915 766.262 638.648C767.469 645.679 767.679 646.702 767.791 647.203H797.213C792.283 637.12 791.398 636.056 785.199 624.556C784.824 623.859 784.457 623.18 784.091 622.505C779.161 613.383 775.407 606.567 775.156 606.116C775.147 606.098 775.143 606.093 775.143 606.093C775.143 606.093 764.215 608.56 763.053 615.939C762.946 616.57 762.919 617.244 762.977 617.955Z" fill="#F99746"/>
<path d="M758.083 615.707L758.597 615.658C760.278 615.497 761.556 614.54 761.435 613.53L753.587 545.927L749.797 546.289L754.955 614.183C755.026 615.184 756.434 615.868 758.083 615.707Z" fill="#EFCBAB"/>
<path d="M710.788 551.571L793.065 543.683C795.385 543.46 797.101 541.381 796.882 539.062L789.601 463.114C789.378 460.794 787.3 459.078 784.975 459.297L702.699 467.185C700.379 467.409 698.663 469.487 698.882 471.807L706.162 547.755C706.39 550.074 708.469 551.79 710.788 551.571Z" fill="#E1473D"/>
<path d="M725.314 546.146L777.78 541.113C785.936 540.331 791.97 533.015 791.188 524.858L786.705 478.122C785.923 469.965 778.607 463.931 770.45 464.714L717.984 469.746C709.827 470.528 703.794 477.845 704.576 486.001L709.059 532.737C709.841 540.894 717.157 546.928 725.314 546.146Z" fill="#FCECDB"/>
<path d="M738.825 502.024C734.923 500.013 732.773 496.696 732.375 492.075C732.04 488.142 733.207 484.844 735.875 482.171C738.423 479.65 741.707 478.216 745.734 477.871C749.761 477.527 753.216 478.381 756.112 480.437C759.201 482.618 760.912 485.671 761.252 489.604C761.645 494.176 760.112 497.809 756.658 500.5C762.133 502.565 765.127 506.614 765.645 512.652C766.057 517.452 764.765 521.457 761.771 524.661C758.941 527.669 755.084 529.381 750.19 529.801C745.296 530.221 741.153 529.162 737.757 526.619C734.36 524.08 732.451 520.384 732.04 515.535C731.517 509.448 733.779 504.942 738.825 502.024ZM740.836 514.19C741.064 516.809 741.913 518.824 743.392 520.246C744.872 521.667 746.919 522.266 749.524 522.042C752.085 521.819 753.971 520.885 755.192 519.231C756.407 517.577 756.903 515.441 756.68 512.826C756.465 510.301 755.598 508.294 754.092 506.806C752.474 505.139 750.459 504.415 748.032 504.621C745.565 504.835 743.692 505.85 742.418 507.669C741.149 509.488 740.621 511.66 740.836 514.19ZM740.648 491.852C740.818 493.818 741.52 495.405 742.749 496.612C743.982 497.818 745.56 498.341 747.477 498.176C749.399 498.01 750.87 497.193 751.898 495.722C752.845 494.395 753.23 492.75 753.064 490.788C752.912 489.005 752.206 487.624 750.946 486.649C749.685 485.675 748.166 485.264 746.382 485.416C744.505 485.577 743.044 486.234 741.989 487.382C740.943 488.531 740.492 490.024 740.648 491.852Z" fill="#FF2323"/>
<path d="M743.339 576.868L756.944 578.634C758.092 578.817 758.915 578.347 759.098 577.199L759.438 575.062C759.621 573.914 758.83 572.823 757.681 572.64L746.664 570.329C745.229 570.043 743.799 571.013 743.325 572.184C743.33 572.184 741.082 576.604 743.339 576.868Z" fill="#FFB27D"/>
<path d="M741.886 583.398L755.835 585.624C757.65 585.914 759.37 584.667 759.661 582.853C759.951 581.038 758.7 579.317 756.89 579.027L742.941 576.801C741.126 576.511 739.549 576.493 739.115 579.572C738.396 582.124 740.072 583.112 741.886 583.398Z" fill="#FFB27D"/>
<path d="M742.168 588.917L753.301 590.182C754.865 590.433 756.211 589.843 756.456 588.274C756.707 586.71 755.63 585.221 754.061 584.975L743.071 583.223C741.506 582.973 739.942 582.656 739.768 585.615C739.504 587.688 740.604 588.694 742.168 588.917Z" fill="#FFB27D"/>
<path d="M741.989 593.811L748.434 594.839C749.784 595.054 751.066 594.124 751.281 592.775C751.495 591.425 750.57 590.142 749.216 589.928L742.771 588.9C741.421 588.685 740.139 589.615 739.924 590.965C739.71 592.314 740.639 593.597 741.989 593.811Z" fill="#FFB27D"/>
<path d="M758.803 573.972C757.98 573.757 756.877 573.512 755.938 573.453C755.285 573.418 754.713 573.869 754.615 574.513L754.333 576.363C754.235 577.007 754.669 577.61 755.308 577.717C756.094 577.847 757.185 577.994 758.249 578.017C758.995 578.035 759.63 577.476 759.724 576.734L759.871 575.554C759.96 574.835 759.505 574.155 758.803 573.972Z" fill="#FFC197"/>
<path d="M759.017 580.797C758.204 580.582 757.113 580.341 756.179 580.287C755.536 580.251 754.968 580.698 754.87 581.333L754.588 583.165C754.49 583.8 754.919 584.399 755.554 584.506C756.331 584.636 757.413 584.779 758.463 584.801C759.201 584.819 759.831 584.265 759.925 583.536L760.072 582.37C760.162 581.65 759.715 580.98 759.017 580.797Z" fill="#FFC197"/>
<path d="M756.086 586.294C755.393 586.111 754.468 585.905 753.677 585.86C753.131 585.829 752.644 586.209 752.564 586.75L752.327 588.305C752.246 588.846 752.608 589.356 753.149 589.445C753.811 589.557 754.727 589.677 755.625 589.695C756.251 589.709 756.787 589.239 756.868 588.618L756.993 587.626C757.06 587.023 756.675 586.45 756.086 586.294Z" fill="#FFC197"/>
<path d="M750.995 591.242C750.396 591.085 749.591 590.906 748.903 590.866C748.429 590.839 748.009 591.17 747.938 591.639L747.732 592.989C747.661 593.458 747.978 593.901 748.443 593.977C749.019 594.071 749.81 594.178 750.588 594.196C751.133 594.209 751.598 593.803 751.665 593.262L751.773 592.404C751.844 591.867 751.509 591.376 750.995 591.242Z" fill="#FFC197"/>
<path d="M764.872 631.403C764.904 631.327 764.966 631.207 765.006 631.135C765.015 631.189 765.024 631.243 765.033 631.292C765.064 631.502 765.1 631.712 765.131 631.913C765.131 631.922 765.136 631.935 765.136 631.949C765.167 632.15 765.199 632.346 765.234 632.543C765.333 633.138 765.431 633.736 765.543 634.407C765.534 634.469 765.529 634.751 765.525 634.809C765.494 635.43 765.587 635.962 765.824 636.369C765.847 636.409 765.864 636.445 765.891 636.481C765.936 636.552 765.985 636.619 766.043 636.677C766.812 637.544 768.466 637.634 770.593 636.923C772.953 636.136 775.59 634.487 777.999 632.27C780.551 629.928 782.781 626.862 783.675 624.351C783.733 624.19 783.782 624.033 783.827 623.881C783.974 623.394 784.059 622.934 784.086 622.509V622.491C784.126 621.732 783.965 621.093 783.545 620.619C783.349 620.391 783.103 620.221 782.817 620.1C782.504 619.506 782.2 618.934 781.901 618.366C783.063 618.433 784.024 618.827 784.685 619.573C785.7 620.722 785.825 622.496 785.195 624.552C785.19 624.556 785.19 624.565 785.19 624.57C784.35 627.3 782.182 630.523 779.022 633.419C776.457 635.779 773.628 637.549 771.067 638.398C769.824 638.818 768.702 638.992 767.728 638.943C767.192 638.916 766.7 638.818 766.262 638.644C766.24 638.639 766.222 638.63 766.204 638.621C766.177 638.613 766.146 638.599 766.115 638.586C765.641 638.385 765.234 638.09 764.899 637.714C763.692 636.355 763.683 634.116 764.872 631.403Z" fill="#2B478B"/>
<path d="M640.677 546.043C640.677 546.07 640.673 546.096 640.673 546.123C640.507 548.89 640.217 550.981 640.217 550.981L640.007 551.299L632.266 563.102L630.389 565.972C630.389 565.972 627.761 565.494 625.955 567.639C625.633 568.028 625.334 568.497 625.084 569.074C624.722 569.909 624.163 571.621 623.519 573.78C623.519 573.784 622.809 589.28 621.374 605.374C621.052 608.967 620.695 612.583 620.306 616.069H589.369C591.966 609.405 595.099 601.673 598.2 594.147C605.28 576.966 612.194 560.845 612.203 560.832C612.873 558.731 613.329 557.1 613.414 556.309C613.83 552.47 609.924 544.984 616.48 538.454C620.047 534.91 621.084 529.765 621.303 525.828C621.379 524.38 620.654 521.376 620.592 520.389C620.561 519.87 621.504 520.183 621.812 520.585C621.875 520.639 621.928 520.719 621.986 520.813C622.371 520.594 622.849 520.558 623.296 520.791C624.565 521.461 626.071 522.708 626.943 525.019C627.479 526.422 627.305 528.411 627.242 530.539C627.229 530.954 627.22 531.374 627.224 531.794C627.229 531.794 627.233 531.79 627.242 531.785C628.512 531.03 630.264 530.86 632.038 531.035C634.465 531.267 636.941 532.134 638.313 532.997C638.724 533.256 639.068 533.645 639.363 534.136C639.368 534.141 639.368 534.141 639.368 534.145C640.208 535.567 640.592 537.841 640.726 540.259C640.735 540.38 640.744 540.501 640.749 540.617C640.829 542.463 640.78 544.371 640.677 546.043Z" fill="#EFA26F"/>
<path d="M629.334 573.445L628.82 573.436C627.131 573.413 625.781 572.56 625.817 571.545L628.069 508.648L631.877 508.701L632.333 571.67C632.337 572.671 630.988 573.471 629.334 573.445Z" fill="#EFCBAB"/>
<path d="M671.181 510.797L588.538 509.617C586.205 509.586 584.327 507.651 584.359 505.318L585.449 429.03C585.48 426.697 587.416 424.82 589.749 424.851L672.392 426.031C674.72 426.062 676.602 427.998 676.571 430.331L675.48 506.618C675.445 508.951 673.509 510.829 671.181 510.797Z" fill="#E1473D"/>
<path d="M656.262 506.574L603.564 505.823C595.371 505.707 588.761 498.904 588.877 490.712L589.548 443.766C589.664 435.573 596.466 428.963 604.659 429.079L657.357 429.835C665.549 429.951 672.16 436.753 672.043 444.946L671.373 491.892C671.257 500.08 664.459 506.69 656.262 506.574Z" fill="#FCECDB"/>
<path d="M643.681 464.28C641.156 460.932 637.781 459.256 633.562 459.256C631.359 459.256 629.338 459.672 627.502 460.494H627.363C629.978 456.365 633.558 452.052 638.103 447.551C639.113 446.541 639.618 445.531 639.618 444.521C639.618 443.372 639.202 442.411 638.376 441.629C637.549 440.847 636.561 440.458 635.417 440.458C634.268 440.458 632.203 441.973 629.222 445.004C618.894 455.516 613.731 465.38 613.731 474.609C613.731 479.61 615.175 483.811 618.067 487.203C621.137 490.828 625.133 492.643 630.045 492.643C635.14 492.643 639.269 491.038 642.438 487.825C645.603 484.611 647.189 480.459 647.189 475.364C647.189 471.002 646.018 467.31 643.681 464.28ZM636.177 481.764C634.755 483.552 632.802 484.446 630.326 484.446C627.846 484.446 625.919 483.458 624.543 481.487C623.35 479.744 622.755 477.563 622.755 474.948C622.755 472.928 623.144 471.301 623.926 470.063C625.347 467.766 627.551 466.618 630.536 466.618C633.017 466.618 634.898 467.458 636.181 469.129C637.468 470.805 638.112 472.906 638.112 475.427C638.103 478.001 637.459 480.115 636.177 481.764Z" fill="#FF2323"/>
<path d="M639.167 534.194L625.919 537.18C624.802 537.466 623.953 537.077 623.667 535.96L623.135 533.882C622.849 532.764 623.528 531.62 624.646 531.334L635.296 528.049C636.682 527.638 638.183 528.46 638.755 529.573C638.746 529.578 641.37 533.734 639.167 534.194Z" fill="#FFB27D"/>
<path d="M641.196 540.501L627.649 543.965C625.888 544.416 624.078 543.343 623.627 541.582C623.175 539.821 624.248 538.011 626.009 537.56L639.555 534.096C641.316 533.645 642.872 533.479 643.578 536.478C644.516 538.928 642.957 540.054 641.196 540.501Z" fill="#FFB27D"/>
<path d="M641.419 545.967L630.559 548.233C629.039 548.622 627.662 548.161 627.274 546.642C626.885 545.122 627.81 543.558 629.33 543.169L640.002 540.438C641.522 540.049 643.037 539.593 643.475 542.494C643.931 544.514 642.943 545.605 641.419 545.967Z" fill="#FFB27D"/>
<path d="M642.04 550.776L635.783 552.376C634.469 552.711 633.124 551.911 632.789 550.602C632.454 549.288 633.254 547.942 634.563 547.607L640.82 546.007C642.134 545.672 643.48 546.472 643.815 547.781C644.154 549.091 643.354 550.441 642.04 550.776Z" fill="#FFB27D"/>
<path d="M623.658 532.751C624.449 532.46 625.513 532.121 626.438 531.982C627.077 531.884 627.685 532.277 627.841 532.907L628.288 534.704C628.445 535.33 628.074 535.964 627.452 536.125C626.688 536.326 625.629 536.568 624.579 536.688C623.846 536.773 623.166 536.282 623.01 535.562L622.755 534.414C622.594 533.707 622.983 532.997 623.658 532.751Z" fill="#FFC197"/>
<path d="M624.073 539.5C624.856 539.214 625.91 538.874 626.822 538.735C627.452 538.642 628.056 539.03 628.208 539.647L628.65 541.426C628.802 542.043 628.436 542.673 627.819 542.834C627.064 543.03 626.013 543.272 624.976 543.388C624.252 543.468 623.582 542.986 623.421 542.271L623.171 541.135C623.019 540.447 623.403 539.745 624.073 539.5Z" fill="#FFC197"/>
<path d="M627.466 544.653C628.132 544.412 629.026 544.121 629.803 544.005C630.34 543.924 630.854 544.255 630.983 544.782L631.359 546.293C631.488 546.816 631.175 547.352 630.652 547.491C630.009 547.661 629.115 547.862 628.234 547.965C627.618 548.036 627.046 547.62 626.912 547.017L626.697 546.052C626.567 545.457 626.894 544.863 627.466 544.653Z" fill="#FFC197"/>
<path d="M632.932 549.064C633.508 548.854 634.286 548.604 634.961 548.501C635.426 548.429 635.868 548.716 635.984 549.176L636.311 550.49C636.422 550.946 636.154 551.411 635.698 551.527C635.14 551.674 634.366 551.849 633.602 551.938C633.066 552 632.574 551.643 632.454 551.116L632.266 550.28C632.154 549.761 632.436 549.243 632.932 549.064Z" fill="#FFC197"/>
<path d="M621.374 605.369C621.052 608.963 618.201 643.716 617.807 647.203H576.823C579.42 640.539 595.094 601.669 598.196 594.142C598.196 594.138 604.27 607.072 621.374 605.369Z" fill="#E1473D"/>
<path d="M1043.96 628.91L1043.16 629.325H1027.92C1027.24 624.056 1026.33 617.276 1025.64 613.557C1025.47 612.614 1025.31 611.868 1025.18 611.394C1024.95 610.594 1024.61 609.973 1024.23 609.486C1022.75 607.631 1020.49 607.743 1020.49 607.743L1018.81 604.248L1013.14 592.453V592.448L1012.99 592.118C1012.99 592.118 1012.97 590.08 1013.17 587.402C1013.17 587.38 1013.17 587.353 1013.17 587.326C1013.29 585.713 1013.49 583.876 1013.8 582.12C1013.82 582.008 1013.84 581.892 1013.87 581.78V581.775C1014.31 579.474 1014.97 577.342 1015.96 576.09V576.086C1016.3 575.652 1016.68 575.322 1017.11 575.125C1018.54 574.468 1021.03 573.954 1023.4 574.043C1025.13 574.106 1026.78 574.495 1027.89 575.384C1027.94 574.982 1027.99 574.575 1028.03 574.178C1028.15 573.065 1028.23 571.992 1028.39 571.036L1028.39 571.022C1028.52 570.222 1028.71 569.503 1029.03 568.922C1030.16 566.816 1031.76 565.815 1033.07 565.333C1033.52 565.167 1033.98 565.266 1034.32 565.52C1034.36 565.547 1034.4 565.583 1034.43 565.614C1034.75 565.914 1034.93 566.365 1034.83 566.857C1034.65 567.764 1034.46 568.939 1034.35 570.28C1034.34 570.325 1034.34 570.37 1034.34 570.414C1034.04 574.218 1034.38 579.277 1037.34 583.134C1042.79 590.227 1038.09 596.909 1038 600.641C1037.97 601.669 1038.39 604.243 1039.01 607.439C1040.64 615.801 1043.7 628.44 1043.96 628.91Z" fill="#EFA26F"/>
<path d="M1033.85 570.271L1034.33 570.414C1034.44 569.02 1035.52 566.231 1035.7 565.292C1035.8 564.801 1034.85 564.98 1034.51 565.328C1034.28 565.471 1034.02 565.972 1033.92 566.231C1033.6 566.977 1033.21 567.987 1033.03 568.872C1032.9 569.485 1033.25 570.093 1033.85 570.271Z" fill="#FF2323"/>
<path d="M1057.04 647.203H1023.03C1023.14 644.825 1023.26 624.766 1023.4 622.871C1023.75 618.156 1025.64 613.557 1025.64 613.557C1033.48 612.181 1039.01 607.443 1039.01 607.443C1039.01 607.443 1043.13 608.337 1045.17 613.772C1046.85 618.201 1055.01 641.477 1057.04 647.203Z" fill="#2B478B"/>
<path d="M1019.53 619.506L1020.04 619.573C1021.71 619.792 1023.17 619.144 1023.28 618.134L1030.06 555.563L1026.28 555.071L1016.82 617.325C1016.67 618.313 1017.89 619.296 1019.53 619.506Z" fill="#EFCBAB"/>
<path d="M987.085 551.513L1069.05 562.173C1071.36 562.472 1073.5 560.828 1073.8 558.517L1083.64 482.859C1083.94 480.549 1082.3 478.412 1079.99 478.108L998.022 467.449C995.711 467.149 993.57 468.794 993.271 471.105L983.429 546.762C983.125 549.078 984.77 551.214 987.085 551.513Z" fill="#E1473D"/>
<path d="M1002.45 549.466L1054.72 556.264C1062.84 557.324 1070.36 551.536 1071.41 543.41L1077.47 496.853C1078.53 488.728 1072.74 481.21 1064.62 480.155L1012.35 473.357C1004.23 472.303 996.712 478.086 995.653 486.211L989.597 532.769C988.538 540.899 994.326 548.412 1002.45 549.466Z" fill="#FCECDB"/>
<path d="M1047.62 503.19C1048.07 499.365 1047.15 496.124 1044.86 493.47C1042.56 490.815 1039.47 489.259 1035.6 488.803C1032.73 488.459 1030.01 488.763 1027.45 489.711C1024.65 490.716 1022.47 492.334 1020.91 494.551C1019.97 495.874 1019.42 497.237 1019.25 498.65C1019.11 499.789 1019.35 500.88 1019.94 501.921C1020.53 502.958 1021.37 503.543 1022.46 503.673C1024 503.856 1025.14 503.181 1025.87 501.653C1026.8 499.642 1027.82 498.256 1028.92 497.51C1030.22 496.647 1031.92 496.339 1034 496.589C1035.69 496.79 1036.97 497.438 1037.85 498.538C1038.73 499.637 1039.07 501.027 1038.87 502.712C1038.54 505.537 1037.44 507.418 1035.59 508.353C1035.54 508.393 1033.83 508.813 1030.48 509.617C1028.68 510.096 1027.68 511.159 1027.49 512.8C1027.22 515.034 1028.56 516.464 1031.49 517.086C1036.67 518.208 1039 521.005 1038.47 525.466C1038.25 527.289 1037.75 528.755 1036.97 529.868C1035.33 532.076 1032.91 532.992 1029.71 532.612C1027.34 532.335 1025.5 531.307 1024.19 529.533C1023.94 529.229 1023.14 527.651 1021.76 524.809C1020.91 523.093 1019.88 522.158 1018.7 522.02C1017.56 521.886 1016.57 522.181 1015.75 522.918C1014.92 523.651 1014.44 524.59 1014.31 525.73C1013.83 529.694 1015.53 533.341 1019.39 536.662C1021.82 538.753 1024.91 540.023 1028.65 540.465C1033.48 541.037 1037.62 540.139 1041.09 537.779C1044.76 535.303 1046.88 531.696 1047.44 526.954C1048.16 520.844 1045.87 516.348 1040.58 513.452C1044.73 511.213 1047.08 507.798 1047.62 503.19Z" fill="#FF2323"/>
<path d="M1016.12 576.099L1028.24 581.163C1029.25 581.623 1030.13 581.396 1030.59 580.381L1031.44 578.49C1031.9 577.476 1031.45 576.269 1030.43 575.813L1020.84 570.901C1019.59 570.276 1018.03 570.808 1017.29 571.773C1017.29 571.773 1014.1 575.29 1016.12 576.099Z" fill="#FFB27D"/>
<path d="M1013.38 581.945L1025.93 587C1027.56 587.657 1029.43 586.862 1030.09 585.23C1030.75 583.599 1029.95 581.726 1028.32 581.069L1015.77 576.014C1014.14 575.357 1012.68 575.004 1011.61 577.784C1010.4 580.01 1011.75 581.288 1013.38 581.945Z" fill="#FFB27D"/>
<path d="M1012.47 587.157L1022.59 590.714C1023.99 591.282 1025.37 591.018 1025.94 589.61C1026.5 588.202 1025.82 586.584 1024.41 586.021L1014.53 582.039C1013.12 581.472 1011.72 580.841 1010.94 583.568C1010.25 585.44 1011.05 586.616 1012.47 587.157Z" fill="#FFB27D"/>
<path d="M1011.26 591.684L1017.05 594.017C1018.26 594.509 1019.66 593.914 1020.15 592.699C1020.64 591.483 1020.04 590.089 1018.83 589.601L1013.03 587.268C1011.82 586.781 1010.42 587.371 1009.94 588.587C1009.45 589.802 1010.04 591.197 1011.26 591.684Z" fill="#FFB27D"/>
<path d="M1030.93 577.297C1030.23 576.89 1029.27 576.385 1028.42 576.099C1027.83 575.903 1027.18 576.171 1026.93 576.743L1026.2 578.379C1025.95 578.946 1026.2 579.612 1026.76 579.876C1027.45 580.193 1028.42 580.605 1029.4 580.895C1030.08 581.096 1030.81 580.743 1031.09 580.086L1031.52 579.036C1031.78 578.383 1031.54 577.646 1030.93 577.297Z" fill="#FF2323"/>
<path d="M1029.72 583.152C1029.01 582.777 1028.04 582.316 1027.18 582.07C1026.59 581.896 1025.96 582.196 1025.74 582.768L1025.08 584.417C1024.86 584.989 1025.13 585.637 1025.7 585.874C1026.4 586.16 1027.38 586.526 1028.36 586.768C1029.04 586.938 1029.75 586.562 1029.99 585.896L1030.38 584.841C1030.61 584.193 1030.34 583.469 1029.72 583.152Z" fill="#FF2323"/>
<path d="M1026.01 587.68C1025.41 587.362 1024.58 586.973 1023.85 586.759C1023.35 586.611 1022.82 586.866 1022.63 587.353L1022.07 588.757C1021.88 589.244 1022.11 589.794 1022.59 589.995C1023.19 590.24 1024.02 590.549 1024.85 590.759C1025.43 590.906 1026.03 590.58 1026.24 590.017L1026.57 589.119C1026.77 588.564 1026.53 587.952 1026.01 587.68Z" fill="#FF2323"/>
<path d="M1020.21 591.21C1019.68 590.933 1018.97 590.598 1018.33 590.415C1017.9 590.285 1017.44 590.504 1017.27 590.929L1016.78 592.144C1016.62 592.565 1016.82 593.047 1017.24 593.217C1017.75 593.427 1018.47 593.695 1019.19 593.879C1019.7 594.004 1020.22 593.727 1020.4 593.235L1020.68 592.457C1020.86 591.975 1020.66 591.443 1020.21 591.21Z" fill="#FF2323"/>
<path d="M248.199 647.203H231.046C230.974 646.948 230.907 646.693 230.836 646.443C230.027 643.515 229.316 641.142 228.874 640.078C228.467 639.1 227.926 638.394 227.341 637.884C225.499 636.275 223.22 636.659 223.22 636.659L221.262 633.58L213.106 620.744V620.739L212.891 620.4C212.891 620.4 212.609 618.147 212.475 615.171C212.471 615.144 212.471 615.117 212.471 615.086C212.39 613.294 212.364 611.238 212.489 609.253C212.498 609.128 212.507 608.998 212.511 608.873C212.699 606.272 213.15 603.836 214.075 602.326C214.08 602.321 214.08 602.321 214.08 602.317C214.402 601.794 214.777 601.383 215.224 601.11C216.784 600.158 219.667 599.219 222.397 599.067C224.087 598.974 225.723 599.184 226.961 599.872C227.028 599.908 227.09 599.943 227.153 599.984C227.162 599.528 227.162 599.076 227.153 598.63C227.122 596.341 226.965 594.2 227.564 592.699C228.538 590.232 230.174 588.913 231.551 588.211C232.029 587.97 232.547 588.015 232.954 588.261C233.003 588.287 233.048 588.314 233.093 588.35C233.481 588.64 233.736 589.114 233.691 589.668C233.607 590.732 233.553 592.104 233.611 593.66C233.781 597.897 234.822 603.439 238.594 607.305C245.535 614.42 241.222 622.407 241.607 626.536C241.719 627.73 242.581 630.711 243.765 634.371C245.053 638.335 246.711 643.082 248.199 647.203Z" fill="#EFA26F"/>
<path d="M233.075 593.566L233.616 593.664C233.557 592.113 234.38 588.891 234.46 587.831C234.5 587.277 233.481 587.599 233.142 588.028C232.914 588.216 232.695 588.801 232.605 589.101C232.355 589.968 232.06 591.13 231.98 592.127C231.922 592.819 232.386 593.445 233.075 593.566Z" fill="#FFC197"/>
<path d="M250.581 647.203H230.581C230.648 646.952 230.733 646.698 230.831 646.443C232.869 641.205 240.472 636.306 243.77 634.376C244.722 633.821 245.316 633.513 245.316 633.513C245.316 633.513 247.475 639.064 250.581 647.203Z" fill="#2B478B"/>
<path d="M223.845 646.523L224.359 646.528C226.044 646.546 227.417 645.732 227.408 644.718L226.777 581.784L222.969 581.74L220.891 644.677C220.864 645.674 222.192 646.505 223.845 646.523Z" fill="#EFCBAB"/>
<path d="M183.626 582.821L266.273 583.764C268.606 583.791 270.533 581.905 270.559 579.572L271.431 503.28C271.458 500.947 269.572 499.021 267.243 498.994L184.595 498.051C182.262 498.024 180.336 499.91 180.309 502.243L179.438 578.535C179.411 580.864 181.293 582.795 183.626 582.821Z" fill="#E1473D"/>
<path d="M198.643 578.982L251.346 579.586C259.542 579.679 266.322 573.051 266.416 564.854L266.953 517.908C267.046 509.716 260.418 502.931 252.222 502.837L199.519 502.234C191.326 502.14 184.542 508.768 184.448 516.965L183.912 563.911C183.822 572.104 190.45 578.888 198.643 578.982Z" fill="#FCECDB"/>
<path d="M237.388 515.218H213.637C210.335 515.218 208.681 516.54 208.681 519.177C208.681 521.819 210.352 523.137 213.705 523.137H232.704L232.364 523.826L216.234 558.888C215.555 560.26 215.22 561.52 215.22 562.664C215.22 563.809 215.698 564.747 216.663 565.476C217.629 566.209 218.683 566.575 219.832 566.575C221.575 566.575 223.041 565.243 224.234 562.584L242.201 522.588C242.845 521.166 243.167 520.04 243.167 519.213C243.171 516.549 241.245 515.218 237.388 515.218Z" fill="#FF2323"/>
<path d="M214.285 602.379L228.476 605.794C229.669 606.116 230.59 605.713 230.916 604.52L231.519 602.299C231.846 601.105 231.131 599.863 229.937 599.537L218.545 595.841C217.061 595.376 215.439 596.238 214.804 597.423C214.804 597.423 211.926 601.847 214.285 602.379Z" fill="#FFB27D"/>
<path d="M212.006 609.128L226.509 613.066C228.395 613.579 230.357 612.453 230.871 610.567C231.385 608.681 230.259 606.719 228.373 606.205L213.87 602.268C211.984 601.754 210.317 601.557 209.508 604.766C208.457 607.38 210.12 608.614 212.006 609.128Z" fill="#FFB27D"/>
<path d="M211.68 614.992L223.314 617.597C224.941 618.04 226.429 617.566 226.871 615.939C227.314 614.313 226.344 612.619 224.717 612.176L213.289 609.074C211.662 608.632 210.04 608.118 209.526 611.233C209.003 613.392 210.044 614.585 211.68 614.992Z" fill="#FFB27D"/>
<path d="M210.933 620.149L217.633 621.969C219.036 622.348 220.498 621.513 220.882 620.109C221.262 618.706 220.426 617.244 219.023 616.865L212.323 615.046C210.92 614.666 209.459 615.501 209.079 616.905C208.69 618.308 209.53 619.77 210.933 620.149Z" fill="#FFB27D"/>
<path d="M230.97 601.074C230.125 600.752 228.985 600.368 227.998 600.203C227.314 600.091 226.652 600.502 226.478 601.173L225.968 603.099C225.79 603.769 226.179 604.458 226.844 604.641C227.662 604.869 228.798 605.146 229.924 605.289C230.71 605.392 231.448 604.873 231.631 604.1L231.922 602.871C232.1 602.116 231.694 601.347 230.97 601.074Z" fill="#FFC197"/>
<path d="M230.42 608.319C229.584 608.002 228.453 607.617 227.479 607.457C226.804 607.345 226.152 607.751 225.973 608.417L225.468 610.321C225.294 610.983 225.678 611.662 226.335 611.845C227.144 612.069 228.27 612.346 229.379 612.489C230.156 612.587 230.885 612.078 231.068 611.314L231.358 610.098C231.537 609.351 231.135 608.592 230.42 608.319Z" fill="#FFC197"/>
<path d="M226.697 613.803C225.986 613.53 225.025 613.209 224.194 613.07C223.618 612.976 223.063 613.32 222.916 613.888L222.487 615.506C222.339 616.069 222.666 616.646 223.224 616.802C223.913 616.994 224.869 617.227 225.812 617.347C226.473 617.432 227.095 616.999 227.247 616.346L227.492 615.314C227.644 614.679 227.305 614.035 226.697 613.803Z" fill="#FFC197"/>
<path d="M220.753 618.456C220.136 618.219 219.305 617.942 218.585 617.821C218.084 617.736 217.606 618.04 217.477 618.527L217.106 619.93C216.976 620.418 217.262 620.918 217.745 621.057C218.339 621.222 219.171 621.428 219.988 621.531C220.565 621.607 221.101 621.227 221.235 620.663L221.45 619.765C221.575 619.215 221.28 618.657 220.753 618.456Z" fill="#FFC197"/>
<path d="M1166.77 585.53L1156.06 595.698H1153.98C1152.64 592.556 1149.29 584.81 1146.77 579.389C1145.64 576.94 1144.66 574.96 1144.12 574.093C1143.81 573.601 1143.48 573.212 1143.13 572.895V572.89C1141.11 571.076 1138.67 571.916 1138.67 571.916L1136.61 569.619L1127.48 559.438L1127.24 559.169C1127.24 559.169 1126.66 557.239 1126.11 554.646C1126.11 554.624 1126.1 554.597 1126.09 554.57C1125.76 553.006 1125.44 551.214 1125.26 549.457C1125.24 549.346 1125.23 549.23 1125.22 549.118C1125.01 546.812 1125.04 544.608 1125.64 543.147C1125.64 543.147 1125.64 543.142 1125.64 543.138C1125.85 542.633 1126.12 542.217 1126.47 541.913C1127.71 540.836 1130.15 539.576 1132.55 539.057C1134.07 538.731 1135.58 538.695 1136.77 539.187C1136.71 538.785 1136.64 538.391 1136.57 538.002C1136.22 536.045 1135.78 534.23 1136.05 532.84V532.836C1136.05 532.805 1136.06 532.773 1136.07 532.742C1136.56 530.436 1137.8 529.041 1138.91 528.228C1139.29 527.946 1139.75 527.911 1140.14 528.063H1140.15C1140.2 528.08 1140.24 528.098 1140.28 528.121C1140.67 528.317 1140.96 528.697 1141 529.189C1141.08 530.11 1141.23 531.285 1141.49 532.599C1141.5 532.635 1141.5 532.666 1141.51 532.697C1142.28 536.385 1144 541.091 1147.88 543.933C1155 549.158 1152.38 556.792 1153.32 560.354C1153.6 561.382 1154.79 563.876 1156.36 566.906C1160.22 574.388 1166.4 585.163 1166.77 585.53Z" fill="#EFA26F"/>
<path d="M1141.01 532.697L1141.5 532.702C1141.22 531.348 1141.48 528.407 1141.39 527.464C1141.35 526.972 1140.5 527.401 1140.27 527.83C1140.09 528.027 1139.99 528.572 1139.96 528.849C1139.86 529.645 1139.77 530.708 1139.85 531.593C1139.89 532.21 1140.39 532.693 1141.01 532.697Z" fill="#2B478B"/>
<path d="M1204.99 647.203H1161.95C1160.03 638.697 1146.61 580.886 1146.61 580.886C1146.61 580.394 1146.66 579.894 1146.77 579.389C1147.79 574.495 1153.74 569.091 1156.35 566.915C1157.1 566.289 1157.58 565.932 1157.58 565.932C1157.58 565.932 1196.24 631.967 1204.99 647.203Z" fill="#D86713"/>
<path d="M1141.85 586.231L1142.36 586.151C1144.02 585.892 1145.24 584.864 1145.06 583.863L1134.11 521.886L1130.34 522.467L1138.63 584.891C1138.76 585.887 1140.21 586.486 1141.85 586.231Z" fill="#EFCBAB"/>
<path d="M1091.71 530.002L1173.39 517.358C1175.69 517.001 1177.29 514.824 1176.93 512.523L1165.26 437.124C1164.9 434.818 1162.73 433.227 1160.43 433.584L1078.74 446.228C1076.44 446.586 1074.85 448.762 1075.2 451.064L1086.87 526.462C1087.23 528.764 1089.4 530.355 1091.71 530.002Z" fill="#E1473D"/>
<path d="M1105.89 523.745L1157.98 515.682C1166.07 514.431 1171.67 506.775 1170.42 498.681L1163.24 452.284C1161.99 444.186 1154.33 438.586 1146.24 439.837L1094.15 447.9C1086.05 449.151 1080.45 456.807 1081.7 464.906L1088.88 511.302C1090.14 519.396 1097.79 525.001 1105.89 523.745Z" fill="#FCECDB"/>
<path d="M1142.99 470.729C1142.41 465.438 1140.6 461.321 1137.55 458.38C1134.24 455.234 1129.99 453.951 1124.79 454.523C1119.86 455.064 1115.98 457.169 1113.13 460.83C1110.27 464.495 1109.12 468.785 1109.66 473.715C1110.14 478.006 1111.72 481.523 1114.43 484.272C1117.39 487.271 1120.95 488.54 1125.09 488.079C1127.65 487.798 1129.77 487.15 1131.46 486.131L1131.53 486.126C1129.77 489.827 1127.25 493.617 1123.99 497.483C1122.64 499.11 1121.77 500.2 1121.37 500.75C1120.73 501.698 1120.46 502.583 1120.55 503.401C1120.67 504.496 1121.14 505.412 1121.97 506.154C1122.78 506.896 1123.74 507.204 1124.84 507.083C1128.4 506.69 1133.02 501.331 1138.72 491.007C1140.49 487.811 1141.75 484.602 1142.51 481.38C1143.26 478.157 1143.42 474.609 1142.99 470.729ZM1132.49 477.496C1131.22 479.208 1129.38 480.196 1126.96 480.459C1124.5 480.732 1122.53 480.07 1121.06 478.479C1119.75 477.054 1118.95 475.065 1118.67 472.508C1118.4 470.046 1118.85 467.86 1120.03 465.952C1121.2 464.048 1123 462.957 1125.42 462.693C1127.92 462.416 1129.97 463.185 1131.56 464.995C1132.89 466.559 1133.69 468.665 1133.98 471.306C1134.25 473.724 1133.75 475.789 1132.49 477.496Z" fill="#FF2323"/>
<path d="M1125.82 543.169L1138.76 544.09C1139.86 544.201 1140.61 543.71 1140.72 542.615L1140.92 540.577C1141.03 539.482 1140.22 538.499 1139.13 538.387L1128.6 536.809C1127.24 536.621 1125.94 537.609 1125.56 538.744C1125.56 538.749 1123.68 543.044 1125.82 543.169Z" fill="#FFB27D"/>
<path d="M1124.81 549.417L1138.11 550.754C1139.84 550.928 1141.39 549.654 1141.56 547.929C1141.74 546.199 1140.47 544.644 1138.74 544.47L1125.44 543.133C1123.71 542.959 1122.23 543.026 1121.98 545.962C1121.44 548.403 1123.08 549.243 1124.81 549.417Z" fill="#FFB27D"/>
<path d="M1125.38 554.606L1135.96 555.192C1137.45 555.344 1138.69 554.709 1138.83 553.216C1138.98 551.723 1137.89 550.383 1136.39 550.231L1125.92 549.18C1124.43 549.033 1122.94 548.818 1122.94 551.621C1122.8 553.596 1123.89 554.486 1125.38 554.606Z" fill="#FFB27D"/>
<path d="M1125.48 559.241L1131.62 559.858C1132.91 559.987 1134.07 559.04 1134.19 557.753C1134.32 556.465 1133.38 555.308 1132.09 555.178L1125.95 554.561C1124.66 554.432 1123.5 555.379 1123.37 556.667C1123.24 557.949 1124.19 559.111 1125.48 559.241Z" fill="#FFB27D"/>
<path d="M1140.26 539.585C1139.47 539.424 1138.42 539.254 1137.53 539.254C1136.91 539.254 1136.39 539.714 1136.34 540.326L1136.17 542.087C1136.11 542.7 1136.55 543.245 1137.16 543.312C1137.91 543.392 1138.95 543.468 1139.96 543.433C1140.66 543.406 1141.23 542.847 1141.28 542.141L1141.35 541.019C1141.4 540.335 1140.94 539.723 1140.26 539.585Z" fill="#2B478B"/>
<path d="M1140.84 546.02C1140.06 545.864 1139.02 545.694 1138.14 545.694C1137.53 545.694 1137.01 546.15 1136.96 546.753L1136.79 548.497C1136.73 549.1 1137.17 549.645 1137.77 549.708C1138.52 549.788 1139.54 549.864 1140.54 549.828C1141.23 549.802 1141.8 549.247 1141.85 548.55L1141.92 547.442C1141.97 546.762 1141.51 546.155 1140.84 546.02Z" fill="#2B478B"/>
<path d="M1138.37 551.37C1137.71 551.236 1136.82 551.093 1136.07 551.093C1135.55 551.093 1135.12 551.478 1135.07 551.996L1134.93 553.48C1134.88 553.994 1135.25 554.454 1135.77 554.508C1136.4 554.575 1137.27 554.642 1138.12 554.611C1138.71 554.588 1139.19 554.119 1139.23 553.525L1139.29 552.582C1139.33 552.005 1138.94 551.487 1138.37 551.37Z" fill="#2B478B"/>
<path d="M1133.84 556.318C1133.27 556.202 1132.5 556.077 1131.85 556.077C1131.4 556.077 1131.02 556.412 1130.98 556.859L1130.86 558.146C1130.82 558.593 1131.14 558.991 1131.58 559.04C1132.13 559.098 1132.89 559.156 1133.62 559.129C1134.13 559.111 1134.55 558.7 1134.58 558.186L1134.64 557.368C1134.67 556.868 1134.33 556.416 1133.84 556.318Z" fill="#2B478B"/>
<path d="M355.294 515.481L351.446 534.342C351.446 534.342 347.526 535.129 347.392 539.544C347.254 543.965 350.315 567.809 350.315 567.809L331.919 563.509C332.129 562.709 331.785 535.446 330.668 531.455C329.56 527.464 322.686 521.546 326.628 512.433C328.697 507.664 327.839 502.341 326.565 498.372C326.516 498.216 326.467 498.064 326.418 497.921C325.922 496.451 325.381 495.186 324.92 494.225C324.885 494.153 324.858 494.082 324.84 494.01C324.71 493.572 324.786 493.134 325.014 492.781C325.296 492.334 325.81 492.044 326.404 492.102C327.942 492.267 329.939 492.911 331.723 494.868C333.032 496.29 333.658 498.949 334.699 501.519C336.979 498.529 343.272 497.76 346.235 498.314C351.303 499.244 355.294 515.481 355.294 515.481Z" fill="#EFA26F"/>
<path d="M327.781 496.884C327.977 497.38 327.647 497.948 326.999 498.198L326.565 498.368C326.516 498.212 326.467 498.06 326.418 497.917C325.922 496.446 325.381 495.181 324.92 494.22C324.885 494.149 324.858 494.077 324.84 494.006C325.153 493.943 325.622 493.997 325.863 494.14C326.123 494.229 326.449 494.605 326.587 494.806C326.999 495.387 327.513 496.174 327.781 496.884Z" fill="#FFC197"/>
<path d="M329.703 539.276C329.703 539.276 345.189 541.077 348.827 547.549C348.827 547.549 370.714 611.251 365.248 615.3C359.781 619.345 333.595 628.744 331.441 620.976C329.278 613.213 329.703 539.276 329.703 539.276Z" fill="#F99746"/>
<path d="M353.216 534.816L352.751 535.039C351.227 535.768 349.64 535.607 349.225 534.682L323.253 477.353L326.686 475.708L355.115 531.897C355.567 532.791 354.713 534.101 353.216 534.816Z" fill="#EFCBAB"/>
<path d="M362.816 460.092L288.28 495.811C286.18 496.817 283.632 495.923 282.627 493.823L249.656 425.017C248.65 422.911 249.544 420.368 251.649 419.363L326.181 383.644C328.281 382.638 330.829 383.532 331.834 385.632L364.805 454.438C365.815 456.539 364.917 459.087 362.816 460.092Z" fill="#E1473D"/>
<path d="M347.576 462.944L300.044 485.72C292.651 489.259 283.708 486.113 280.168 478.721L259.882 436.382C256.342 428.99 259.489 420.047 266.881 416.507L314.413 393.731C321.801 390.191 330.748 393.338 334.288 400.73L354.575 443.068C358.119 450.461 354.968 459.404 347.576 462.944Z" fill="#FCECDB"/>
<path d="M324.335 440.472C323.428 438.612 322.194 437.915 320.634 438.371C320.201 438.326 319.159 438.706 317.51 439.511L307.472 418.898C306.252 416.391 304.83 414.768 303.217 414.026C301.639 413.298 299.869 413.414 297.916 414.362C296.401 415.099 295.315 416.078 294.658 417.307C294.631 417.347 294.609 417.392 294.587 417.437C294.019 418.478 293.648 419.962 293.465 421.892L290.783 448.155C290.466 451.171 290.779 453.643 291.722 455.587C292.987 458.184 295.373 458.631 298.882 456.923L313.304 449.902L316.741 456.959C318.149 459.846 320.026 460.718 322.382 459.574C325.019 458.287 325.649 456.222 324.263 453.375L320.8 446.26C322.409 445.473 323.481 444.749 324.022 444.078C324.916 443.077 325.019 441.875 324.335 440.472ZM298.037 448.99C299.664 432.351 300.522 423.957 300.607 423.814L310.024 443.153L298.037 448.99Z" fill="#FF2323"/>
<path d="M347.678 499.083L347.567 499.164L335.54 507.41C334.771 507.968 334.002 508.071 333.354 507.633C333.162 507.499 332.979 507.325 332.813 507.092L331.459 505.233C331.294 505.009 331.182 504.768 331.115 504.513C330.874 503.637 331.177 502.654 331.955 502.091L341.269 494.582C342.489 493.617 344.308 493.845 345.328 494.73C345.319 494.725 349.421 497.706 347.678 499.083Z" fill="#FFB27D"/>
<path d="M353.667 500.848C354.199 502.073 353.708 503.155 352.858 504.008C352.626 504.241 352.371 504.451 352.103 504.647L340.358 513.211L339.969 513.492C339.066 514.149 337.949 514.319 336.943 514.042C336.188 513.837 335.499 513.39 335.003 512.71C334.847 512.496 334.722 512.268 334.614 512.031C334.445 511.638 334.351 511.226 334.333 510.802C334.27 509.649 334.775 508.482 335.776 507.749L347.562 499.155L347.674 499.074L347.911 498.9C349.488 497.751 350.972 496.969 352.872 499.678C353.252 500.084 353.506 500.473 353.667 500.848Z" fill="#FFB27D"/>
<path d="M355.611 506.507C356.228 507.932 355.714 509.099 354.619 509.917C354.584 509.948 354.543 509.975 354.503 510.002L352.313 511.45L344.572 516.581C343.759 517.175 342.869 517.443 342.083 517.273C341.551 517.157 341.064 516.844 340.666 516.299C340.527 516.111 340.416 515.919 340.331 515.714C340.125 515.235 340.045 514.721 340.098 514.216C340.13 513.868 340.219 513.524 340.366 513.206C340.581 512.75 340.907 512.335 341.341 512.017L350.901 505.05C351.553 504.576 352.197 504.084 352.872 504.004C352.872 504.004 352.872 503.999 352.876 504.004C353.6 503.914 354.356 504.308 355.182 505.72C355.352 505.993 355.5 506.252 355.611 506.507Z" fill="#FFB27D"/>
<path d="M357.9 511.365C358.378 512.473 358.047 513.814 357.033 514.552L351.428 518.637C350.744 519.137 349.895 519.253 349.135 519.03C348.59 518.878 348.094 518.547 347.736 518.056C347.62 517.895 347.522 517.725 347.446 517.551C347.298 517.211 347.231 516.858 347.231 516.5C347.231 515.687 347.607 514.873 348.317 514.359L352.313 511.445L352.331 511.432L353.922 510.27C354.141 510.109 354.373 509.988 354.619 509.903C354.619 509.903 354.619 509.903 354.624 509.903C355.687 509.541 356.921 509.895 357.618 510.846C357.73 511.021 357.824 511.191 357.9 511.365Z" fill="#FFB27D"/>
<path d="M336.648 505.747C335.964 506.247 335.003 506.913 334.011 507.45C333.801 507.561 333.573 507.62 333.354 507.629C333.162 507.494 332.979 507.32 332.813 507.088L331.459 505.228C331.294 505.005 331.182 504.764 331.115 504.509C331.195 504.281 331.338 504.062 331.535 503.892C332.21 503.289 333.135 502.524 334.002 502.019C334.601 501.666 335.361 501.818 335.768 502.381L336.925 503.999C337.323 504.554 337.207 505.336 336.648 505.747Z" fill="#FFC197"/>
<path d="M339.692 512.295C339.017 512.795 338.065 513.452 337.077 513.979C337.032 514.002 336.988 514.024 336.943 514.042C336.188 513.836 335.499 513.39 335.003 512.71C334.847 512.496 334.722 512.268 334.614 512.031C334.445 511.638 334.351 511.226 334.333 510.802C334.409 510.672 334.503 510.556 334.619 510.453C335.285 509.854 336.206 509.103 337.059 508.598C337.649 508.25 338.404 508.402 338.807 508.956L339.955 510.551C340.358 511.115 340.241 511.888 339.692 512.295Z" fill="#FFC197"/>
<path d="M344.367 515.807C343.79 516.232 342.981 516.791 342.145 517.238C342.123 517.251 342.101 517.26 342.078 517.273C341.546 517.157 341.059 516.844 340.661 516.299C340.523 516.111 340.411 515.919 340.326 515.714C340.121 515.235 340.04 514.721 340.094 514.216C340.661 513.711 341.426 513.086 342.136 512.666C342.637 512.371 343.281 512.496 343.62 512.969L344.595 514.328C344.934 514.806 344.831 515.463 344.367 515.807Z" fill="#FFC197"/>
<path d="M350.999 517.828C350.516 518.185 349.842 518.654 349.131 519.034C348.586 518.882 348.09 518.552 347.732 518.06C347.616 517.899 347.517 517.729 347.441 517.555C347.294 517.215 347.227 516.862 347.227 516.505C347.236 516.491 347.245 516.478 347.258 516.469C347.754 516.031 348.425 515.468 349.055 515.101C349.493 514.847 350.052 514.958 350.347 515.365L351.191 516.545C351.491 516.956 351.406 517.528 350.999 517.828Z" fill="#FFC197"/>
<path d="M331.253 536.309C331.253 536.309 327.419 541.051 326.856 547.393C326.856 547.393 335.87 550.4 339.929 550.262L343.388 543.053L345.739 550.101C345.739 550.101 350.432 549.909 352.103 548.671C352.103 548.671 349.859 541.033 347.491 538.57C347.491 538.575 335.897 540.402 331.253 536.309Z" fill="#FFBF8F"/>
<path d="M337.359 547.884C337.162 547.433 337.372 546.905 337.823 546.709C338.275 546.512 338.802 546.722 338.999 547.174C339.196 547.625 338.985 548.152 338.534 548.349C338.078 548.546 337.551 548.34 337.359 547.884Z" fill="#F99746"/>
<path d="M379.867 646.926L339.312 647.198C335.021 633.736 331.437 620.976 331.437 620.976L365.949 609.079C365.936 609.41 365.976 609.83 366.061 610.335C366.061 610.339 366.061 610.344 366.061 610.348C366.798 614.742 375.822 637.267 379.867 646.926Z" fill="#F99746"/>
<path d="M1283.19 650.501H-2.43905C-3.8469 650.501 -5 649.348 -5 647.94C-5 646.532 -3.8469 645.379 -2.43905 645.379H1283.19C1284.6 645.379 1285.76 646.532 1285.76 647.94C1285.76 649.348 1284.6 650.501 1283.19 650.501Z" fill="#2E3552"/>
</g>
</svg>
