<svg width="284" height="188" viewBox="0 0 284 188" fill="none" xmlns="http://www.w3.org/2000/svg">
<path d="M272.839 135.396C274.524 132.6 275.776 129.615 276.601 126.542L283.258 125.269L283.326 117.907L283.393 110.545L276.762 109.147C275.995 106.058 274.801 103.047 273.168 100.224L276.971 94.6208L271.816 89.3667L266.662 84.1126L260.99 87.8066C258.194 86.1213 255.21 84.8691 252.137 84.0447L250.864 77.3871L243.502 77.3193L236.141 77.2515L234.742 83.883C231.654 84.65 228.643 85.8448 225.821 87.4779L220.218 83.6743L214.964 88.8293L209.71 93.9842L213.404 99.6557C211.719 102.452 210.466 105.437 209.642 108.51L202.985 109.783L202.917 117.145L202.849 124.507L209.48 125.905C210.247 128.994 211.442 132.005 213.075 134.827L209.272 140.431L214.426 145.685L219.581 150.939L225.252 147.245C228.049 148.931 231.033 150.183 234.106 151.007L235.379 157.665L242.74 157.733L250.102 157.8L251.5 151.169C254.589 150.402 257.599 149.207 260.422 147.574L266.025 151.378L271.279 146.223L276.533 141.068L272.839 135.396ZM230.235 130.173C223.254 123.057 223.358 111.63 230.475 104.649C237.591 97.6678 249.017 97.7722 255.998 104.889C262.978 112.006 262.874 123.432 255.758 130.413C248.646 137.395 237.215 137.285 230.235 130.173Z" fill="url(#paint0_linear)"/>
<path d="M98.0239 75.9575C99.0621 73.7505 99.7612 71.4391 100.142 69.0912L104.989 67.6355L104.478 62.1622L103.966 56.689L98.9369 56.1568C98.1334 53.9185 97.0117 51.7792 95.5874 49.8018L97.9821 45.3512L93.7509 41.8398L89.5197 38.3283L85.5859 41.5058C83.379 40.4675 81.0678 39.7684 78.72 39.3875L77.2644 34.5404L71.7915 35.0517L66.3186 35.563L65.7864 40.598C63.5482 41.4015 61.4091 42.5233 59.4318 43.9477L54.9814 41.5528L51.4702 45.7843L47.959 50.0157L51.1363 53.9498C50.0981 56.1568 49.399 58.4682 49.0181 60.8161L44.1713 62.2718L44.6826 67.745L45.1939 73.2183L50.2233 73.7505C51.0268 75.9888 52.1485 78.128 53.5728 80.1055L51.1781 84.5561L55.4093 88.0675L59.6405 91.5789L63.5743 88.4014C65.7812 89.4397 68.0924 90.1389 70.4402 90.5198L71.8958 95.3669L77.3687 94.8556L82.8416 94.3443L83.3738 89.3093C85.612 88.5058 87.7511 87.384 89.7284 85.9596L94.1787 88.3545L97.69 84.123L101.201 79.8916L98.0239 75.9575ZM65.9794 75.3262C60.2509 70.573 59.4578 62.0787 64.2108 56.3446C68.9637 50.6157 77.4574 49.8227 83.1912 54.5759C88.9197 59.3291 89.7128 67.8233 84.9651 73.5574C80.2069 79.2863 71.708 80.0794 65.9794 75.3262Z" fill="url(#paint1_linear)"/>
<path d="M260.443 186.659H259.984V153.861C259.984 146.562 254.046 140.624 246.747 140.624H213.002C205.447 140.624 199.307 134.478 199.307 126.928V65.6162C199.307 58.3168 193.369 52.3792 186.071 52.3792H100.022V51.9201H186.071C193.625 51.9201 199.766 58.0664 199.766 65.6162V126.928C199.766 134.227 205.703 140.165 213.002 140.165H246.747C254.302 140.165 260.443 146.311 260.443 153.861V186.659V186.659Z" fill="#FF2323"/>
<path d="M122.081 31.1437C122.081 31.1437 127.288 51.8836 114.787 57.5499C102.281 63.2214 104.676 52.8384 104.676 52.8384C104.676 52.8384 99.5474 51.414 113.504 43.4989C120.083 39.7736 122.081 31.1437 122.081 31.1437Z" fill="#BBD070"/>
<path d="M154.824 32.9542C154.824 32.9542 157.386 51.0331 133.726 58.8438C110.06 66.6598 106.69 76.568 106.69 76.568C106.69 76.568 105.98 36.5022 154.824 32.9542Z" fill="#97A43C"/>
<path d="M106.585 69.2059C99.5682 66.5293 116.248 52.1653 129.067 52.5566C141.885 52.9427 150.572 57.6907 159.155 55.682C159.155 55.682 141.134 82.3959 106.585 69.2059Z" fill="#48753A"/>
<path d="M130.157 81.2064C130.559 75.754 130.841 70.6564 131.002 65.9032C129.688 65.2041 128.107 64.3901 126.839 63.7901C122.921 61.9274 117.469 59.4125 113.963 57.8055C111.912 56.8612 109.904 56.1777 109.904 56.1777C109.904 56.1777 95.911 54.8367 94.7737 54.9098C94.4137 54.9306 92.6659 55.5411 90.3703 56.4124C85.4087 58.296 75.8402 62.1309 74.3168 63.2214C72.0838 64.8232 64.0909 104.007 63.877 106.668C63.6683 109.251 74.7498 112.788 85.0069 115.502C85.0017 119.472 84.9183 125.039 84.8296 130.121C84.8139 130.987 84.7983 131.843 84.7826 132.667H129.672C129.609 131.796 129.557 130.935 129.515 130.121C129.51 130.012 129.505 129.907 129.5 129.798C129.328 126.359 128.66 120.192 128.832 114.192C128.832 114.192 128.722 107.863 129.354 105.139C129.432 93.1129 130.157 81.2064 130.157 81.2064ZM73.2368 104.247C73.3098 99.1444 80.1027 89.6589 80.1027 89.6589C80.1027 89.6589 80.4158 89.5232 80.421 89.5388C80.4262 89.5441 80.7705 89.4919 80.7705 89.4971C80.7757 89.4971 81.8244 88.4953 81.8349 88.4953C82.0853 89.4032 84.3339 102.218 84.887 109.679C78.5062 108.421 73.2003 106.679 73.2368 104.247Z" fill="#DBD8E3"/>
<path d="M130.992 130.116C130.695 127.992 130.418 125.869 130.168 123.787C130.168 123.777 130.162 123.766 130.162 123.756C130.079 123.062 130.001 122.378 129.922 121.7C129.917 121.669 129.917 121.632 129.912 121.59C129.583 118.726 129.312 115.982 129.114 113.461C128.968 111.536 129.098 109.653 129.364 107.811C130.147 94.9495 130.533 81.3838 130.533 81.3838C130.945 75.8323 131.18 70.646 131.336 65.8093C131.336 65.8093 113.764 57.5029 112.173 57.0281C112.173 57.0281 115.507 64.8545 118.006 82.349C118.966 89.0693 120.745 100.376 122.039 111.922C122.738 118.152 124.048 124.497 125.044 130.111C125.196 130.977 125.342 131.827 125.477 132.657H131.357C131.227 131.817 131.107 130.966 130.992 130.116Z" fill="#FF2323"/>
<path d="M101.733 109.454C102.427 102.948 103.048 96.4574 102.751 92.9042C100.325 64.3118 93.4693 56.7411 92.4728 55.635C91.7059 55.9272 88.779 57.0281 87.9234 57.3673C83.2331 59.2143 73.675 62.6057 72.3864 63.5292C70.1534 65.131 61.3466 106.209 61.0805 108.865C60.9032 110.66 72.3968 114.411 84.1252 117.761C84.0156 120.975 84.3235 125.509 83.2539 130.246C83.0661 131.086 82.7896 131.619 82.7479 132.73L99.0935 132.667C99.1927 131.822 99.297 130.977 99.4014 130.121C99.7144 127.565 100.038 124.951 100.361 122.17C105.266 123.437 108.594 124.257 108.594 124.257C108.594 124.257 113.201 116.472 114.537 113.321C114.761 112.773 108.834 111.348 101.733 109.454ZM80.5983 99.614C80.4418 93.7599 80.4731 89.6745 80.4731 89.6745C81.0522 91.6781 81.8557 97.4122 82.56 103.11C80.181 101.91 80.6244 100.793 80.5983 99.614Z" fill="#FF2323"/>
<path d="M94.0484 55.3533C94.0484 55.3533 95.8275 51.9879 95.3371 42.4398C95.2014 39.7945 109.231 48.7113 109.231 48.7113C109.231 48.7113 109.184 49.6244 109.152 50.8557C109.137 51.367 109.126 51.9305 109.126 52.5045C109.126 52.6662 109.126 52.8228 109.126 52.9845C109.126 53.2454 109.132 53.5063 109.137 53.7619C109.142 54.0802 109.158 54.3985 109.173 54.7011C109.189 55.0454 109.215 55.3689 109.246 55.6663C109.304 56.2455 109.643 57.2629 109.768 57.5394C110.405 59.0265 99.3022 59.1152 94.0484 55.3533Z" fill="#EEA987"/>
<path d="M105.808 61.4265L108.396 64.9014C108.396 64.9014 106.883 66.9311 104.191 65.4336L105.808 61.4265Z" fill="#E8734D"/>
<path d="M107.702 65.0423C107.702 65.0423 117.177 88.1823 115.152 117.573L112.163 122.994L108.792 118.376C108.792 118.376 108.25 79.3385 105.558 64.9484L107.702 65.0423Z" fill="#E8734D"/>
<path d="M108.579 58.1916L105.808 61.4318C105.808 61.4318 101.363 60.5709 100.059 58.249C98.7545 55.9272 108.579 58.1916 108.579 58.1916Z" fill="#EEA987"/>
<path d="M109.215 55.3533C109.215 55.3533 108.892 57.8212 105.813 61.4265L109.179 65.945L110.999 56.569L109.215 55.3533Z" fill="#C4C1CC"/>
<path d="M94.8937 52.3845C94.8937 52.3845 101.316 59.6525 105.813 61.4265L103.726 66.5971L93.4746 55.2854L94.8937 52.3845Z" fill="#C4C1CC"/>
<path d="M160.939 118.136C160.939 118.136 152.409 109.867 146.816 108.489C144.228 107.853 140.826 104.284 137.587 100.089C136.522 98.7061 135.474 97.2556 134.477 95.8208C134.477 95.8156 134.477 95.8156 134.477 95.8156C130.507 90.0815 127.397 84.5874 127.397 84.5874C127.397 84.5874 115.658 70.8338 125.081 64.7032C125.081 64.7032 129.119 64.6145 131.331 65.8197C133.606 67.0563 138.463 77.1888 139.287 78.9837C140.112 80.7733 149.028 97.4435 149.628 97.8192C150.228 98.1948 151.219 99.5618 154.788 101.487C159.155 103.84 166.021 110.727 166.021 110.727L160.939 118.136Z" fill="#FF2323"/>
<path d="M120.004 127.705C120.004 127.705 118.815 127.659 118.304 127.382C118.304 127.382 117.411 126.808 116.754 126.443C116.545 126.328 116.357 126.229 116.232 126.182C115.705 125.973 114.49 125.671 113.368 124.815C112.246 123.959 108.589 120.542 108.589 120.542L110.952 116.91L112.043 113.315C112.043 113.315 120.568 114.161 121.705 114.839C121.815 114.907 121.924 114.975 122.018 115.048C122.926 115.715 123.323 116.592 123.756 116.994C123.912 117.145 125.399 118.731 125.316 119.378C125.201 120.27 124.757 120.85 124.204 121.121C124.204 121.121 123.902 122.864 123.004 123.641C123.004 123.641 122.78 125.258 121.382 125.905C121.387 125.9 120.975 127.512 120.004 127.705Z" fill="#EFAA88"/>
<path d="M106.434 17.8076C106.434 17.8076 121.841 14.0927 118.596 33.6012C115.351 53.1097 111.657 54.6906 102.271 50.8035C92.885 46.9164 93.5371 34.436 92.9789 28.3314C92.4154 22.2269 101.504 18.0945 106.434 17.8076Z" fill="#EEA886"/>
<path d="M98.337 31.3159C98.1075 29.6045 94.7058 29.0254 94.471 31.6029C94.2363 34.1803 96.1145 38.6675 97.3979 38.2083C98.6814 37.744 98.6553 33.6795 98.337 31.3159Z" fill="#EEA886"/>
<path d="M93.8763 38.3022C93.8763 38.3022 94.1841 32.1663 96.4223 31.942C98.6605 31.7176 99.0414 34.1803 99.0414 34.1803L101.306 34.5717C101.306 34.5717 100.513 29.208 102.735 28.2375C104.958 27.267 117.26 30.982 119.034 29.3802C120.803 27.7784 119.801 16.8893 116.535 15.4492C113.269 14.004 104.259 10.7951 97.7579 15.3344C97.7579 15.3344 92.6294 14.8283 91.9302 18.9659C91.2259 23.1139 92.4415 35.2499 93.8763 38.3022Z" fill="#16202E"/>
<path d="M114.954 113.31L108.594 124.246C108.594 124.246 91.7424 119.905 87.8138 118.794L96.8032 108.098C96.7979 108.098 110.05 111.129 114.954 113.31Z" fill="#FF2323"/>
<path d="M109.173 54.7011C100.909 53.861 97.7058 47.4956 97.7058 47.4956C102.902 52.6454 109.126 52.5045 109.126 52.5045C109.126 52.6662 109.126 52.8227 109.126 52.9845C109.126 53.2454 109.132 53.5063 109.137 53.7619C109.142 54.0854 109.158 54.3985 109.173 54.7011Z" fill="#A77860"/>
<path d="M223.28 151.649C222.826 151.049 222.111 150.658 221.303 150.647C220.186 150.632 219.226 151.352 218.887 152.353C218.804 152.599 218.757 152.854 218.757 153.126C218.751 153.439 218.809 153.741 218.908 154.023C219.07 154.472 219.357 154.858 219.727 155.145C220.098 155.432 220.546 155.614 221.037 155.661C221.099 155.666 221.167 155.672 221.235 155.672C221.277 155.672 221.318 155.672 221.36 155.672C221.376 155.672 221.391 155.672 221.402 155.672C221.652 155.656 221.897 155.609 222.122 155.526C223.077 155.181 223.765 154.268 223.776 153.193C223.791 152.614 223.604 152.077 223.28 151.649ZM221.913 154.931C221.741 154.993 221.558 155.03 221.371 155.04C221.329 155.04 221.287 155.04 221.245 155.04C221.068 155.04 220.896 155.009 220.729 154.962C220.504 154.894 220.296 154.79 220.113 154.649C220.045 154.597 219.983 154.539 219.925 154.482C219.586 154.138 219.378 153.658 219.383 153.136C219.383 153 219.404 152.865 219.43 152.739C219.445 152.677 219.461 152.614 219.482 152.557C219.738 151.805 220.452 151.268 221.292 151.278C221.892 151.284 222.43 151.576 222.769 152.019C223.014 152.343 223.16 152.75 223.155 153.188C223.144 153.992 222.628 154.67 221.913 154.931Z" fill="#4DA8F2"/>
<path d="M126.912 104.331C136.491 114.192 149.143 126.605 149.143 126.605L154.089 117.213C154.089 117.213 142.851 104.038 135.228 95.2416C132.896 96.3895 128.608 99.1235 126.912 104.331Z" fill="#EEA886"/>
<path d="M120.996 117.589C120.996 117.589 123.573 118.836 124.246 119.389C124.919 119.942 127.648 121.987 128.31 122.467C128.973 122.947 127.314 124.314 122.435 122.201C117.557 120.088 120.996 117.589 120.996 117.589Z" fill="#EEA886"/>
<path d="M121.22 89.3667L116.728 131.154H175.876L180.373 89.3667H121.22Z" fill="#FFC955"/>
<path d="M179.252 129.224H119.639L124.183 86.977H183.796L179.252 129.224ZM120.15 128.759H178.839L183.284 87.4362H124.595L120.15 128.759Z" fill="#FFC955"/>
<path d="M112.019 131.152H121.901V127.39H112.019V131.152Z" fill="#FFC955"/>
<path d="M177.733 131.066H16.9789V133.612H177.733V131.066Z" fill="#FF2323"/>
<path d="M19.4519 131.066H16.9789V133.612H19.4519V131.066Z" fill="#FF2323"/>
<path d="M21.9249 131.066H19.4519V133.612H21.9249V131.066Z" fill="#FF2323"/>
<path d="M24.3978 131.066H21.9249V133.612H24.3978V131.066Z" fill="#FF2323"/>
<path d="M26.8708 131.066H24.3979V133.612H26.8708V131.066Z" fill="#FF2323"/>
<path d="M29.3438 131.066H26.8708V133.612H29.3438V131.066Z" fill="#FF2323"/>
<path d="M31.8168 131.066H29.3439V133.612H31.8168V131.066Z" fill="#FF2323"/>
<path d="M34.2897 131.066H31.8167V133.612H34.2897V131.066Z" fill="#FF2323"/>
<path d="M36.7627 131.066H34.2897V133.612H36.7627V131.066Z" fill="#FF2323"/>
<path d="M39.2357 131.066H36.7627V133.612H39.2357V131.066Z" fill="#FF2323"/>
<path d="M41.7087 131.066H39.2357V133.612H41.7087V131.066Z" fill="#FF2323"/>
<path d="M44.1817 131.066H41.7087V133.612H44.1817V131.066Z" fill="#FF2323"/>
<path d="M46.6547 131.066H44.1817V133.612H46.6547V131.066Z" fill="#FF2323"/>
<path d="M49.1277 131.066H46.6547V133.612H49.1277V131.066Z" fill="#FF2323"/>
<path d="M51.6006 131.066H49.1276V133.612H51.6006V131.066Z" fill="#FF2323"/>
<path d="M54.0737 131.066H51.6007V133.612H54.0737V131.066Z" fill="#FF2323"/>
<path d="M56.5466 131.066H54.0737V133.612H56.5466V131.066Z" fill="#FF2323"/>
<path d="M59.0196 131.066H56.5466V133.612H59.0196V131.066Z" fill="#FF2323"/>
<path d="M61.4926 131.066H59.0196V133.612H61.4926V131.066Z" fill="#FF2323"/>
<path d="M63.9656 131.066H61.4927V133.612H63.9656V131.066Z" fill="#FF2323"/>
<path d="M66.4386 131.066H63.9656V133.612H66.4386V131.066Z" fill="#FF2323"/>
<path d="M68.9115 131.066H66.4385V133.612H68.9115V131.066Z" fill="#FF2323"/>
<path d="M71.3845 131.066H68.9115V133.612H71.3845V131.066Z" fill="#FF2323"/>
<path d="M73.8627 131.066H71.3897V133.612H73.8627V131.066Z" fill="#FF2323"/>
<path d="M76.3357 131.066H73.8627V133.612H76.3357V131.066Z" fill="#FF2323"/>
<path d="M78.8087 131.066H76.3357V133.612H78.8087V131.066Z" fill="#FF2323"/>
<path d="M81.2816 131.066H78.8087V133.612H81.2816V131.066Z" fill="#FF2323"/>
<path d="M83.7546 131.066H81.2817V133.612H83.7546V131.066Z" fill="#FF2323"/>
<path d="M86.2276 131.066H83.7547V133.612H86.2276V131.066Z" fill="#FF2323"/>
<path d="M88.7006 131.066H86.2277V133.612H88.7006V131.066Z" fill="#FF2323"/>
<path d="M91.1736 131.066H88.7006V133.612H91.1736V131.066Z" fill="#FF2323"/>
<path d="M93.6466 131.066H91.1736V133.612H93.6466V131.066Z" fill="#FF2323"/>
<path d="M96.1196 131.066H93.6466V133.612H96.1196V131.066Z" fill="#FF2323"/>
<path d="M98.5925 131.066H96.1196V133.612H98.5925V131.066Z" fill="#FF2323"/>
<path d="M101.066 131.066H98.5926V133.612H101.066V131.066Z" fill="#FF2323"/>
<path d="M103.539 131.066H101.066V133.612H103.539V131.066Z" fill="#FF2323"/>
<path d="M106.011 131.066H103.538V133.612H106.011V131.066Z" fill="#FF2323"/>
<path d="M108.484 131.066H106.011V133.612H108.484V131.066Z" fill="#FF2323"/>
<path d="M110.957 131.066H108.484V133.612H110.957V131.066Z" fill="#FF2323"/>
<path d="M113.43 131.066H110.957V133.612H113.43V131.066Z" fill="#FF2323"/>
<path d="M115.903 131.066H113.43V133.612H115.903V131.066Z" fill="#FF2323"/>
<path d="M118.376 131.066H115.903V133.612H118.376V131.066Z" fill="#FF2323"/>
<path d="M120.849 131.066H118.376V133.612H120.849V131.066Z" fill="#FF2323"/>
<path d="M123.322 131.066H120.849V133.612H123.322V131.066Z" fill="#FF2323"/>
<path d="M125.795 131.066H123.322V133.612H125.795V131.066Z" fill="#FF2323"/>
<path d="M128.268 131.066H125.795V133.612H128.268V131.066Z" fill="#FF2323"/>
<path d="M130.741 131.066H128.268V133.612H130.741V131.066Z" fill="#FF2323"/>
<path d="M133.214 131.066H130.741V133.612H133.214V131.066Z" fill="#FF2323"/>
<path d="M135.687 131.066H133.214V133.612H135.687V131.066Z" fill="#FF2323"/>
<path d="M138.16 131.066H135.687V133.612H138.16V131.066Z" fill="#FF2323"/>
<path d="M140.633 131.066H138.16V133.612H140.633V131.066Z" fill="#FF2323"/>
<path d="M143.106 131.066H140.633V133.612H143.106V131.066Z" fill="#FF2323"/>
<path d="M145.579 131.066H143.106V133.612H145.579V131.066Z" fill="#FF2323"/>
<path d="M148.052 131.066H145.579V133.612H148.052V131.066Z" fill="#FF2323"/>
<path d="M150.53 131.066H148.057V133.612H150.53V131.066Z" fill="#FF2323"/>
<path d="M153.003 131.066H150.53V133.612H153.003V131.066Z" fill="#FF2323"/>
<path d="M155.476 131.066H153.003V133.612H155.476V131.066Z" fill="#FF2323"/>
<path d="M157.949 131.066H155.476V133.612H157.949V131.066Z" fill="#FF2323"/>
<path d="M160.422 131.066H157.949V133.612H160.422V131.066Z" fill="#FF2323"/>
<path d="M162.895 131.066H160.422V133.612H162.895V131.066Z" fill="#FF2323"/>
<path d="M165.368 131.066H162.895V133.612H165.368V131.066Z" fill="#FF2323"/>
<path d="M167.841 131.066H165.368V133.612H167.841V131.066Z" fill="#FF2323"/>
<path d="M170.314 131.066H167.841V133.612H170.314V131.066Z" fill="#FF2323"/>
<path d="M172.787 131.066H170.314V133.612H172.787V131.066Z" fill="#FF2323"/>
<path d="M175.26 131.066H172.787V133.612H175.26V131.066Z" fill="#FF2323"/>
<path d="M177.733 131.066H175.26V133.612H177.733V131.066Z" fill="#FF2323"/>
<path d="M275.969 185.386H136.689V187.932H275.969V185.386Z" fill="#FF2323"/>
<path d="M145.266 109.59C144.791 111.917 145.877 114.103 147.692 114.474C149.508 114.844 151.36 113.258 151.84 110.931C152.315 108.604 151.23 106.418 149.414 106.047C147.593 105.677 145.741 107.263 145.266 109.59Z" fill="#CFA345"/>
<path d="M258.074 93.0242C258.074 93.0242 259.441 95.3355 260.015 95.7164C260.797 96.2277 260.307 96.7495 259.937 96.7495C259.566 96.7495 257.667 96.8851 257.25 96.4103C256.832 95.9356 256.624 94.5164 256.237 94.1407C255.846 93.7703 255.45 92.2937 256.425 91.9337C257.291 91.6154 258.074 93.0242 258.074 93.0242Z" fill="#6069A8"/>
<path d="M257.484 92.0068C257.484 92.0068 259.05 94.7147 259.316 95.1165C259.587 95.5182 258.81 95.5182 258.33 95.3252C257.85 95.1373 256.639 93.1912 256.462 92.8364C256.253 92.4137 256.425 91.9285 256.425 91.9285L257.484 92.0068Z" fill="#202338"/>
<path d="M255.904 93.4677L256.264 96.2435L256.451 96.2539L256.394 94.2556L255.904 93.4677Z" fill="#6069A8"/>
<path d="M244.546 93.0242C244.546 93.0242 245.913 95.3356 246.486 95.7164C247.269 96.2278 246.779 96.7495 246.408 96.7495C246.038 96.7495 244.139 96.8852 243.721 96.4104C243.304 95.9356 243.095 94.5164 242.709 94.1408C242.318 93.7703 241.906 92.252 242.897 91.9337C243.768 91.652 244.546 93.0242 244.546 93.0242Z" fill="#6069A8"/>
<path d="M244.034 92.012C244.034 92.012 245.516 94.7147 245.782 95.1165C246.053 95.5182 245.276 95.5182 244.796 95.3252C244.316 95.1373 243.106 93.1912 242.928 92.8364C242.72 92.4137 242.892 91.9285 242.892 91.9285L244.034 92.012Z" fill="#202338"/>
<path d="M242.37 93.4677L242.73 96.2435L242.923 96.2539L242.866 94.2556L242.37 93.4677Z" fill="#6069A8"/>
<path d="M238.494 71.9765L250.843 77.601C250.843 77.601 252.22 78.0497 252.377 79.5785C252.857 84.3578 256.431 91.9337 256.431 91.9337C257.578 92.492 257.49 92.0068 257.49 92.0068C256.77 89.6902 255.888 80.1316 255.575 76.2862C255.507 75.4723 255.465 74.914 255.46 74.7366C255.455 74.6166 255.319 74.4548 255.09 74.2722C253.394 72.9 246.424 70.0512 246.424 70.0512C241.186 69.9208 238.494 71.9765 238.494 71.9765Z" fill="#202338"/>
<path d="M236.167 74.3922C236.548 77.7314 241.311 77.3453 241.311 77.3453H247.086C247.086 77.3453 245.568 80.7211 244.984 83.5647C244.363 86.5857 242.897 91.9337 242.897 91.9337C242.897 91.9337 242.991 92.1163 244.04 92.012C244.04 92.012 248.573 82.9803 250.305 80.7055C250.676 80.215 251.751 77.5645 251.933 75.9836C251.996 75.4514 251.959 75.0392 251.761 74.8722C251.563 74.7053 251.098 74.387 250.488 74.0009C248.678 72.8582 245.537 71.1051 243.789 70.7086C241.447 70.1816 237.737 69.1955 237.737 69.1955C237.737 69.1955 235.781 71.0529 236.167 74.3922Z" fill="#202338"/>
<path d="M240.095 48.6852C240.095 48.6852 239.229 47.0417 239.652 45.299C240.074 43.5511 241.697 41.8084 244.066 42.6119C246.439 43.4102 248.359 45.2573 246.935 47.386C245.511 49.52 248.224 50.4801 247.53 51.4975C246.836 52.5097 247.102 53.5741 247.394 53.8089C247.686 54.0437 248.631 54.8889 248.526 55.8803C248.422 56.8768 243.92 52.9793 243.92 52.9793C243.92 52.9793 241.473 48.0434 240.095 48.6852Z" fill="#464240"/>
<path d="M247.332 69.6547C247.332 69.6547 246.972 71.3921 237.753 69.2007C237.753 69.2007 240.841 68.1729 247.332 69.6547Z" fill="#EB4747"/>
<path d="M237.648 69.6859C237.507 69.9572 237.361 70.2338 237.221 70.5051C240.591 70.6042 243.961 70.7034 247.332 70.7973C246.799 69.0129 246.972 66.5919 247.065 64.7605C247.18 62.517 248.417 60.9621 248.286 58.6925C248.954 58.8021 249.069 58.8229 249.737 58.9221C248.714 56.0107 248.365 54.5706 245.192 53.4488C244.159 53.0836 243.481 53.0106 242.365 53.1045C238.692 53.4071 237.581 53.4488 235.775 56.7829C238.598 57.2316 238.134 58.249 238.994 61.0561C239.412 62.4283 239.85 63.957 239.626 65.4023C239.396 66.8267 237.648 68.3868 237.648 69.6859Z" fill="#5F8CC9"/>
<path d="M243.513 54.1532C242.01 53.8715 242.328 53.0315 242.328 53.0315C242.328 53.0315 242.396 52.5567 242.427 51.9619C242.433 51.8105 242.438 51.6488 242.438 51.487C242.438 51.2366 242.427 50.9862 242.396 50.7462C242.271 49.7392 245.125 50.3392 245.125 50.3392C245.125 50.3392 244.958 52.3845 245.354 52.9949C245.746 53.6106 245.015 54.4402 243.513 54.1532Z" fill="#EEA886"/>
<path d="M240.643 53.0315C240.643 53.0315 243.674 56.5325 244.796 57.3464C244.796 57.3464 246.085 56.1829 245.292 53.1097C245.292 53.1045 243.826 52.374 240.643 53.0315Z" fill="#EEA886"/>
<path d="M240.721 44.5998C240.721 44.5998 239.146 47.6365 240.711 50.5114C242.276 53.3863 245.344 49.2591 245.542 48.7739C245.74 48.2887 246.794 45.5494 244.697 44.7198C242.605 43.885 241.17 43.7755 240.721 44.5998Z" fill="#EEA886"/>
<path d="M241.248 45.6746C241.248 45.6746 240.163 47.099 240.038 48.153C240.038 48.153 239.605 46.1651 240.826 44.2502C242.047 42.3406 245.151 44.1615 245.568 44.9233C245.986 45.6851 247.201 46.3581 245.156 49.6452C245.151 49.6452 241.473 47.0886 241.248 45.6746Z" fill="#464240"/>
<path d="M243.763 50.814C243.763 50.814 243.492 51.414 242.422 51.9671C242.427 51.8158 242.433 51.654 242.433 51.4923C242.433 51.4871 243.158 51.4036 243.763 50.814Z" fill="#A77860"/>
<path d="M227.845 66.9572C227.845 66.9572 227.094 67.2911 226.739 67.1398C226.384 66.9885 225.837 66.9572 225.659 66.9572C225.43 66.9572 224.704 66.6963 224.715 66.9833C224.725 67.265 225.894 67.4633 226.129 67.552C226.369 67.6407 225.414 68.1624 225.325 68.3972C225.237 68.632 226.311 70.1555 226.916 69.7225C227.522 69.2894 227.85 68.4181 227.976 68.3659C228.101 68.3085 228.429 68.0685 228.429 68.0685L227.845 66.9572Z" fill="#EEA886"/>
<path d="M225.445 68.2563C225.445 68.2563 223.687 69.712 223.661 69.9103C223.635 70.1086 223.723 70.1973 223.896 70.0721C224.068 69.9416 225.638 68.7155 225.638 68.7155C225.638 68.7155 223.88 70.7921 223.817 70.9486C223.781 71.0373 223.953 71.2251 224.052 71.1677C224.151 71.1104 226.024 69.1485 226.024 69.1485C226.024 69.1485 224.386 71.0947 224.376 71.2356C224.37 71.3608 224.563 71.5017 224.699 71.366C224.83 71.2304 226.463 69.5138 226.463 69.5138C226.463 69.5138 225.367 71.006 225.435 71.1364C225.476 71.2147 225.612 71.3869 225.883 70.9903C226.155 70.5938 226.896 69.7381 226.896 69.7381L225.445 68.2563Z" fill="#EEA886"/>
<path d="M246.481 77.3454H241.311C241.311 77.3454 236.548 77.7262 236.167 74.3922C235.786 71.053 237.732 69.2007 237.732 69.2007C237.732 69.2007 240.247 69.8686 242.448 70.4008C243.549 70.166 244.874 70.0147 246.424 70.0564C246.424 70.0564 255.737 73.1348 255.46 74.7574C255.455 74.7522 251.558 72.6704 246.481 77.3454Z" fill="#FF2323"/>
<path d="M243.116 71.5695L252.977 71.4234L247.999 73.9487L243.116 71.5695Z" fill="#5E5853"/>
<path d="M246.179 70.3068C246.179 70.3068 243.961 71.1677 241.243 70.3903L241.118 69.3729L246.716 69.6859L246.179 70.3068Z" fill="#5F8CC9"/>
<path d="M247.999 73.9487L243.116 72.0599V71.5695L248.386 73.4687L247.999 73.9487Z" fill="#91887F"/>
<path d="M246.147 70.7764C246.121 71.1417 246.492 71.4025 246.826 71.2617L247.399 71.0164C247.572 70.9434 247.671 70.7608 247.639 70.5782C247.399 69.0859 246.888 63.2788 247.639 62.2874C247.916 61.917 248.088 61.5987 248.187 61.3169C248.683 62.59 249.293 64.2284 249.539 65.1101L254.198 71.3086L255.758 71.7052C253.806 67.0093 252.241 64.5205 252.241 64.5205C251.938 63.7014 251.062 61.223 250.29 59.016C249.799 57.6229 249.351 56.3394 249.111 55.6454C248.991 55.2959 248.745 54.9985 248.427 54.8106C247.707 54.3776 246.502 53.6993 245.412 53.1723C245.406 53.1723 245.401 53.1671 245.396 53.1671C245.359 53.1514 245.328 53.1358 245.292 53.1149C247.363 56.2507 246.554 65.1101 246.147 70.7764C246.147 70.7712 246.147 70.7712 246.147 70.7764Z" fill="#EDDAD3"/>
<path d="M238.452 53.3706C237.789 53.4749 236.141 55.0715 235.269 56.6837C234.273 58.5256 233.255 60.623 232.494 61.3117C231.096 62.5796 227.177 67.0615 226.99 66.9572C226.917 66.9154 228.064 68.2981 228.21 68.3607C228.283 68.392 234.648 62.8718 235.264 62.0318C235.843 61.2335 237.393 57.889 237.857 57.9621C237.894 58.0403 238.457 59.2612 238.989 61.0509C239 61.0822 239.005 61.1083 239.015 61.1396C239.386 62.3866 239.349 63.7379 239.151 65.2614C239 66.4093 238.144 68.2876 237.628 69.2007C237.565 69.3103 237.581 69.519 237.648 69.6807C237.69 69.7747 237.748 69.8529 237.821 69.879L239.688 70.5729L240.127 70.7347C240.445 70.8547 240.774 70.7921 241.024 70.6095C241.227 70.4634 241.374 70.2338 241.41 69.9573C241.827 66.7589 242.349 63.4927 242.772 62.2613C244.613 56.8611 242.052 52.8019 242.052 52.8019C242.052 52.8019 239.031 53.1567 238.452 53.3706Z" fill="#EDDAD3"/>
<path d="M247.999 73.9487L250.932 65.9397L260.385 66.0962L257.589 73.4739L247.999 73.9487Z" fill="#6E6760"/>
<path d="M253.958 69.4825C253.671 70.0616 253.754 70.6878 254.151 70.886C254.547 71.0843 255.1 70.7764 255.392 70.2025C255.679 69.6234 255.596 68.9973 255.199 68.799C254.798 68.6007 254.245 68.9086 253.958 69.4825Z" fill="#807066"/>
<path d="M243.987 47.6208C243.987 47.6208 244.593 48.5652 244.034 49.3739C243.476 50.1879 244.175 50.9862 244.295 51.8471C244.415 52.708 241.958 54.9933 244.692 56.1464C247.426 57.2994 248.292 55.395 247.598 54.3463C246.899 53.2975 246.408 52.4523 246.346 50.9549C246.288 49.4678 245.798 47.1408 243.987 47.6208Z" fill="#464240"/>
<path d="M230.636 43.7077H236.334V47.84V48.7113L235.468 47.84H230.636V43.7077Z" fill="#FFCB55"/>
<path d="M198.634 107.117C198.634 107.117 186.211 118.94 192.253 128.149C198.294 137.353 201.127 129.292 201.127 129.292C201.127 129.292 205.213 130.528 199.15 119.175C196.291 113.821 198.634 107.117 198.634 107.117Z" fill="#BBD070"/>
<path d="M175.662 94.2973C175.662 94.2973 166.172 105.452 178.86 120.896C191.549 136.346 189.582 144.506 189.582 144.506C189.582 144.506 207.247 117.656 175.662 94.2973Z" fill="#97A43C"/>
<path d="M192.446 139.847C198.352 141.042 193.573 123.871 184.719 118.637C175.865 113.404 167.94 112.893 162.984 107.853C162.979 107.853 163.365 133.967 192.446 139.847Z" fill="#48753A"/>
<path d="M153.854 147.381C153.854 147.381 154.125 146.708 154.167 146.609C154.209 146.51 154.47 146.343 154.788 146.181C155.106 146.019 155.602 145.941 155.659 145.967C155.711 145.998 155.779 146.004 155.852 146.144C155.92 146.285 155.899 146.442 155.899 146.442C155.899 146.442 156.066 146.577 156.029 146.771C156.029 146.771 156.181 146.906 156.103 147.115C156.103 147.115 156.249 147.251 156.176 147.397C156.176 147.397 155.915 147.564 155.836 147.652C155.758 147.741 155.189 148.049 154.605 148.263C154.6 148.258 153.974 148.268 153.854 147.381Z" fill="#EEA886"/>
<path d="M154.814 147.016C154.814 147.016 154.819 147.381 154.772 147.48C154.725 147.584 155.508 147.814 155.508 147.814C155.508 147.814 155.257 147.016 154.814 147.016Z" fill="#CF8C6C"/>
<path d="M140.143 182.516L140.487 181.447L141.938 181.681L141.724 182.647L140.143 182.516Z" fill="#3B3F66"/>
<path d="M152.049 182.391L152.132 182.98L153.723 182.714L153.635 181.833L152.049 182.391Z" fill="#555C94"/>
<path d="M148.605 165.919C148.605 165.919 148.37 167.197 148.099 168.611C148.052 168.856 148.005 169.107 147.953 169.357C147.687 170.724 147.421 172.034 147.322 172.305C147.097 172.921 142.23 181.843 142.23 181.843C142.23 181.843 140.237 181.692 140.164 181.436C140.164 181.436 144.244 171.747 144.223 171.397C144.202 171.043 144.724 161.114 144.724 161.114C144.724 161.114 148.501 165.345 148.605 165.919Z" fill="#354C70"/>
<path d="M150.833 160.55C150.833 160.55 152.737 170.307 152.899 171.053C153.061 171.799 153.786 181.791 153.786 181.791C153.786 181.791 153.358 182.673 151.777 182.344C151.777 182.344 149.623 171.606 149.44 171.246C148.736 169.848 145.272 163.086 144.938 162.121C144.604 161.155 144.703 160.028 144.703 160.028C144.703 160.028 147.27 158.583 150.833 160.55Z" fill="#354C70"/>
<path d="M150.03 147.913C150.03 147.913 150.864 149.995 151.073 149.938C151.282 149.875 153.682 147.057 153.682 147.057C153.682 147.057 154.783 148.43 154.631 148.586C154.428 148.805 151.59 153.522 151.198 153.433C150.807 153.35 149.064 150.465 149.064 150.465C149.064 150.465 148.976 148.289 150.03 147.913Z" fill="#EA2D2D"/>
<path d="M146.456 143.937C146.456 143.937 148.621 145.591 149.221 146.249C149.821 146.906 151.47 149.63 151.35 150.449C150.896 153.59 150.677 156.266 150.661 158.411C150.65 160.279 151.245 160.754 150.875 160.78C150.447 160.811 144.995 162.788 144.192 163.028C144.192 163.028 144.718 156.454 144.99 155.693C145.256 154.941 144.129 146.99 146.456 143.937Z" fill="#FF2323"/>
<path d="M160.412 140.796L160.897 143.243L161.382 145.696C161.382 145.696 158.602 144.824 155.445 145.45L155.231 144.37L155.017 143.285C158.174 142.654 160.412 140.796 160.412 140.796Z" fill="#D9D0C4"/>
<path d="M152.132 182.98C152.132 182.98 153.332 182.746 153.374 182.714C153.416 182.678 153.671 182.203 153.859 182.287C154.047 182.37 154.047 182.944 154.23 183.043C154.412 183.142 155.842 184.107 156.019 184.285C156.196 184.462 157.282 184.358 157.407 184.666C157.532 184.974 157.542 185.694 155.925 185.527C154.308 185.354 152.461 185.621 152.111 185.428C151.757 185.229 152.017 183.445 152.132 182.98Z" fill="#84BDFF"/>
<path d="M140.127 182.49C140.127 182.49 141.348 182.454 141.395 182.422C141.442 182.391 141.771 181.968 141.943 182.078C142.115 182.187 142.021 182.761 142.188 182.887C142.35 183.012 143.612 184.196 143.758 184.4C143.905 184.603 144.99 184.671 145.063 184.994C145.136 185.318 145.032 186.033 143.461 185.605C141.891 185.177 140.023 185.141 139.71 184.895C139.397 184.65 139.939 182.934 140.127 182.49Z" fill="#84BDFF"/>
<path d="M149.617 161.004C149.617 161.004 149.764 161.599 149.998 161.729C150.233 161.86 148.903 163.128 148.903 163.128C148.903 163.128 148.365 161.948 148.381 161.834C148.391 161.708 149.617 161.004 149.617 161.004Z" fill="#EEA987"/>
<path d="M145.496 146.504C145.496 146.504 143.941 153.903 143.816 154.659C143.696 155.374 148.376 162.22 148.376 162.22L149.931 161.296C149.931 161.296 146.153 154.43 146.158 154.117C146.164 153.804 147.969 147.84 147.969 147.84C147.969 147.84 148.725 146.541 147.385 145.91C146.044 145.283 145.496 146.504 145.496 146.504Z" fill="#FF4343"/>
<path d="M150.525 161.51C150.525 161.51 151.031 164.025 151 164.797C150.969 165.569 148.099 163.587 148.24 162.82L150.525 161.51Z" fill="#3C5780"/>
<path d="M146.456 143.937C146.456 143.937 150.4 148.247 150.16 147.772C149.294 146.066 148.689 145.779 148.699 145.461C148.71 145.216 148.804 144.506 148.819 144.271C148.851 143.817 148.882 143.452 148.882 143.452C148.882 143.452 146.92 140.697 147.009 141.636C147.098 142.576 146.456 143.937 146.456 143.937Z" fill="#EEA886"/>
<path d="M150.217 138.861C150.217 138.861 150.76 140.134 150.765 140.431C150.77 140.729 150.697 140.958 150.744 141.302C150.791 141.657 151.089 142.403 151.052 142.612C151.01 142.863 150.484 142.732 150.411 143.144C150.337 143.557 149.957 144.329 149.764 144.344C149.273 144.386 147.405 143.619 147.285 143.228C147.165 142.836 146.487 140.656 146.278 140.238C146.07 139.821 149.576 137.546 149.894 138.203C150.217 138.861 150.217 138.861 150.217 138.861Z" fill="#EEA886"/>
<path d="M145.449 139.805C145.204 138.725 146.445 138.589 146.445 138.589C146.445 138.589 147.254 137.645 149.19 137.76C151.125 137.869 150.828 140.4 150.828 140.4C150.828 140.4 149.487 140.202 148.908 140.348C148.908 140.348 148.835 141.428 148.898 141.694L148.167 141.631C148.167 141.631 148.251 140.676 147.896 140.629C147.546 140.582 147.426 142.654 146.774 143.113C146.774 143.113 146.769 142.967 146.685 142.826C146.555 142.596 146.352 142.216 146.179 141.767C145.898 141.136 145.574 140.358 145.449 139.805Z" fill="#16202E"/>
<path d="M148.386 140.859C148.386 140.859 148.115 140.129 147.473 140.603C147.004 140.948 147.489 142.184 147.943 142.174C148.391 142.169 148.579 141.496 148.386 140.859Z" fill="#EEA886"/>
<path d="M147.181 142.883C147.181 142.883 147.275 143.27 147.379 143.363C147.484 143.452 147.974 143.854 148.83 144.12L148.757 144.887C148.757 144.887 147.098 144.245 147.181 142.883Z" fill="#C48A6F"/>
<path d="M154.224 145.322H154.193V148.254H154.224V145.322Z" fill="#96CBFF"/>
<path d="M154.255 145.32H154.224V148.252H154.255V145.32Z" fill="#95CAFF"/>
<path d="M154.287 145.32H154.256V148.252H154.287V145.32Z" fill="#94C9FF"/>
<path d="M154.318 145.32H154.287V148.252H154.318V145.32Z" fill="#93C9FF"/>
<path d="M154.344 145.32H154.313V148.252H154.344V145.32Z" fill="#92C8FF"/>
<path d="M154.376 145.32H154.344V148.252H154.376V145.32Z" fill="#91C7FF"/>
<path d="M154.407 145.32H154.376V148.252H154.407V145.32Z" fill="#90C6FF"/>
<path d="M154.438 145.32H154.407V148.252H154.438V145.32Z" fill="#8FC6FF"/>
<path d="M154.47 145.32H154.438V148.252H154.47V145.32Z" fill="#8EC5FF"/>
<path d="M154.496 145.32H154.464V148.252H154.496V145.32Z" fill="#8DC4FF"/>
<path d="M154.527 145.32H154.496V148.252H154.527V145.32Z" fill="#8CC3FF"/>
<path d="M154.558 145.32H154.527V148.252H154.558V145.32Z" fill="#8BC2FF"/>
<path d="M154.59 145.32H154.558V148.252H154.59V145.32Z" fill="#8AC2FF"/>
<path d="M154.621 145.32H154.589V148.252H154.621V145.32Z" fill="#89C1FF"/>
<path d="M154.652 145.32H154.621V148.252H154.652V145.32Z" fill="#88C0FF"/>
<path d="M154.678 145.32H154.647V148.252H154.678V145.32Z" fill="#87BFFF"/>
<path d="M154.709 145.32H154.678V148.252H154.709V145.32Z" fill="#86BFFF"/>
<path d="M154.741 145.32H154.709V148.252H154.741V145.32Z" fill="#85BEFF"/>
<path d="M154.772 145.32H154.741V148.252H154.772V145.32Z" fill="#84BDFF"/>
<path d="M154.803 145.32H154.772V148.252H154.803V145.32Z" fill="#83BCFF"/>
<path d="M154.83 145.32H154.798V148.252H154.83V145.32Z" fill="#82BBFF"/>
<path d="M154.861 145.32H154.83V148.252H154.861V145.32Z" fill="#81BBFF"/>
<path d="M154.892 145.32H154.861V148.252H154.892V145.32Z" fill="#80BAFF"/>
<path d="M154.923 145.32H154.892V148.252H154.923V145.32Z" fill="#7FB9FF"/>
<path d="M154.955 145.32H154.923V148.252H154.955V145.32Z" fill="#7EB8FF"/>
<path d="M154.981 145.32H154.95V148.252H154.981V145.32Z" fill="#7DB7FF"/>
<path d="M155.012 145.32H154.981V148.252H155.012V145.32Z" fill="#7CB7FF"/>
<path d="M155.043 145.32H155.012V148.252H155.043V145.32Z" fill="#7BB6FF"/>
<path d="M155.075 145.32H155.043V148.252H155.075V145.32Z" fill="#7AB5FF"/>
<path d="M155.106 145.32H155.075V148.252H155.106V145.32Z" fill="#79B4FF"/>
<path d="M155.132 145.32H155.101V148.252H155.132V145.32Z" fill="#78B4FF"/>
<path d="M155.163 145.32H155.132V148.252H155.163V145.32Z" fill="#77B3FF"/>
<path d="M155.195 145.32H155.163V148.252H155.195V145.32Z" fill="#76B2FF"/>
<path d="M155.226 145.32H155.195V148.252H155.226V145.32Z" fill="#74B1FF"/>
<path d="M155.257 145.32H155.226V148.252H155.257V145.32Z" fill="#73B0FF"/>
<path d="M155.289 145.32H155.257V148.252H155.289V145.32Z" fill="#72B0FF"/>
<path d="M155.315 145.32H155.283V148.252H155.315V145.32Z" fill="#71AFFF"/>
<path d="M155.346 145.32H155.315V148.252H155.346V145.32Z" fill="#70AEFF"/>
<path d="M155.377 145.32H155.346V148.252H155.377V145.32Z" fill="#6FADFF"/>
<path d="M155.409 145.32H155.377V148.252H155.409V145.32Z" fill="#6EADFF"/>
<path d="M155.44 145.32H155.409V148.252H155.44V145.32Z" fill="#6DACFF"/>
<path d="M155.466 145.32H155.435V148.252H155.466V145.32Z" fill="#6CABFF"/>
<path d="M155.497 145.32H155.466V148.252H155.497V145.32Z" fill="#6BAAFF"/>
<path d="M155.529 145.32H155.497V148.252H155.529V145.32Z" fill="#6AA9FF"/>
<path d="M155.56 145.32H155.529V148.252H155.56V145.32Z" fill="#69A9FF"/>
<path d="M155.591 145.32H155.56V148.252H155.591V145.32Z" fill="#68A8FF"/>
<path d="M155.617 145.32H155.586V148.252H155.617V145.32Z" fill="#67A7FF"/>
<path d="M155.649 145.32H155.617V148.252H155.649V145.32Z" fill="#66A6FF"/>
<path d="M155.68 145.32H155.649V148.252H155.68V145.32Z" fill="#65A6FF"/>
<path d="M155.711 145.32H155.68V148.252H155.711V145.32Z" fill="#64A5FF"/>
<path d="M155.743 145.32H155.711V148.252H155.743V145.32Z" fill="#63A4FF"/>
<path d="M155.769 145.32H155.737V148.252H155.769V145.32Z" fill="#62A3FF"/>
<path d="M155.8 145.32H155.769V148.252H155.8V145.32Z" fill="#61A2FF"/>
<path d="M155.831 145.32H155.8V148.252H155.831V145.32Z" fill="#60A2FF"/>
<path d="M155.862 145.32H155.831V148.252H155.862V145.32Z" fill="#5FA1FF"/>
<path d="M155.894 145.32H155.863V148.252H155.894V145.32Z" fill="#5EA0FF"/>
<path d="M155.92 145.32H155.889V148.252H155.92V145.32Z" fill="#5D9FFF"/>
<path d="M155.951 145.32H155.92V148.252H155.951V145.32Z" fill="#5C9EFF"/>
<path d="M155.983 145.32H155.951V148.252H155.983V145.32Z" fill="#5B9EFF"/>
<path d="M156.014 145.32H155.983V148.252H156.014V145.32Z" fill="#5A9DFF"/>
<path d="M156.045 145.32H156.014V148.252H156.045V145.32Z" fill="#599CFF"/>
<path d="M156.076 145.32H156.045V148.252H156.076V145.32Z" fill="#589BFF"/>
<path d="M156.102 145.32H156.071V148.252H156.102V145.32Z" fill="#579BFF"/>
<path d="M156.134 145.32H156.102V148.252H156.134V145.32Z" fill="#569AFF"/>
<path d="M156.165 145.32H156.134V148.252H156.165V145.32Z" fill="#5599FF"/>
<path d="M155.576 146.004C155.576 146.004 154.788 146.437 154.84 146.572C154.892 146.708 154.996 146.724 154.996 146.724L154.751 147.047C154.751 147.047 154.709 147.355 155.059 147.308C155.059 147.308 154.991 147.59 155.32 147.506C155.32 147.506 155.362 147.715 155.518 147.699C155.68 147.689 156.176 147.386 156.176 147.386C156.176 147.386 156.254 147.277 156.103 147.104C156.103 147.104 156.191 146.906 156.029 146.76C156.029 146.76 156.076 146.593 155.899 146.431C155.899 146.431 155.972 146.045 155.659 145.957C155.659 145.967 155.607 145.988 155.576 146.004Z" fill="#DB9C7C"/>
<path d="M152.878 143.097H152.831V145.899H152.878V143.097Z" fill="#96CBFF"/>
<path d="M152.925 143.097H152.878V145.899H152.925V143.097Z" fill="#95CAFF"/>
<path d="M152.983 143.097H152.93V145.899H152.983V143.097Z" fill="#94C9FF"/>
<path d="M153.024 143.097H152.977V145.899H153.024V143.097Z" fill="#93C9FF"/>
<path d="M153.077 143.097H153.03V145.899H153.077V143.097Z" fill="#92C8FF"/>
<path d="M153.123 143.097H153.076V145.899H153.123V143.097Z" fill="#91C7FF"/>
<path d="M153.176 143.097H153.129V145.899H153.176V143.097Z" fill="#90C6FF"/>
<path d="M153.223 143.097H153.176V145.899H153.223V143.097Z" fill="#8FC6FF"/>
<path d="M153.275 143.097H153.228V145.899H153.275V143.097Z" fill="#8EC5FF"/>
<path d="M153.322 143.097H153.275V145.899H153.322V143.097Z" fill="#8DC4FF"/>
<path d="M153.379 143.097H153.327V145.899H153.379V143.097Z" fill="#8CC3FF"/>
<path d="M153.421 143.097H153.374V145.899H153.421V143.097Z" fill="#8BC2FF"/>
<path d="M153.473 143.097H153.426V145.899H153.473V143.097Z" fill="#8AC2FF"/>
<path d="M153.52 143.097H153.473V145.899H153.52V143.097Z" fill="#89C1FF"/>
<path d="M153.572 143.097H153.525V145.899H153.572V143.097Z" fill="#88C0FF"/>
<path d="M153.619 143.097H153.572V145.899H153.619V143.097Z" fill="#87BFFF"/>
<path d="M153.671 143.097H153.624V145.899H153.671V143.097Z" fill="#86BFFF"/>
<path d="M153.718 143.097H153.671V145.899H153.718V143.097Z" fill="#85BEFF"/>
<path d="M153.776 143.097H153.723V145.899H153.776V143.097Z" fill="#84BDFF"/>
<path d="M153.817 143.097H153.77V145.899H153.817V143.097Z" fill="#83BCFF"/>
<path d="M153.87 143.097H153.823V145.899H153.87V143.097Z" fill="#82BBFF"/>
<path d="M153.917 143.097H153.87V145.899H153.917V143.097Z" fill="#81BBFF"/>
<path d="M153.969 143.097H153.922V145.899H153.969V143.097Z" fill="#80BAFF"/>
<path d="M154.016 143.097H153.969V145.899H154.016V143.097Z" fill="#7FB9FF"/>
<path d="M154.063 143.097H154.016V145.899H154.063V143.097Z" fill="#7EB8FF"/>
<path d="M154.115 143.097H154.068V145.899H154.115V143.097Z" fill="#7DB7FF"/>
<path d="M154.162 143.097H154.115V145.899H154.162V143.097Z" fill="#7CB7FF"/>
<path d="M154.214 143.097H154.167V145.899H154.214V143.097Z" fill="#7BB6FF"/>
<path d="M154.261 143.097H154.214V145.899H154.261V143.097Z" fill="#7AB5FF"/>
<path d="M154.318 143.097H154.266V145.899H154.318V143.097Z" fill="#79B4FF"/>
<path d="M154.36 143.097H154.313V145.899H154.36V143.097Z" fill="#78B4FF"/>
<path d="M154.412 143.097H154.365V145.899H154.412V143.097Z" fill="#77B3FF"/>
<path d="M154.459 143.097H154.412V145.899H154.459V143.097Z" fill="#76B2FF"/>
<path d="M154.511 143.097H154.464V145.899H154.511V143.097Z" fill="#74B1FF"/>
<path d="M154.558 143.097H154.511V145.899H154.558V143.097Z" fill="#73B0FF"/>
<path d="M154.61 143.097H154.563V145.899H154.61V143.097Z" fill="#72B0FF"/>
<path d="M154.657 143.097H154.61V145.899H154.657V143.097Z" fill="#71AFFF"/>
<path d="M154.715 143.097H154.663V145.899H154.715V143.097Z" fill="#70AEFF"/>
<path d="M154.756 143.097H154.709V145.899H154.756V143.097Z" fill="#6FADFF"/>
<path d="M154.809 143.097H154.762V145.899H154.809V143.097Z" fill="#6EADFF"/>
<path d="M154.856 143.097H154.809V145.899H154.856V143.097Z" fill="#6DACFF"/>
<path d="M154.908 143.097H154.861V145.899H154.908V143.097Z" fill="#6CABFF"/>
<path d="M154.955 143.097H154.908V145.899H154.955V143.097Z" fill="#6BAAFF"/>
<path d="M155.007 143.097H154.96V145.899H155.007V143.097Z" fill="#6AA9FF"/>
<path d="M155.054 143.097H155.007V145.899H155.054V143.097Z" fill="#69A9FF"/>
<path d="M155.106 143.097H155.059V145.899H155.106V143.097Z" fill="#68A8FF"/>
<path d="M155.158 143.097H155.106V145.899H155.158V143.097Z" fill="#67A7FF"/>
<path d="M155.205 143.097H155.158V145.899H155.205V143.097Z" fill="#66A6FF"/>
<path d="M155.252 143.097H155.205V145.899H155.252V143.097Z" fill="#65A6FF"/>
<path d="M155.304 143.097H155.257V145.899H155.304V143.097Z" fill="#64A5FF"/>
<path d="M155.351 143.097H155.304V145.899H155.351V143.097Z" fill="#63A4FF"/>
<path d="M155.403 143.097H155.356V145.899H155.403V143.097Z" fill="#62A3FF"/>
<path d="M155.45 143.097H155.403V145.899H155.45V143.097Z" fill="#61A2FF"/>
<path d="M155.497 143.097H155.45V145.899H155.497V143.097Z" fill="#60A2FF"/>
<path d="M155.555 143.097H155.503V145.899H155.555V143.097Z" fill="#5FA1FF"/>
<path d="M155.602 143.097H155.555V145.899H155.602V143.097Z" fill="#5EA0FF"/>
<path d="M155.649 143.097H155.602V145.899H155.649V143.097Z" fill="#5D9FFF"/>
<path d="M155.696 143.097H155.649V145.899H155.696V143.097Z" fill="#5C9EFF"/>
<path d="M155.748 143.097H155.701V145.899H155.748V143.097Z" fill="#5B9EFF"/>
<path d="M155.795 143.097H155.748V145.899H155.795V143.097Z" fill="#5A9DFF"/>
<path d="M155.847 143.097H155.8V145.899H155.847V143.097Z" fill="#599CFF"/>
<path d="M155.894 143.097H155.847V145.899H155.894V143.097Z" fill="#589BFF"/>
<path d="M155.946 143.097H155.899V145.899H155.946V143.097Z" fill="#579BFF"/>
<path d="M155.998 143.097H155.946V145.899H155.998V143.097Z" fill="#569AFF"/>
<path d="M156.045 143.097H155.998V145.899H156.045V143.097Z" fill="#5599FF"/>
<path d="M154.193 146.593C154.193 146.593 154.809 146.577 155.153 146.713C155.231 146.744 155.299 146.791 155.299 146.875C155.299 146.958 155.179 147.063 154.913 147.084C154.647 147.104 154.308 147.256 154.308 147.256C154.308 147.256 154.026 147.193 154.193 146.593Z" fill="#EEA886"/>
<path d="M148.099 168.611C148.052 168.857 148.005 169.107 147.953 169.357L146.372 165.173C146.581 165.596 148.099 168.611 148.099 168.611Z" fill="#293B57"/>
<path d="M61.0805 118.742H36.1315C34.2898 118.742 32.7925 117.249 32.7925 115.402V75.9836C32.7925 74.1418 34.2846 72.6443 36.1315 72.6443H61.0805C62.9222 72.6443 64.4195 74.1366 64.4195 75.9836V115.402C64.4195 117.244 62.9222 118.742 61.0805 118.742Z" fill="#FFC955"/>
<path d="M61.0596 102.416H59.4214V114.886H61.0596V102.416Z" fill="#E3F2FF"/>
<path d="M57.8196 103.814H56.1814V114.886H57.8196V103.814Z" fill="#E3F2FF"/>
<path d="M54.3032 105.63H52.665V114.886H54.3032V105.63Z" fill="#E3F2FF"/>
<path d="M50.6929 107.92H49.0547V114.886H50.6929V107.92Z" fill="#E3F2FF"/>
<path d="M39.2774 106.444L38.9174 106.319L42.0113 97.647L48.7102 95.8782L51.1206 86.3614L56.2909 84.0813L57.4492 76.6827L57.8196 76.7401L56.6301 84.3422L51.4389 86.6327L49.0233 96.1861L42.2982 97.9652L39.2774 106.444Z" fill="#E3F2FF"/>
<path d="M49.6443 95.393C49.9938 95.8208 49.9312 96.4574 49.5034 96.8069C49.0756 97.1565 48.4391 97.0939 48.0895 96.6661C47.74 96.2382 47.8026 95.6017 48.2304 95.2521C48.6582 94.9025 49.2947 94.9651 49.6443 95.393Z" fill="#FFC955"/>
<path d="M49.6233 96.953C49.112 97.3705 48.3607 97.2922 47.9434 96.7861C47.526 96.2748 47.6042 95.5234 48.1103 95.106C48.6216 94.6886 49.3729 94.7669 49.7903 95.273C50.2077 95.7843 50.1346 96.5409 49.6233 96.953ZM48.3503 95.3982C48.0008 95.6852 47.9486 96.1965 48.2355 96.5461C48.5225 96.8957 49.039 96.9478 49.3833 96.6609C49.7329 96.3739 49.7851 95.8573 49.4981 95.513C49.2164 95.1634 48.6999 95.1112 48.3503 95.3982Z" fill="#E3F2FF"/>
<path d="M52.0859 85.9179C52.4354 86.3457 52.3728 86.9822 51.945 87.3318C51.5172 87.6814 50.8807 87.6188 50.5311 87.191C50.1816 86.7631 50.2442 86.1266 50.672 85.777C51.0998 85.4222 51.7363 85.49 52.0859 85.9179Z" fill="#FFC955"/>
<path d="M52.0597 87.4779C51.5484 87.8953 50.7972 87.8171 50.3798 87.3109C49.9624 86.7996 50.0406 86.0483 50.5467 85.6309C51.058 85.2135 51.8093 85.2918 52.2267 85.7979C52.6493 86.3092 52.571 87.0605 52.0597 87.4779ZM50.7919 85.9231C50.4424 86.21 50.3902 86.7266 50.6772 87.0709C50.9641 87.4205 51.4806 87.4727 51.825 87.1857C52.1745 86.8988 52.2267 86.3874 51.9397 86.0379C51.6528 85.6883 51.1363 85.6361 50.7919 85.9231Z" fill="#E3F2FF"/>
<path d="M57.1779 83.57C57.5275 83.9978 57.4649 84.6343 57.037 84.9839C56.6092 85.3335 55.9727 85.2709 55.6232 84.8431C55.2736 84.4152 55.3362 83.7787 55.764 83.4291C56.1918 83.0743 56.8231 83.1421 57.1779 83.57Z" fill="#FFC955"/>
<path d="M57.1519 85.13C56.6406 85.5474 55.8893 85.4692 55.4719 84.9631C55.0546 84.4517 55.1328 83.7004 55.6389 83.283C56.1502 82.8656 56.9015 82.9438 57.3188 83.45C57.7414 83.9613 57.6632 84.7126 57.1519 85.13ZM55.8789 83.5752C55.5293 83.8621 55.4772 84.3787 55.7641 84.723C56.0511 85.0726 56.5624 85.1248 56.9119 84.8378C57.2615 84.5509 57.3136 84.0343 57.0267 83.69C56.7449 83.3404 56.2284 83.2882 55.8789 83.5752Z" fill="#E3F2FF"/>
<path d="M42.9713 97.2557C43.3208 97.6835 43.2582 98.32 42.8304 98.6696C42.3974 99.0192 41.7661 98.9566 41.4165 98.5287C41.067 98.1009 41.1296 97.4644 41.5574 97.1148C41.9852 96.76 42.6165 96.8278 42.9713 97.2557Z" fill="#FFC955"/>
<path d="M42.9453 98.8157C42.434 99.2331 41.6827 99.1548 41.2653 98.6487C40.8479 98.1374 40.9262 97.3861 41.4323 96.9687C41.9435 96.5513 42.6948 96.6296 43.1122 97.1357C43.5348 97.647 43.4566 98.3983 42.9453 98.8157ZM41.6723 97.2609C41.3227 97.5478 41.2705 98.0592 41.5575 98.4087C41.8444 98.7583 42.3609 98.8105 42.7053 98.5235C43.0548 98.2366 43.107 97.72 42.82 97.3757C42.5383 97.0261 42.0218 96.9739 41.6723 97.2609Z" fill="#E3F2FF"/>
<path d="M45.4965 87.8171H36.8723C36.4758 87.8171 36.1523 87.4936 36.1523 87.097V86.4553C36.1523 86.0587 36.4758 85.7352 36.8723 85.7352H45.4965C45.893 85.7352 46.2164 86.0587 46.2164 86.4553V87.097C46.2217 87.4936 45.8982 87.8171 45.4965 87.8171Z" fill="#EBEBEB"/>
<path d="M45.4965 84.17H36.8723C36.4758 84.17 36.1523 83.8465 36.1523 83.4499V82.8082C36.1523 82.4117 36.4758 82.0882 36.8723 82.0882H45.4965C45.893 82.0882 46.2164 82.4117 46.2164 82.8082V83.4499C46.2217 83.8465 45.8982 84.17 45.4965 84.17Z" fill="#EBEBEB"/>
<path d="M28.9265 89.4971C28.9265 89.4971 28.6343 92.3772 29.1665 93.0973C29.1665 93.0973 27.7578 92.7894 27.4343 92.3042C27.1109 91.8189 28.9265 89.4971 28.9265 89.4971Z" fill="#16202E"/>
<path d="M37.7176 98.6905C37.7176 98.6905 38.2289 98.3461 38.3071 98.2992C38.3854 98.247 38.6515 98.2574 38.9488 98.294C39.2514 98.3305 39.6375 98.5131 39.6636 98.56C39.6845 98.607 39.7314 98.6435 39.7158 98.774C39.6949 98.9044 39.6062 99.0088 39.6062 99.0088C39.6062 99.0088 39.6584 99.1809 39.5436 99.301C39.5436 99.301 39.5853 99.4679 39.4288 99.5775C39.4288 99.5775 39.4653 99.7392 39.3453 99.8123C39.3453 99.8123 39.0845 99.8019 38.9854 99.8279C38.8862 99.854 38.3436 99.8019 37.8271 99.6662C37.8271 99.6662 37.248 99.541 37.7176 98.6905Z" fill="#EEA886"/>
<path d="M38.5889 98.9253C38.5889 98.9253 38.4376 99.1914 38.3541 99.2488C38.2706 99.3009 38.7454 99.8123 38.7454 99.8123C38.7454 99.8123 38.9123 99.1235 38.5889 98.9253Z" fill="#CF8C6C"/>
<path d="M37.4149 98.7374C37.4149 98.7374 37.7383 98.7009 37.9366 98.6122C38.1349 98.5183 37.9001 99.614 37.9001 99.614C37.9001 99.614 37.4201 99.28 37.107 99.2748C36.7888 99.2592 37.4149 98.7374 37.4149 98.7374Z" fill="#EEA886"/>
<path d="M24.1005 127.836C24.1005 127.836 25.1075 129.307 25.457 129.615C25.457 129.615 26.1561 129.98 26.177 130.267C26.2187 130.815 26.2448 131.139 25.3266 131.165C24.4031 131.191 23.8292 131.165 23.6571 130.601C23.4901 130.043 23.1979 129.605 23.1979 129.605L23.1301 131.06H22.9214C22.9214 131.06 22.8275 129.605 22.8171 129.396C22.8066 129.187 22.6658 128.389 23.104 128.034C23.5423 127.685 24.1005 127.836 24.1005 127.836Z" fill="#162D40"/>
<path d="M25.5874 129.693C25.5874 129.693 25.0866 129.834 24.497 129.683C23.9023 129.532 23.3336 128.112 23.1614 127.998L23.0101 127.424H24.1683C24.1683 127.424 24.1788 127.846 24.3666 128.212C24.544 128.572 25.5874 129.693 25.5874 129.693Z" fill="#162D40"/>
<path d="M30.622 127.288C30.622 127.288 30.7733 127.643 31.055 128.013C31.2637 128.285 31.9107 129.401 32.1976 129.479C32.4846 129.558 33.3663 129.714 33.4446 130.205C33.5228 130.7 33.5593 131.05 32.6933 131.086C31.822 131.123 31.2533 131.175 30.8359 130.565C30.4185 129.954 29.7559 129.511 29.7559 129.511V131.102H29.4168C29.4168 131.102 29.2603 129.443 29.1716 129.328C29.0829 129.213 28.8481 127.94 29.6516 127.278C30.4603 126.625 30.622 127.288 30.622 127.288Z" fill="#162D40"/>
<path d="M32.1977 129.479C32.1977 129.479 31.4203 129.673 31.1177 129.479C30.8203 129.286 29.803 127.57 29.4691 127.465C29.4691 127.465 29.7925 126.803 30.6221 127.283C30.6221 127.288 31.9786 129.198 32.1977 129.479Z" fill="#162D40"/>
<path d="M23.657 103.433C23.657 103.433 22.5562 104.863 22.2588 106.559C21.9614 108.254 22.4362 113.941 22.4205 114.782C22.4101 115.622 21.6797 118.225 21.8362 119.806C21.9927 121.382 22.8066 127.972 22.8066 127.972L24.7109 127.935C24.7109 127.935 24.3301 120.829 24.4292 120.166C24.5283 119.503 24.8361 116.686 24.8779 116.415C24.9196 116.143 27.0482 108.927 27.0482 107.706C27.0482 106.486 26.3074 101.44 23.657 103.433Z" fill="#1D3B54"/>
<path d="M29.1768 103.992C29.1768 103.992 30.982 110.884 31.1959 111.839C31.4098 112.794 31.8376 114.041 31.822 114.218C31.8011 114.39 31.5924 117.333 31.5924 117.333L31.0811 127.345H29.1768C29.1768 127.345 28.5664 120.975 28.4673 119.691C28.3681 118.408 29.1664 116.42 28.9734 115.872C28.7803 115.329 25.8378 109.032 25.8378 109.032C25.8378 109.032 23.61 101.993 29.1768 103.992Z" fill="#1D3B54"/>
<path d="M28.6186 93.6816C28.6186 93.6816 29.3386 93.7494 29.8864 94.3338C30.4342 94.9182 30.9455 95.8521 31.0863 96.16C31.2272 96.473 33.2306 99.3583 33.335 99.4262C33.4393 99.4888 34.3158 99.2592 35.0149 99.2018C36.1575 99.1079 37.8688 98.5235 37.8688 98.5235L38.1244 99.8175C38.1244 99.8175 33.9141 101.174 32.9437 100.939C31.7541 100.647 29.0203 97.1356 29.0203 97.1356C29.0203 97.1356 26.9803 94.746 28.6186 93.6816Z" fill="#EDDAD3"/>
<path d="M27.3561 93.1703C27.3561 93.1703 28.29 93.6138 28.6135 93.6764C28.9369 93.739 30.1995 95.3773 30.4186 95.9774C30.6378 96.5722 30.4186 97.4696 29.9647 98.5235C29.5108 99.5775 29.9386 99.9271 29.73 100.981C29.5213 102.035 29.5213 104.899 29.563 105.484C29.5995 106.068 23.5527 107.169 22.3423 106.105C22.3423 106.105 23.1614 103.407 24.1266 102.395C24.3353 102.176 24.3144 100.715 24.1683 100.355C24.0275 99.9897 22.4153 97.2765 22.4153 97.2765C22.4153 97.2765 22.2953 94.5216 22.9997 93.979C23.6101 93.5042 25.2744 93.3372 25.5718 93.2329C25.8796 93.1285 26.7457 93.0816 27.3561 93.1703Z" fill="#EDDAD3"/>
<path d="M27.6586 95.2573L28.2273 94.5895L27.7317 92.8364C27.7317 92.8416 27.5647 93.8173 27.6586 95.2573Z" fill="#D1C0BA"/>
<path d="M24.0952 93.6816C24.0952 93.6816 22.9161 93.3425 22.2431 94.6416C21.5701 95.9408 21.737 96.64 21.5805 97.2243C21.424 97.8087 20.8031 101.717 20.7614 101.889C20.7197 102.056 20.1249 104.044 20.2031 104.654C20.2814 105.265 20.8397 109.887 20.8136 110.044C20.7875 110.2 21.8935 109.893 21.8935 109.893C21.8935 109.893 21.8466 105.171 21.8883 104.779C21.9249 104.388 21.9666 102.343 22.2588 101.816C22.5509 101.289 23.2709 98.0748 23.4274 97.7461C23.5787 97.4174 25.0865 94.099 24.0952 93.6816Z" fill="#EEA886"/>
<path d="M27.8047 92.0955C27.8047 92.0955 27.6169 93.8121 27.6586 94.3703C27.6586 94.3703 26.6882 95.346 25.5822 93.2329C25.5822 93.2329 26.0465 92.3616 25.6969 91.1772C25.3474 89.9928 27.8047 92.0955 27.8047 92.0955Z" fill="#EEA886"/>
<path d="M27.6586 94.3703V95.2573L26.61 94.3338L27.6586 94.3703Z" fill="#EEA886"/>
<path d="M27.6586 95.2573L27.1943 94.6834L25.6291 93.1233L25.0448 93.3842L27.6586 95.2573Z" fill="#D1C0BA"/>
<path d="M28.2273 94.5895L28.9421 94.7877L27.7317 92.8416L28.2273 94.5895Z" fill="#FAE6DE"/>
<path d="M27.1944 94.6834L26.537 95.7321L25.0188 93.3477L25.6709 93.0138L27.1944 94.6834Z" fill="#FAE6DE"/>
<path d="M30.523 98.9096C30.523 98.9096 30.7578 97.3548 30.5073 96.4104C30.5073 96.4104 30.3717 97.1722 30.0326 98.3618L30.523 98.9096Z" fill="#D1C0BA"/>
<path d="M23.2605 98.7061C23.2605 98.7061 23.9075 96.5669 23.944 96.4521C23.944 96.4521 23.9023 98.4192 23.6518 99.3896C23.6518 99.3896 23.417 98.9722 23.2605 98.7061Z" fill="#D1C0BA"/>
<path d="M47.3434 87.984L37.1697 100.804L37.5245 101.08L47.3434 87.984Z" fill="#54281A"/>
<path d="M39.5854 98.5444C39.5854 98.5444 38.8236 98.4713 38.7976 98.5966C38.7715 98.7166 38.8341 98.7792 38.8341 98.7792L38.5054 98.894C38.5054 98.894 38.3332 99.0922 38.5941 99.2227C38.5941 99.2227 38.4115 99.3896 38.6828 99.4888C38.6828 99.4888 38.6097 99.6505 38.7297 99.7183C38.8497 99.7862 39.3402 99.8123 39.3402 99.8123C39.3402 99.8123 39.4445 99.7705 39.4236 99.5775C39.4236 99.5775 39.5802 99.4783 39.5384 99.3009C39.5384 99.3009 39.6532 99.2018 39.601 99.0088C39.601 99.0088 39.8358 98.7687 39.6584 98.56C39.6636 98.5548 39.6219 98.5444 39.5854 98.5444Z" fill="#DB9C7C"/>
<path d="M38.3332 98.294C38.3332 98.294 38.7766 98.5757 38.954 98.8366C38.9958 98.894 39.0218 98.9618 38.9801 99.0192C38.9384 99.0766 38.8027 99.0975 38.6045 98.9827C38.4062 98.8679 38.0984 98.8157 38.0984 98.8157C38.0984 98.8157 37.9262 98.6435 38.3332 98.294Z" fill="#EEA886"/>
<path d="M27.0169 86.257C27.0169 86.257 28.7386 86.2101 29.0568 88.2501C29.3751 90.2902 28.6394 92.0798 28.3525 92.3668C28.0655 92.6537 26.3438 92.4346 25.9369 91.3754C25.53 90.3163 24.9352 89.5441 25.0239 88.6362C25.1178 87.7231 24.8987 86.2205 27.0169 86.257Z" fill="#EEA886"/>
<path d="M29.1299 89.0171C29.1299 89.0171 29.589 86.4761 27.3039 86.017C25.0187 85.5631 24.2152 87.1231 24.0013 88.0571C23.7822 88.9858 24.0431 91.6102 24.0431 91.6102C24.0431 91.6102 25.5665 92.9459 26.4743 93.2903C26.4743 93.2903 25.7126 90.4989 25.9995 88.5006C25.9995 88.5006 27.8569 88.7927 29.0882 88.4901C29.0882 88.4953 29.1247 88.9127 29.1299 89.0171Z" fill="#16202E"/>
<path d="M27.763 92.4764C27.763 92.4764 27.163 92.4711 26.3543 91.9442C26.3543 91.9442 26.9282 92.6642 27.7212 92.9251C27.7265 92.9251 27.7734 92.5651 27.763 92.4764Z" fill="#A77860"/>
<path d="M24.3697 105.599L17.7224 106.685L18.5256 111.602L25.1728 110.516L24.3697 105.599Z" fill="#FF2323"/>
<path d="M20.584 111.521C20.584 111.521 20.4796 111.348 20.4692 111.254C20.4692 111.254 20.464 111.077 20.4536 110.952C20.4483 110.91 20.4483 110.879 20.4431 110.858C20.4223 110.764 20.3544 110.571 20.3649 110.336C20.3805 110.101 20.6988 109.105 20.6988 109.105L21.2883 109.126L21.8414 109.068C21.8414 109.068 22.5092 110.347 22.5248 110.566C22.5248 110.587 22.5248 110.607 22.5248 110.628C22.5196 110.816 22.4309 110.952 22.4153 111.051C22.41 111.087 22.3266 111.442 22.2327 111.489C22.097 111.557 21.977 111.547 21.8883 111.494C21.8883 111.494 21.617 111.614 21.4292 111.562C21.4292 111.562 21.184 111.682 20.9649 111.547C20.9596 111.541 20.6988 111.635 20.584 111.521Z" fill="#EEA886"/>
<path d="M24.0952 93.6816C24.0952 93.6816 22.9161 93.3425 22.2431 94.6416C21.5701 95.9408 21.5701 96.4939 21.4814 97.1304C21.3979 97.7305 20.5736 101.289 20.5318 101.456C20.4953 101.623 20.224 103.845 20.2031 104.659C20.1875 105.275 20.3336 109.308 20.3075 109.465C20.2814 109.621 22.1753 109.193 22.1753 109.193C22.1753 109.193 21.9666 105.473 22.0031 105.082C22.0396 104.691 22.1231 102.75 22.3161 102.181C22.5405 101.513 23.4222 98.1322 23.5787 97.7983C23.73 97.4591 25.0865 94.099 24.0952 93.6816Z" fill="#EDDAD3"/>
<path d="M85.0121 128.65L85.1321 127.507C85.1321 127.507 83.52 127.497 83.3321 127.632C83.3321 127.632 83.4678 128.592 83.4834 128.733C83.5043 128.879 85.0121 128.65 85.0121 128.65Z" fill="#5C544D"/>
<path d="M82.273 131.039C84.1877 131.024 85.1112 131.154 85.3198 130.841C85.5233 130.528 85.0225 128.545 85.0225 128.545C85.0225 128.545 84.5686 128.712 83.4729 128.608C83.4729 128.608 82.9982 129.187 82.5338 129.438C82.0747 129.688 81.3495 129.787 81.073 130.048C80.88 130.241 80.3582 131.055 82.273 131.039Z" fill="#3C4145"/>
<path d="M74.2228 128.65L74.3428 127.507C74.3428 127.507 72.7306 127.497 72.5428 127.632C72.5428 127.632 72.6785 128.592 72.6941 128.733C72.7202 128.879 74.2228 128.65 74.2228 128.65Z" fill="#5C544D"/>
<path d="M71.4889 131.039C73.4036 130.987 74.3271 131.154 74.5358 130.841C74.7393 130.528 74.2384 128.545 74.2384 128.545C74.2384 128.545 73.8106 128.723 72.6889 128.608C72.6889 128.608 72.2089 129.187 71.7498 129.438C71.2906 129.688 69.5898 129.897 69.3185 130.158C69.1202 130.351 68.7916 131.107 71.4889 131.039Z" fill="#3C4145"/>
<path d="M82.7999 102.875C82.7999 102.875 83.6034 105.254 83.4938 107.305C83.3895 109.355 83.906 111.599 84.1199 113.743C84.3547 116.133 85.3251 121.783 85.3616 123.062C85.3981 124.34 85.2103 128.42 85.2103 128.42L83.2695 128.467C83.2695 128.467 81.6417 118.58 81.2191 117.573C80.7965 116.566 78.7044 109.371 78.6314 108.567C78.5635 107.753 82.7999 102.875 82.7999 102.875Z" fill="#DBD8E3"/>
<path d="M74.6401 103.298C74.6401 103.298 73.5758 108.917 73.4349 110.174C73.2941 111.432 73.2002 116.248 73.1323 117.035C73.0645 117.818 72.6628 127.304 72.2871 128.467H74.7653C74.7653 128.467 76.6696 121.575 76.6696 118.314C76.6696 115.053 78.1409 111.223 79.0905 109.073C80.04 106.924 82.2156 106.872 82.7999 102.88C82.7999 102.875 75.4332 102.03 74.6401 103.298Z" fill="#DBD8E3"/>
<path d="M79.6852 84.0865C79.6852 84.0865 77.7288 83.356 76.8262 84.843C75.9236 86.33 76.0123 89.3093 76.9984 89.6797C77.9844 90.0449 79.4661 89.8571 79.967 88.9232C80.473 87.9892 80.9269 86.6431 80.9061 85.7457C80.8852 84.843 80.1965 84.3474 79.6852 84.0865Z" fill="#EEA886"/>
<path d="M77.327 89.5858C77.327 89.5858 77.4053 90.0971 77.2749 90.3528C77.1444 90.6032 79.7322 90.6137 79.7322 90.6137C79.7322 90.6137 79.9409 89.2414 80.3426 88.0779C80.7392 86.9196 77.327 89.5858 77.327 89.5858Z" fill="#EEA886"/>
<path d="M80.3426 88.0779C80.3426 88.0779 80.1652 88.3701 79.4348 88.2605C78.7044 88.1457 77.8122 87.1753 77.5096 87.0709C77.207 86.9666 77.2018 86.7839 77.2018 86.7839L77.0088 87.0605L76.6853 87.0813C76.6853 87.0813 76.9827 86.2152 76.534 85.8604C76.0905 85.5056 76.9983 83.0482 79.3357 83.8673C79.3357 83.8673 81.0104 84.196 81.1148 85.2187C81.2243 86.2987 80.7443 87.5666 80.3426 88.0779Z" fill="#FCCCA2"/>
<path d="M77.1183 90.3215C77.1183 90.3215 77.1287 89.8415 77.3427 89.7945C77.5618 89.7475 79.7583 89.5388 80.0243 89.6432V90.2067C80.0296 90.2015 79.5131 90.5198 77.1183 90.3215Z" fill="#E2D2CA"/>
<path d="M77.2488 86.4083C77.2905 86.2361 77.7235 85.7457 77.8905 86.2726C78.0574 86.7996 77.6401 87.504 77.4053 87.4414C77.1757 87.3788 77.1444 86.8414 77.2488 86.4083Z" fill="#EEA886"/>
<path d="M77.1184 90.3215C77.1184 90.3215 75.9132 90.7545 74.5202 91.3441C74.5202 91.3441 72.9185 91.9441 72.7411 93.7129C72.6472 94.6521 71.6507 99.6401 71.4576 100.063C71.2698 100.485 69.0525 107.263 68.9742 107.404C68.8959 107.545 70.7846 108.327 70.9098 108.265C71.035 108.202 73.0593 102.082 73.2628 101.628C73.2628 101.628 74.4262 97.9548 74.4576 97.4122C74.4576 97.4122 74.4889 98.9722 74.5515 99.4105C74.6141 99.8488 73.5132 108.348 73.5498 108.583C73.5811 108.818 78.5427 109.115 80.5252 108.896C82.513 108.677 84.1147 108.223 84.1147 108.223C84.1147 108.223 82.5548 101.513 82.6017 100.772C82.7061 99.1496 83.2487 96.0973 83.2487 96.0973L84.866 99.1496L82.7948 104.482L83.2695 106.099C83.2695 106.099 87.1199 100.282 87.2451 99.7497C87.3703 99.2175 87.0573 98.5392 86.8538 98.1009C86.6503 97.6626 85.3147 94.3338 85.0017 93.8642C84.6886 93.3946 84.1617 91.5163 82.8834 90.9945C81.8139 90.5563 80.0244 90.2015 80.0244 90.2015L77.1184 90.3215Z" fill="#EDDAD3"/>
<path d="M76.0963 104.165L67.0244 101.838L65.4019 108.166L74.4737 110.493L76.0963 104.165Z" fill="#F25F54"/>
<path d="M68.1916 108.792C68.1916 108.792 67.9307 109.209 67.8368 109.329C67.7429 109.449 68.0716 109.522 68.2072 109.402C68.3481 109.287 68.1916 108.792 68.1916 108.792Z" fill="#C98462"/>
<path d="M70.0803 110.227C70.0803 110.227 70.2316 110.065 70.2681 109.966C70.2681 109.966 70.315 109.773 70.3568 109.642C70.3724 109.6 70.3829 109.564 70.3933 109.538C70.435 109.444 70.5602 109.246 70.602 108.985C70.6437 108.724 70.7533 107.566 70.7533 107.566L70.049 107.388L69.4855 107.268C69.4855 107.268 68.2647 108.484 68.202 108.724C68.1968 108.745 68.1916 108.771 68.1864 108.792C68.1499 108.995 68.2125 109.167 68.202 109.277C68.202 109.319 68.2073 109.72 68.3012 109.799C68.4316 109.903 68.562 109.924 68.6716 109.887C68.6716 109.887 68.9377 110.08 69.1568 110.07C69.1568 110.07 69.3968 110.258 69.6629 110.164C69.6629 110.159 69.9237 110.326 70.0803 110.227Z" fill="#DE9D7D"/>
<path d="M72.8246 102.885C72.8246 102.885 71.2124 107.764 70.9202 108.275C70.9202 108.275 69.7411 108.025 68.9846 107.414L70.7533 102.155L72.8246 102.885Z" fill="#CFA345"/>
<path d="M218.063 110.487C218.063 110.487 224.037 92.9616 212.637 87.5249C201.232 82.0934 191.549 89.9458 189.723 94.1982C187.891 98.4505 188.376 106.178 189.936 111.567C191.496 116.957 191.267 125.159 187.881 127.904C184.49 130.648 180.29 135.203 180.498 144.48C180.629 150.235 203.141 129.761 203.141 129.761L218.063 110.487Z" fill="#252E3B"/>
<path d="M202.035 131.337C202.035 131.337 192.66 133.413 188.94 135.589C185.22 137.765 176.956 147.767 176.956 152.066C176.956 156.366 213.091 160.383 213.091 160.383L219.941 185.386C219.941 185.386 238.207 180.93 240.377 177.231C242.553 173.537 233.443 147.042 231.883 141.678C230.292 136.21 223.744 132.396 216.138 131.326C208.526 130.272 202.035 131.337 202.035 131.337Z" fill="#FF2323"/>
<path d="M215.485 131.253C215.485 131.253 215.277 142.649 206.24 142.988C197.204 143.327 199.088 132.057 199.088 132.057C199.088 132.057 205.693 129.375 215.485 131.253Z" fill="#EEA886"/>
<path d="M219.31 96.8695C219.31 96.8695 222.508 115.194 213.404 128.431C203.976 142.143 219.31 96.8695 219.31 96.8695Z" fill="#252E3B"/>
<path d="M213.55 123.197C213.55 123.197 212.924 128.65 213.972 132.036C215.021 135.427 200.157 135.521 200.167 132.73C200.178 129.563 201.691 126.918 200.267 121.491C198.837 116.065 213.55 123.197 213.55 123.197Z" fill="#EEA886"/>
<path d="M202.02 123.891C202.02 123.891 206.715 128.78 212.715 124.403C212.715 124.403 212.219 127.528 207.905 127.93C203.585 128.332 202.02 123.891 202.02 123.891Z" fill="#A77860"/>
<path d="M207.894 90.5145C207.894 90.5145 219.753 94.026 218.063 110.487C216.367 126.949 208.625 126.104 207.894 126.224C207.169 126.344 197.971 126.949 195.065 106.976C192.159 87.0031 207.894 90.5145 207.894 90.5145Z" fill="#EEA886"/>
<path d="M204.832 97.8557C204.832 97.8557 211.275 108.108 218.063 110.487C218.063 110.487 221.767 93.2851 206.47 89.6797C191.173 86.0744 193.568 107.054 194.71 112.653C194.705 112.653 197.893 104.419 204.832 97.8557Z" fill="#252E3B"/>
<path d="M196.187 96.3113C196.187 96.3113 199.578 89.7424 205.307 89.445C211.035 89.1528 214.442 94.1199 214.442 94.1199C214.442 94.1199 212.204 88.5214 205.312 88.5214C198.425 88.5267 196.187 96.3113 196.187 96.3113Z" fill="#88C0FF"/>
<path d="M219.513 147.991L223.536 185.386H170.591L166.568 147.991H219.513Z" fill="#FFC955"/>
<path d="M222.258 184.102H168.854L164.784 146.243H218.193L222.258 184.102ZM169.266 183.643H221.746L217.776 146.708H165.295L169.266 183.643Z" fill="#FFC955"/>
<path d="M198.336 166.086C198.811 168.413 197.726 170.599 195.91 170.97C194.095 171.34 192.243 169.754 191.763 167.427C191.288 165.1 192.373 162.914 194.189 162.543C196.004 162.173 197.862 163.759 198.336 166.086Z" fill="#CFA345"/>
<path d="M218.528 185.388H228.41V181.626H218.528V185.388Z" fill="#5FA0FF"/>
<path d="M187.813 73.0983C183.321 73.0983 179.669 69.446 179.669 64.9536C179.669 60.4613 183.321 56.809 187.813 56.809C192.305 56.809 195.957 60.4613 195.957 64.9536C195.957 69.4407 192.3 73.0983 187.813 73.0983ZM187.813 57.2681C183.577 57.2681 180.128 60.7169 180.128 64.9536C180.128 69.1903 183.577 72.6391 187.813 72.6391C192.049 72.6391 195.498 69.1903 195.498 64.9536C195.493 60.7169 192.049 57.2681 187.813 57.2681Z" fill="#FF2323"/>
<path d="M44.1712 155.906L44.166 155.213C45.5486 155.202 46.9364 155.16 48.3033 155.098L48.3346 155.792C46.9625 155.859 45.5643 155.896 44.1712 155.906ZM40.0079 155.865C38.6409 155.828 37.2375 155.76 35.8445 155.672L35.8862 154.983C37.274 155.072 38.6618 155.134 40.0235 155.171L40.0079 155.865ZM52.4928 155.515L52.4302 154.826C53.7971 154.706 55.1797 154.56 56.5466 154.383L56.6353 155.072C55.2631 155.249 53.8701 155.395 52.4928 155.515ZM31.6915 155.343C30.2725 155.202 28.8794 155.019 27.5543 154.806L27.6638 154.122C28.9734 154.336 30.3507 154.513 31.7594 154.654L31.6915 155.343ZM60.7569 154.461L60.6422 153.778C61.9778 153.553 63.3447 153.298 64.7116 153.016L64.8525 153.694C63.4751 153.981 62.0978 154.237 60.7569 154.461ZM23.4587 153.981C22.0657 153.642 20.7144 153.251 19.4414 152.812L19.6657 152.16C20.9127 152.588 22.2431 152.974 23.6204 153.308L23.4587 153.981ZM68.9167 152.792L68.755 152.118C70.028 151.816 71.3375 151.482 72.7723 151.101L72.9497 151.769C71.5097 152.15 70.1898 152.484 68.9167 152.792ZM15.565 151.237C14.2659 150.616 13.0398 149.927 11.9077 149.176L12.2885 148.597C13.3894 149.327 14.5893 150 15.8624 150.605L15.565 151.237ZM76.9566 150.663L76.7687 149.995C77.3478 149.833 77.9217 149.671 78.4904 149.51C79.2574 149.291 80.0191 149.077 80.7652 148.868L80.953 149.536C80.2069 149.744 79.4452 149.958 78.6782 150.178C78.1096 150.339 77.5409 150.501 76.9566 150.663ZM113.055 150.084C111.777 149.478 110.498 148.946 109.251 148.503L109.486 147.851C110.754 148.304 112.053 148.847 113.352 149.458L113.055 150.084ZM84.9546 148.456L84.7825 147.783C86.2746 147.402 87.5998 147.094 88.8415 146.833L88.9823 147.511C87.7563 147.772 86.4363 148.08 84.9546 148.456ZM105.307 147.339C103.972 147.031 102.605 146.802 101.253 146.666L101.321 145.977C102.699 146.118 104.092 146.348 105.458 146.661L105.307 147.339ZM93.0518 146.828L92.9631 146.139C94.4135 145.951 95.7804 145.847 97.1369 145.816L97.1526 146.51C95.8222 146.546 94.4813 146.645 93.0518 146.828ZM8.59993 146.588C7.56169 145.623 6.61736 144.574 5.78782 143.457L6.34085 143.045C7.14431 144.125 8.06255 145.143 9.06948 146.082L8.59993 146.588ZM3.59657 139.868C2.99136 138.631 2.48007 137.311 2.08356 135.944L2.74615 135.751C3.13223 137.081 3.62787 138.365 4.21742 139.565L3.59657 139.868ZM1.22271 131.827C1.04532 130.486 0.946196 129.072 0.940979 127.638L1.63487 127.632C1.64009 129.041 1.734 130.419 1.91139 131.733L1.22271 131.827ZM1.83835 123.526L1.14967 123.458C1.29054 122.102 1.49923 120.709 1.77052 119.316L2.44877 119.451C2.17747 120.818 1.974 122.19 1.83835 123.526ZM3.4244 115.439L2.75659 115.246C3.46092 112.814 4.09221 111.333 4.11829 111.27L4.7548 111.541C4.74958 111.557 4.11308 113.049 3.4244 115.439Z" fill="#C2BEBC"/>
<path d="M223.426 31.3994C223.416 31.389 222.258 30.3611 220.186 28.8219L220.598 28.2636C222.696 29.8237 223.875 30.8672 223.885 30.8776L223.426 31.3994ZM216.8 26.4375C215.663 25.6757 214.484 24.9296 213.299 24.22L213.654 23.6252C214.849 24.34 216.033 25.0966 217.181 25.8583L216.8 26.4375ZM209.705 22.1695C208.489 21.5121 207.247 20.8807 206.016 20.2912L206.314 19.6651C207.555 20.2599 208.807 20.8964 210.033 21.559L209.705 22.1695ZM202.239 18.5954C200.961 18.058 199.662 17.5572 198.383 17.098L198.618 16.4458C199.912 16.905 201.221 17.4163 202.51 17.9537L202.239 18.5954ZM149.623 17.7502L149.607 17.0563C150.948 17.025 152.325 16.8997 153.692 16.6754L153.802 17.3589C152.404 17.5885 150.995 17.7189 149.623 17.7502ZM145.433 17.5311C144.082 17.3641 142.694 17.0876 141.317 16.7223L141.494 16.0545C142.84 16.4145 144.197 16.6806 145.517 16.8476L145.433 17.5311ZM157.892 16.4145L157.699 15.7519C158.143 15.6214 158.596 15.4806 159.045 15.3292C159.911 15.0371 160.793 14.7657 161.669 14.5205L161.857 15.1884C160.991 15.4336 160.12 15.6997 159.264 15.9867C158.805 16.138 158.346 16.2841 157.892 16.4145ZM194.444 15.8197C193.114 15.4284 191.768 15.0736 190.448 14.7657L190.604 14.0927C191.94 14.4005 193.302 14.7605 194.643 15.1571L194.444 15.8197ZM137.341 15.4127C136.12 14.9379 134.874 14.3849 133.517 13.7327L133.82 13.1118C135.155 13.7588 136.392 14.3014 137.592 14.771L137.341 15.4127ZM165.864 14.2179L165.728 13.5396C167.085 13.2683 168.473 13.0439 169.855 12.8718L169.939 13.5605C168.577 13.7274 167.205 13.9466 165.864 14.2179ZM186.394 13.9622C185.027 13.7379 183.65 13.5553 182.298 13.4248L182.366 12.7361C183.733 12.8666 185.126 13.0492 186.509 13.2787L186.394 13.9622ZM64.7065 13.3048L64.3309 12.7257C65.5152 11.9587 66.7047 11.2126 67.863 10.5134L68.223 11.1082C67.0699 11.7969 65.8856 12.5378 64.7065 13.3048ZM174.05 13.2109L174.019 12.517C175.396 12.4544 176.799 12.4387 178.198 12.4752L178.182 13.1692C176.794 13.1326 175.412 13.1483 174.05 13.2109ZM129.813 11.8126C128.639 11.1761 127.475 10.5186 126.182 9.78818L126.521 9.18294C127.809 9.9134 128.973 10.5656 130.141 11.2021L129.813 11.8126ZM71.802 9.03163L71.4681 8.42639C72.7098 7.74289 73.9515 7.09069 75.1567 6.49067L75.4645 7.11156C74.2698 7.70636 73.0385 8.35334 71.802 9.03163ZM122.561 7.76897C121.204 7.02808 120.004 6.39675 118.898 5.83847L119.206 5.21758C120.323 5.77586 121.533 6.4124 122.895 7.15852L122.561 7.76897ZM79.2157 5.36367L78.9392 4.72712C80.2435 4.15841 81.5479 3.63665 82.8157 3.17751L83.0557 3.8297C81.7983 4.28363 80.5096 4.80017 79.2157 5.36367ZM115.147 4.10102C113.822 3.53752 112.559 3.06794 111.286 2.65053L111.5 1.99311C112.789 2.41574 114.067 2.89576 115.413 3.46447L115.147 4.10102ZM86.9738 2.54096L86.7808 1.87311C88.1477 1.48179 89.5094 1.14265 90.8398 0.876553L90.9755 1.55484C89.6711 1.82094 88.3251 2.15486 86.9738 2.54096ZM107.321 1.57049C105.975 1.27831 104.613 1.05395 103.262 0.907858L103.335 0.219137C104.707 0.36523 106.1 0.589586 107.467 0.892205L107.321 1.57049ZM95.0501 0.923514L94.9771 0.234793C96.3805 0.0834836 97.784 0.00521758 99.1561 0V0.693939C97.8101 0.699156 96.4275 0.777421 95.0501 0.923514Z" fill="#C2BEBC"/>
<path d="M137.148 157.686L119.743 152.625L124.961 151.049L137.148 157.686Z" fill="#D6D6D6"/>
<path d="M137.148 157.686L130.642 151.148L126.641 151.962L137.148 157.686Z" fill="#E8E8E8"/>
<path d="M123.75 153.788L123.886 155.802L137.148 157.686L123.75 153.788Z" fill="#C2C2C2"/>
<path d="M49.5504 24.8148L64.8943 16.2371L59.6197 15.8875L49.5504 24.8148Z" fill="#D6D6D6"/>
<path d="M49.5504 24.8148L54.272 17.2232L58.2319 17.1189L49.5504 24.8148Z" fill="#E8E8E8"/>
<path d="M61.3622 18.2094L61.6701 20.1451L49.5504 24.8148L61.3622 18.2094Z" fill="#C2C2C2"/>
<defs>
<linearGradient id="paint0_linear" x1="202.841" y1="117.527" x2="283.392" y2="117.527" gradientUnits="userSpaceOnUse">
<stop stop-color="#6F0C00"/>
<stop offset="1" stop-color="#FF2323"/>
</linearGradient>
<linearGradient id="paint1_linear" x1="44.6648" y1="68.0254" x2="104.499" y2="61.8787" gradientUnits="userSpaceOnUse">
<stop stop-color="#6F0C00"/>
<stop offset="1" stop-color="#FF2323"/>
</linearGradient>
</defs>
</svg>
