<svg width="866" height="206" viewBox="0 0 866 206" fill="none" xmlns="http://www.w3.org/2000/svg">
<path d="M193.947 0.00509757C195.133 1.77223 194.843 3.73797 194.818 5.70371C194.746 10.7352 194.787 15.7667 194.787 20.7982C194.787 22.769 194.823 24.7347 194.818 26.7056C194.812 28.2843 194.359 28.7579 192.918 29.3843C190.758 30.3213 188.649 31.3857 186.52 32.3889C184.849 33.1782 183.168 33.9523 181.497 34.7468C179.796 35.5565 178.1 36.3917 176.393 37.1912C174.794 37.9449 173.205 38.719 171.57 39.3861C170.663 39.7528 170.694 40.4403 170.857 41.0921C171.233 42.5945 171.722 44.0713 172.176 45.5584C172.303 45.9759 172.522 46.3732 172.594 46.7958C172.95 48.9449 173.052 51.1602 173.653 53.2329C174.529 56.263 174.524 59.3491 174.738 62.425C174.947 65.3685 175.278 68.3171 175.196 71.2556C175.064 76.3533 174.809 81.456 174.305 86.5283C173.989 89.6958 173.2 92.8227 172.492 95.9394C171.998 98.119 171.356 100.278 170.643 102.397C169.955 104.444 169.114 106.445 168.299 108.452C167.316 110.856 166.354 113.275 165.248 115.622C164.275 117.685 163.145 119.681 162.034 121.672C161.01 123.506 159.961 125.324 158.84 127.096C157.893 128.598 156.823 130.029 155.815 131.496C151.083 138.366 145.352 144.36 139.53 150.298C136.907 152.971 134.574 155.925 132.108 158.757C131.548 159.398 130.998 160.05 130.438 160.697C130.514 160.804 130.59 160.911 130.667 161.018C131.044 160.829 131.467 160.702 131.787 160.442C134.828 157.957 137.859 155.451 140.885 152.946C142.067 151.968 143.147 151.983 144.456 152.752C145.765 153.526 147.171 154.138 148.551 154.789C150.843 155.879 153.151 156.944 155.453 158.013C157.231 158.838 159.024 159.622 160.791 160.468C162.391 161.232 163.949 162.077 165.544 162.846C166.98 163.538 168.437 164.185 169.894 164.842C171.549 165.586 173.215 166.304 174.865 167.063C176.674 167.898 178.477 168.753 180.275 169.619C182.404 170.643 184.513 171.702 186.647 172.705C188.354 173.51 190.055 174.335 191.817 175.007C194.456 176.015 195.093 177.024 194.884 179.87C194.767 181.464 194.868 183.074 194.879 184.678C194.914 190.728 194.965 196.778 194.991 202.828C195.001 205.542 194.517 205.797 192.087 204.595C187.6 202.38 183.082 200.22 178.589 198.02C175.176 196.35 171.789 194.634 168.371 192.974C165.605 191.629 162.798 190.371 160.037 189.017C157.266 187.662 154.551 186.206 151.775 184.856C148.872 183.445 145.923 182.126 143.009 180.736C141.048 179.799 139.112 178.801 137.166 177.838C135.516 177.024 133.85 176.229 132.205 175.404C130.01 174.299 127.83 173.158 125.629 172.063C124.137 171.325 122.609 170.658 121.111 169.925C117.688 168.254 114.28 166.548 110.852 164.878C107.944 163.462 105.015 162.092 102.106 160.687C100.018 159.673 97.9548 158.619 95.8714 157.6C93.6302 156.5 91.3788 155.426 89.1375 154.331C87.1204 153.343 85.1134 152.34 83.1014 151.347C80.8907 150.252 78.6902 149.147 76.4744 148.067C73.6983 146.713 70.9121 145.388 68.1309 144.039C65.1256 142.582 62.1152 141.126 59.12 139.644C56.9705 138.585 54.8515 137.469 52.7019 136.41C50.6237 135.382 48.5199 134.404 46.4366 133.38C44.2208 132.295 42.0254 131.17 39.8096 130.085C37.5938 129.006 35.3628 127.967 33.147 126.892C31.191 125.94 29.2401 124.967 27.2943 123.989C25.1192 122.9 22.9391 121.825 20.7845 120.694C16.74 118.566 12.6294 116.539 8.70718 114.201C5.96674 112.567 3.75605 110.188 2.21265 107.377C0.618304 104.48 0.302492 101.455 1.41293 98.1699C2.72202 94.2995 5.22306 91.4273 8.27421 88.9727C9.84309 87.7097 11.687 86.7727 13.4647 85.7898C15.5226 84.6491 17.6314 83.5949 19.7453 82.5509C22.5724 81.1556 25.4351 79.8213 28.2672 78.4412C30.4473 77.3769 32.6121 76.2718 34.7923 75.2074C37.5735 73.8528 40.3699 72.5338 43.1562 71.1894C44.9186 70.3389 46.6607 69.4579 48.4282 68.6176C49.8341 67.9505 51.2655 67.3343 52.6764 66.6671C55.6002 65.2921 58.519 63.8917 61.4377 62.5116C63.0117 61.7681 64.6009 61.0449 66.18 60.2963C68.411 59.2422 70.637 58.188 72.8579 57.1236C75.1857 56.0083 77.5034 54.8778 79.8363 53.7676C82.7805 52.3621 85.7247 50.9616 88.6791 49.5815C91.6436 48.1963 94.6235 46.857 97.588 45.4718C99.7529 44.4583 101.902 43.4042 104.062 42.3806C106.329 41.306 108.601 40.2366 110.873 39.1671C113.852 37.7667 116.827 36.3509 119.812 34.9708C122.68 33.6417 125.573 32.3634 128.436 31.0241C130.703 29.9648 132.934 28.8343 135.195 27.7699C137.594 26.6394 140.024 25.575 142.423 24.4444C145.204 23.1306 147.96 21.7607 150.741 20.4468C152.382 19.6676 154.052 18.9546 155.703 18.1958C157.878 17.1926 160.048 16.1843 162.212 15.1657C163.919 14.3662 165.625 13.5514 167.327 12.7417C169.028 11.932 170.724 11.1069 172.431 10.3125C173.877 9.64028 175.339 8.99863 176.791 8.33659C178.477 7.56251 180.153 6.77316 181.834 5.99399C184.202 4.89908 186.586 3.82455 188.95 2.71436C190.299 2.08288 191.634 1.42085 192.953 0.728253C193.203 0.595845 193.34 0.249537 193.529 0C193.651 0.00509259 193.799 0.00509757 193.947 0.00509757ZM155.351 97.9306C155.295 97.9204 155.234 97.9102 155.178 97.9C155.178 95.1704 155.305 92.4357 155.142 89.7111C154.959 86.5945 154.572 83.4829 154.164 80.3866C153.92 78.5227 153.466 76.6894 153.09 74.8458C152.881 73.8222 152.657 72.7986 152.387 71.7954C152.035 70.5019 151.643 69.2236 151.251 67.9403C150.848 66.6264 150.497 65.2921 150.008 64.0088C149.244 62.0176 148.434 60.0366 147.553 58.0963C146.789 56.4158 145.897 54.7912 145.047 53.1463C144.715 52.5097 144.252 52.4384 143.59 52.7644C142.067 53.513 140.498 54.1852 138.954 54.8931C137.314 55.6468 135.674 56.4157 134.039 57.1796C131.742 58.2542 129.439 59.3287 127.147 60.4084C125.512 61.1824 123.877 61.9667 122.247 62.7459C120.714 63.4792 119.191 64.2278 117.652 64.9408C115.452 65.9695 113.226 66.9523 111.03 67.9912C108.779 69.0556 106.553 70.181 104.307 71.2556C102.575 72.0806 100.823 72.8547 99.0907 73.6797C97.0277 74.6625 94.9851 75.6912 92.912 76.6639C91.2412 77.4482 89.5399 78.156 87.8641 78.9403C86.1628 79.7347 84.4869 80.5903 82.7907 81.4C81.2524 82.1333 79.6937 82.8361 78.1503 83.5593C75.8224 84.6491 73.4997 85.744 71.1718 86.8338C69.6335 87.557 68.0952 88.2699 66.5569 88.9931C64.8199 89.813 63.0932 90.6482 61.3511 91.463C59.8433 92.1709 58.3152 92.838 56.8126 93.556C55.2488 94.3046 53.7207 95.1246 52.1518 95.8579C50.5167 96.6218 48.8307 97.2889 47.1956 98.0579C45.4586 98.8727 43.7624 99.7741 42.0356 100.609C41.19 101.017 40.2884 101.317 39.4632 101.755C39.0812 101.959 38.8163 102.376 38.4954 102.697C38.8011 102.988 39.071 103.339 39.4225 103.563C39.9421 103.889 40.5177 104.123 41.0729 104.388C42.5399 105.091 43.9916 105.819 45.4739 106.486C47.1192 107.23 48.8103 107.876 50.4454 108.635C52.7121 109.689 54.9381 110.83 57.1997 111.9C60.2457 113.341 63.3122 114.736 66.3582 116.172C68.4569 117.165 70.5198 118.214 72.6185 119.202C74.549 120.109 76.505 120.959 78.4406 121.85C79.8567 122.507 81.2575 123.205 82.6735 123.862C85.5362 125.181 88.4244 126.459 91.2769 127.804C94.165 129.169 97.0073 130.625 99.8904 131.99C103.161 133.538 106.461 135.01 109.737 136.543C114.24 138.646 118.727 140.78 123.22 142.893C126.765 144.558 130.315 146.213 133.856 147.879C134.808 148.327 135.791 148.077 136.392 147.196C137.89 145.012 139.464 142.868 140.849 140.617C142.617 137.744 144.257 134.796 145.902 131.852C146.661 130.493 147.339 129.082 147.975 127.661C148.816 125.777 149.667 123.888 150.349 121.942C151.154 119.651 151.806 117.308 152.473 114.97C152.998 113.127 153.599 111.283 153.889 109.394C154.475 105.595 154.872 101.755 155.351 97.9306Z" fill="white"/>
<path d="M756.969 139.379C755.538 139.43 754.106 139.527 752.675 139.522C749.868 139.512 747.051 139.593 744.26 139.364C740.679 139.074 737.113 138.519 733.543 138.076C733.003 138.009 732.453 137.984 731.918 137.877C731.037 137.699 730.161 137.505 729.3 137.261C728.047 136.909 726.824 136.456 725.566 136.135C722.153 135.259 719.102 133.609 716.066 131.893C713 130.157 710.285 127.982 707.779 125.527C704.977 122.788 702.491 119.783 700.647 116.335C699.257 113.738 698.106 111.008 696.944 108.294C695.997 106.069 695.554 103.695 695.014 101.338C694.52 99.1681 694.402 97.0343 694.346 94.8597C694.295 92.9806 694.917 92.3593 696.807 92.3746C701.218 92.4051 705.629 92.4866 710.04 92.4764C715.032 92.4662 720.029 92.451 725.021 92.3084C728.403 92.2116 731.24 90.8213 733.171 87.9644C734.567 85.8968 735.433 83.6153 735.56 81.0639C735.606 80.1014 736.171 79.1593 736.166 78.207C736.151 75.3653 735.738 72.544 734.449 69.9824C732.916 66.9269 730.303 65.0324 727.15 63.7847C724.282 62.6491 721.277 62.7611 718.312 62.7509C703.678 62.6949 689.049 62.7255 674.415 62.7204C673.543 62.7204 672.667 62.6134 671.796 62.5778C670.319 62.5167 669.774 62.9852 669.774 64.4672C669.764 70.9551 669.789 77.4431 669.789 83.9362C669.789 100.742 669.784 117.547 669.779 134.353C669.779 135.371 669.82 136.395 669.82 137.413C669.815 138.809 669.122 139.507 667.742 139.501C664.314 139.491 660.891 139.466 657.463 139.435C656.25 139.425 655.787 138.982 655.782 137.658C655.771 134.052 655.833 130.442 655.833 126.836C655.843 111.416 655.838 95.9954 655.838 80.575C655.838 72.4829 655.843 64.3908 655.827 56.2986C655.822 55.0306 655.746 53.7676 655.654 52.5046C655.537 50.8954 656.199 50.1417 657.814 50.1417C680.547 50.1366 703.281 50.1315 726.019 50.1417C728.49 50.1417 730.782 50.9565 733.089 51.7764C735.565 52.6523 737.709 54.0528 739.671 55.6722C742.492 58.0046 744.841 60.8056 746.46 64.1259C747.393 66.0408 748.529 67.9352 749.033 69.9723C749.975 73.7815 750.653 77.6824 749.664 81.6394C749.517 82.2403 749.471 82.8667 749.313 83.4625C748.921 84.9597 748.559 86.4672 748.055 87.9287C747.703 88.9422 747.153 89.8843 746.664 90.8468C744.647 94.8445 741.907 98.1343 738.02 100.548C735.285 102.249 732.412 103.415 729.32 104.072C725.408 104.907 721.42 104.811 717.441 104.75C715.913 104.724 714.385 104.739 712.852 104.765C711.757 104.785 711.37 105.31 711.828 106.338C712.404 107.627 713.071 108.885 713.799 110.092C715.144 112.327 716.433 114.619 717.971 116.717C720.752 120.511 723.87 123.979 727.654 126.887C730.675 129.204 733.833 131.231 737.231 132.881C739.115 133.798 741.122 134.48 743.114 135.152C747.006 136.456 751.035 137.205 755.074 137.923C755.782 138.05 756.424 138.534 757.096 138.855C757.061 139.023 757.015 139.201 756.969 139.379Z" fill="white"/>
<path d="M436.103 87.6283C436.103 75.9255 436.103 64.2227 436.103 52.5149C436.103 50.4473 436.455 50.1264 438.538 50.1315C441.676 50.1366 444.814 50.1366 447.956 50.1061C449.877 50.0908 450.417 50.5695 450.422 52.5352C450.427 54.2056 450.34 55.8811 450.335 57.5514C450.31 63.9274 450.305 70.3084 450.289 76.6843C450.259 92.4 450.223 108.111 450.193 123.826C450.188 127.437 450.188 131.048 450.208 134.653C450.213 135.601 450.32 136.543 450.371 137.49C450.447 138.86 449.795 139.578 448.471 139.578C443.836 139.583 439.2 139.644 434.57 139.527C433.75 139.507 432.772 138.895 432.171 138.264C429.492 135.432 426.935 132.484 424.316 129.601C422.406 127.498 420.44 125.441 418.54 123.327C413.344 117.557 408.185 111.757 402.989 105.987C399.989 102.657 396.943 99.3616 393.948 96.0311C389.659 91.2644 385.4 86.4672 381.106 81.7005C377.714 77.9371 374.286 74.2042 370.883 70.4561C370.588 70.1352 370.363 69.7431 370.037 69.4579C369.788 69.2338 369.436 69.1269 369.131 68.969C369.003 69.2848 368.774 69.5954 368.769 69.9111C368.733 72.3556 368.733 74.795 368.728 77.2394C368.713 96.1278 368.698 115.011 368.688 133.9C368.688 135.101 368.749 136.303 368.749 137.51C368.744 138.941 368.092 139.639 366.701 139.639C363.232 139.649 359.768 139.608 356.3 139.613C355.164 139.619 354.563 139.018 354.496 137.984C354.41 136.685 354.481 135.371 354.486 134.068C354.496 126.923 354.491 119.773 354.517 112.628C354.583 93.3778 354.664 74.1329 354.731 54.8829C354.731 54.2311 354.598 53.5843 354.542 52.9324C354.41 51.3792 354.721 50.0399 356.829 50.1112C360.364 50.2334 363.91 50.101 367.45 50.1672C368.076 50.1774 368.866 50.4524 369.284 50.8903C371.856 53.5741 374.367 56.3139 376.853 59.0792C382.97 65.8829 389.073 72.6968 395.165 79.5209C400.045 84.9852 404.889 90.4801 409.769 95.9445C413.844 100.513 417.965 105.045 422.024 109.628C426.227 114.375 430.378 119.167 434.575 123.918C434.855 124.234 435.339 124.361 435.726 124.58C435.854 124.188 436.093 123.791 436.098 123.399C436.124 116.911 436.119 110.418 436.119 103.93C436.119 98.4959 436.119 93.0621 436.119 87.6334C436.108 87.6283 436.103 87.6283 436.103 87.6283Z" fill="white"/>
<path d="M334.702 139.588C333.062 139.588 331.401 139.45 329.782 139.624C327.739 139.843 326.669 138.778 325.819 137.194C324.408 134.572 323.002 131.949 321.575 129.337C319.609 125.736 317.638 122.136 315.657 118.54C313.92 115.393 312.137 112.266 310.42 109.109C308.113 104.867 305.861 100.594 303.559 96.3468C302.275 93.9838 300.92 91.6565 299.621 89.2986C297.92 86.2074 296.26 83.1009 294.558 80.0097C293.458 78.0033 292.312 76.0222 291.212 74.0208C290.809 73.2926 290.539 72.488 290.096 71.7852C289.653 71.0875 289.077 71.1741 288.685 71.9074C287.208 74.6523 285.736 77.3921 284.259 80.1371C281.972 84.3843 279.71 88.6417 277.387 92.8685C275.431 96.4283 273.389 99.9421 271.428 103.497C269.813 106.415 268.269 109.374 266.68 112.307C265.346 114.762 263.986 117.201 262.651 119.661C261.479 121.82 260.338 124 259.167 126.164C258.199 127.951 257.185 129.713 256.218 131.501C255.112 133.543 254.002 135.58 252.968 137.653C252.295 139.002 251.328 139.725 249.799 139.715C246.01 139.695 242.215 139.7 238.425 139.69C236.734 139.685 236.067 138.743 236.821 137.256C238.206 134.5 239.668 131.781 241.12 129.062C242.847 125.828 244.578 122.599 246.341 119.381C247.39 117.471 248.521 115.607 249.57 113.692C250.879 111.304 252.122 108.88 253.426 106.486C255.133 103.359 256.89 100.263 258.601 97.1412C259.63 95.2671 260.603 93.3625 261.622 91.4833C262.987 88.9574 264.373 86.4417 265.748 83.9259C266.762 82.0773 267.74 80.2134 268.794 78.3852C270.623 75.2176 272.538 72.0958 274.341 68.913C275.457 66.9371 276.389 64.8542 277.479 62.8579C278.533 60.9176 279.695 59.0384 280.785 57.1185C281.753 55.4176 282.629 53.6607 283.653 51.9954C285.537 48.9195 289.144 47.8551 292.322 49.2912C293.636 49.882 294.823 51.1195 295.648 52.3417C297.35 54.8676 298.801 57.5667 300.289 60.2301C302.377 63.9732 304.399 67.7468 306.447 71.5153C308.062 74.4843 309.661 77.4584 311.276 80.4222C313.303 84.1551 315.336 87.8829 317.368 91.6157C318.967 94.5491 320.572 97.4875 322.182 100.416C324.24 104.174 326.313 107.922 328.36 111.686C330.026 114.751 331.651 117.838 333.322 120.903C335.303 124.534 337.31 128.145 339.307 131.771C340.254 133.487 341.212 135.193 342.134 136.919C342.939 138.432 342.226 139.613 340.519 139.624C338.584 139.634 336.653 139.629 334.717 139.629C334.702 139.619 334.702 139.603 334.702 139.588Z" fill="white"/>
<path d="M643.75 139.486C640.179 139.486 636.609 139.507 633.033 139.476C631.861 139.466 631.016 138.895 630.43 137.811C628.718 134.658 626.915 131.557 625.194 128.41C623.89 126.021 622.687 123.577 621.378 121.188C619.708 118.143 617.96 115.144 616.274 112.108C615.2 110.178 614.181 108.218 613.121 106.277C612.026 104.271 610.911 102.28 609.816 100.278C608.807 98.4347 607.829 96.5709 606.82 94.7273C604.783 91.0046 602.705 87.3074 600.688 83.5745C598.986 80.4273 597.341 77.2445 595.67 74.0769C595.314 73.4046 594.977 72.7171 594.585 72.0653C593.882 70.8889 593.19 70.8685 592.497 72.0296C591.83 73.15 591.208 74.306 590.592 75.4569C589.481 77.5296 588.407 79.6176 587.286 81.6852C585.284 85.3824 583.277 89.0745 581.25 92.7565C579.61 95.7356 577.908 98.6792 576.278 101.663C575.153 103.716 574.119 105.819 573.013 107.887C572.035 109.71 571.006 111.497 570.018 113.315C568.286 116.498 566.575 119.691 564.833 122.869C563.213 125.818 561.552 128.741 559.933 131.694C558.786 133.788 557.686 135.901 556.555 138.004C556.036 138.972 555.241 139.583 554.115 139.578C550.978 139.568 547.84 139.517 544.707 139.496C543.908 139.491 543.108 139.563 542.308 139.573C540.979 139.583 540.367 138.829 540.882 137.612C541.529 136.089 542.334 134.633 543.103 133.161C543.953 131.526 544.819 129.902 545.706 128.293C546.597 126.678 547.539 125.094 548.426 123.475C550.509 119.661 552.562 115.821 554.65 112.006C556.352 108.9 558.119 105.824 559.81 102.713C560.931 100.65 561.929 98.5162 563.06 96.4588C564.074 94.6204 565.225 92.8583 566.254 91.0301C567.329 89.1102 568.312 87.1445 569.356 85.2093C570.456 83.1671 571.587 81.1454 572.697 79.1083C573.966 76.7912 575.214 74.4588 576.492 72.1468C578.245 68.9792 580.032 65.8319 581.774 62.6542C582.87 60.6579 583.858 58.6005 584.978 56.6195C586.069 54.6995 587.067 52.6727 588.468 51.0023C590.113 49.0366 592.364 48.344 595.049 48.894C597.825 49.4644 599.165 51.4963 600.438 53.6046C601.976 56.1458 603.347 58.794 604.768 61.4065C606.097 63.856 607.365 66.3361 608.705 68.7806C610.727 72.4676 612.806 76.1292 614.823 79.8213C616.504 82.9023 618.118 86.0241 619.789 89.1051C621.343 91.9722 622.957 94.8088 624.511 97.6759C625.718 99.8963 626.844 102.162 628.056 104.383C629.376 106.802 630.776 109.175 632.106 111.589C633.766 114.604 635.371 117.649 637.021 120.669C638.723 123.77 640.465 126.851 642.171 129.953C643.45 132.27 644.743 134.582 645.945 136.935C646.791 138.59 645.925 139.583 643.75 139.486Z" fill="white"/>
<path d="M858.666 139.4C856.694 139.4 854.723 139.43 852.757 139.389C851.621 139.364 850.872 138.834 850.317 137.729C849.084 135.275 847.658 132.917 846.329 130.508C845.244 128.542 844.189 126.561 843.109 124.595C842.31 123.139 841.474 121.703 840.675 120.246C839.371 117.863 838.087 115.469 836.788 113.086C835.112 110.005 833.426 106.934 831.755 103.848C830.344 101.246 828.969 98.6232 827.543 96.031C826.483 94.101 825.342 92.2065 824.273 90.2815C823.269 88.4787 822.306 86.6505 821.328 84.8324C819.923 82.2301 818.501 79.6329 817.106 77.0255C816.275 75.4671 815.517 73.8681 814.64 72.3403C814.34 71.8208 813.764 71.4593 813.316 71.0264C812.939 71.4695 812.481 71.8667 812.206 72.3607C811.462 73.6797 810.815 75.0495 810.097 76.3787C808.996 78.4158 807.871 80.4426 806.745 82.4695C805.329 85.0209 803.887 87.557 802.492 90.1135C801.402 92.1098 800.393 94.157 799.303 96.1533C797.984 98.5672 796.593 100.945 795.269 103.359C794.474 104.806 793.756 106.303 792.972 107.754C791.988 109.572 790.96 111.365 789.966 113.173C788.571 115.709 787.185 118.25 785.789 120.781C784.643 122.854 783.482 124.916 782.341 126.994C781.348 128.807 780.38 130.63 779.402 132.448C778.363 134.388 777.369 136.349 776.274 138.259C775.78 139.114 774.975 139.522 773.89 139.512C770.106 139.481 766.321 139.522 762.531 139.568C761.436 139.583 760.662 138.967 760.917 137.913C761.192 136.772 761.686 135.656 762.241 134.618C763.214 132.794 764.36 131.063 765.338 129.245C767.004 126.149 768.567 123.001 770.223 119.905C771.364 117.771 772.617 115.694 773.783 113.575C775.862 109.796 777.899 105.997 779.972 102.219C781.745 98.9898 783.568 95.7815 785.336 92.5477C786.966 89.5634 788.53 86.5435 790.16 83.5593C792.192 79.8468 794.286 76.1699 796.308 72.4523C798.264 68.857 800.133 65.2158 802.105 61.6306C803.811 58.5241 805.66 55.4991 807.336 52.3824C808.324 50.5491 809.74 49.5153 811.742 48.9806C814.37 48.2778 816.566 48.9857 818.262 50.8954C819.474 52.2551 820.361 53.9204 821.288 55.5144C822.75 58.0199 824.14 60.5662 825.531 63.1125C826.881 65.5824 828.174 68.088 829.514 70.563C831.154 73.5931 832.835 76.5977 834.481 79.6278C835.637 81.7565 836.747 83.9056 837.909 86.0343C839.192 88.3922 840.517 90.7296 841.81 93.0875C843.221 95.6593 844.612 98.2463 846.023 100.818C847.658 103.802 849.314 106.781 850.949 109.766C852.375 112.373 853.765 114.996 855.202 117.598C856.292 119.564 857.464 121.484 858.533 123.46C859.832 125.843 861.029 128.282 862.328 130.666C863.418 132.667 864.666 134.587 865.69 136.624C866.026 137.291 866.046 138.254 865.848 138.977C865.761 139.282 864.737 139.45 864.131 139.471C862.308 139.532 860.484 139.491 858.661 139.491C858.666 139.445 858.666 139.425 858.666 139.4Z" fill="white"/>
<path d="M510.304 50.101C525.081 50.101 539.863 50.101 554.64 50.101C556.239 50.101 556.708 50.4829 556.718 52.0667C556.749 55.7436 556.739 59.4255 556.713 63.1023C556.703 64.6454 556.352 64.9357 554.553 64.9357C547.071 64.9459 539.593 64.9357 532.11 64.9357C527.842 64.9357 523.573 64.9204 519.305 64.9306C517.659 64.9357 517.537 65.0732 517.537 66.657C517.552 90.2051 517.568 113.753 517.588 137.307C517.588 139.13 517.125 139.573 515.332 139.563C512.051 139.552 508.776 139.563 505.496 139.583C504.064 139.588 503.422 138.926 503.433 137.388C503.463 132.285 503.519 127.182 503.519 122.08C503.509 104.582 503.478 87.0885 503.463 69.5903C503.463 68.7551 503.519 67.9148 503.57 67.0797C503.677 65.2972 503.356 64.9306 501.578 64.9306C498.11 64.9306 494.646 64.9357 491.177 64.9408C482.782 64.9561 474.393 64.9764 465.999 64.9917C463.895 64.9968 463.492 64.6047 463.533 62.5014C463.579 60.281 463.696 58.0607 463.722 55.8403C463.737 54.6792 463.605 53.513 463.569 52.3519C463.528 50.8598 464.267 50.1111 465.744 50.1111C480.597 50.1111 495.446 50.1111 510.299 50.1111C510.304 50.1061 510.304 50.106 510.304 50.101Z" fill="white"/>
<path d="M407.298 171.738C407.65 178.572 401.119 182.962 395.761 182.906C388.925 182.834 383.424 178.088 383.694 171.05C383.923 165.082 388.553 160.096 395.827 160.208C402.683 160.31 407.507 165.321 407.298 171.738ZM395.618 179.468C399.54 179.575 403.931 175.287 403.814 171.203C403.702 167.261 400.106 163.717 395.71 163.574C391.645 163.442 387.519 166.92 387.484 171.468C387.453 175.914 391.604 179.412 395.618 179.468Z" fill="white"/>
<path d="M352.444 171.763C352.444 174.895 352.474 178.032 352.418 181.164C352.408 181.709 352.041 182.249 351.837 182.794C351.313 182.524 350.681 182.366 350.284 181.969C347.258 178.918 344.258 175.837 341.298 172.726C340.198 171.57 339.246 170.271 338.176 169.084C337.916 168.794 337.453 168.682 337.086 168.488C336.969 168.881 336.75 169.273 336.75 169.665C336.775 173.382 336.847 177.1 336.887 180.818C336.903 182.264 336.256 182.957 334.911 182.997C333.734 183.033 332.929 182.264 332.919 180.904C332.899 177.915 332.975 174.926 332.965 171.941C332.955 168.662 332.894 165.382 332.858 162.102C332.858 161.955 332.817 161.797 332.863 161.67C333.031 161.181 333.225 160.702 333.413 160.223C333.918 160.447 334.539 160.549 334.906 160.916C338.13 164.134 341.334 167.373 344.487 170.663C345.312 171.524 345.908 172.603 346.688 173.51C347.034 173.907 347.584 174.131 348.038 174.432C348.206 173.953 348.521 173.479 348.526 173.001C348.547 169.431 348.577 165.856 348.45 162.286C348.389 160.615 350.263 159.719 351.522 160.427C352.255 160.839 352.393 161.43 352.393 162.158C352.388 165.367 352.393 168.57 352.393 171.778C352.413 171.763 352.428 171.763 352.444 171.763Z" fill="white"/>
<path d="M705.441 171.468C705.797 174.6 704.575 177.095 702.583 179.147C701.554 180.206 700.046 180.787 698.803 181.653C696.537 183.237 693.985 182.931 691.545 182.585C688.259 182.116 685.412 180.446 683.711 177.599C682.228 175.124 681.612 172.354 682.289 169.288C683.252 164.898 685.987 162.225 689.966 160.865C692.548 159.984 695.35 160.106 698.034 160.987C700.754 161.883 702.812 163.564 704.137 166.085C705.033 167.801 705.823 169.568 705.441 171.468ZM693.282 163.36C692.721 163.544 691.698 164.022 690.618 164.2C688.137 164.613 685.636 168.626 685.473 170.933C685.335 172.832 686.064 174.319 687.154 175.827C688.957 178.332 691.356 179.585 694.346 179.555C695.946 179.539 697.403 178.796 698.707 177.777C701.941 175.262 703.332 171.478 700.601 167.231C699.089 164.878 696.751 163.559 693.282 163.36Z" fill="white"/>
<path d="M654.228 171.457C654.228 168.544 654.248 165.631 654.223 162.719C654.202 160.722 654.518 160.325 656.541 160.356C659.347 160.396 662.179 160.289 664.945 160.651C667.375 160.967 669.443 162.113 670.91 164.384C673.156 167.862 672.657 171.62 672.515 175.363C672.489 176.102 671.959 176.83 671.608 177.538C670.019 180.746 667.38 182.422 663.85 182.636C661.487 182.778 659.113 182.748 656.744 182.783C654.717 182.814 654.213 182.315 654.213 180.303C654.213 177.355 654.213 174.406 654.213 171.457C654.213 171.457 654.223 171.457 654.228 171.457ZM657.941 171.238C657.977 171.238 658.013 171.238 658.048 171.238C658.048 173.423 658.028 175.608 658.053 177.793C658.069 179.163 658.537 179.616 659.918 179.646C660.936 179.667 661.96 179.657 662.979 179.606C665.516 179.483 668.353 176.845 668.857 174.365C669.254 172.394 669.168 170.475 668.822 168.519C668.48 166.609 667.472 165.239 665.781 164.313C663.728 163.187 661.517 163.294 659.291 163.325C658.227 163.34 657.901 163.788 657.926 164.796C657.977 166.94 657.941 169.089 657.941 171.238Z" fill="white"/>
<path d="M459.728 171.401C459.728 168.382 459.723 165.356 459.728 162.337C459.733 160.681 460.085 160.3 461.699 160.33C464.104 160.376 466.503 160.457 468.907 160.569C470.338 160.636 472.422 162.484 472.722 164.017C473.145 166.176 473.257 168.305 471.286 169.914C470.797 170.317 470.812 170.785 471.235 171.238C471.51 171.529 471.78 171.834 472.101 172.074C474.154 173.596 474.908 176.983 473.558 179.351C472.508 181.189 470.843 182.508 468.561 182.62C466.345 182.727 464.124 182.753 461.908 182.799C460.069 182.839 459.662 182.442 459.652 180.573C459.637 177.518 459.647 174.457 459.647 171.401C459.672 171.401 459.698 171.401 459.728 171.401ZM465.907 172.461C463.442 172.517 462.942 173.107 463.207 175.526C463.304 176.418 463.284 177.334 463.187 178.225C463.085 179.152 463.452 179.646 464.323 179.718C465.005 179.779 465.698 179.713 466.386 179.682C468.031 179.606 469.488 178.551 469.819 177.197C470.313 175.206 469.758 173.79 467.995 172.919C467.379 172.619 466.61 172.603 465.907 172.461ZM465.693 169.634C466.972 169.736 468.26 169.405 468.871 167.954C469.498 166.472 469.096 164.628 467.883 163.819C467.16 163.335 466.228 163.044 465.352 162.927C464.022 162.749 463.085 163.798 463.166 165.117C463.202 165.733 463.233 166.355 463.156 166.966C462.871 169.293 463.223 169.716 465.693 169.634Z" fill="white"/>
<path d="M627.104 175.307C627.104 177.35 627.099 179.387 627.109 181.429C627.114 182.264 626.63 182.829 625.917 182.895C625.356 182.946 624.511 182.717 624.231 182.31C623.788 181.673 623.518 180.782 623.518 179.998C623.507 176.723 623.645 173.449 623.691 170.174C623.716 168.208 623.686 166.243 623.65 164.277C623.635 163.513 623.467 162.754 623.482 161.995C623.492 161.527 623.726 161.069 623.859 160.605C624.343 160.753 624.974 160.753 625.29 161.069C627.445 163.192 629.559 165.346 631.627 167.551C633.563 169.619 635.417 171.763 637.327 173.856C637.612 174.172 637.989 174.431 638.371 174.62C638.967 174.915 639.364 174.65 639.492 174.024C639.563 173.673 639.578 173.301 639.573 172.939C639.527 169.369 639.471 165.8 639.41 162.23C639.39 160.941 639.879 160.325 640.964 160.34C642.258 160.356 642.981 161.069 642.966 162.275C642.904 166.171 642.823 170.067 642.797 173.963C642.782 176.474 642.864 178.984 642.838 181.495C642.833 181.887 642.431 182.62 642.293 182.605C641.769 182.534 641.157 182.335 640.801 181.969C639.721 180.848 638.794 179.57 637.714 178.455C635.534 176.204 633.272 174.034 631.087 171.794C630.129 170.811 629.299 169.706 628.357 168.713C628.127 168.473 627.669 168.448 627.318 168.32C627.206 168.687 627.002 169.049 626.997 169.415C626.966 171.381 626.981 173.352 626.981 175.318C627.017 175.307 627.058 175.307 627.104 175.307Z" fill="white"/>
<path d="M731.755 167.663C731.755 165.876 731.75 164.094 731.755 162.306C731.76 160.804 732.249 160.264 733.543 160.315C734.556 160.356 735.29 161.282 735.254 162.454C735.183 164.888 735.05 167.327 735.086 169.762C735.142 173.576 735.331 177.39 735.427 181.205C735.438 181.668 735.213 182.137 735.096 182.6C734.582 182.417 733.925 182.381 733.573 182.035C730.069 178.536 726.6 175.002 723.167 171.437C722.367 170.607 721.751 169.594 720.997 168.707C720.788 168.463 720.294 168.188 720.1 168.28C719.815 168.412 719.54 168.85 719.504 169.186C719.402 170.154 719.402 171.142 719.392 172.119C719.377 173.245 719.382 174.37 719.397 175.496C719.418 176.988 719.484 178.475 719.489 179.967C719.489 180.573 719.489 181.215 719.301 181.78C719.041 182.554 718.435 183.094 717.548 182.941C716.631 182.783 716.239 182.172 716.244 181.215C716.27 177.024 716.27 172.832 716.249 168.646C716.239 166.39 716.163 164.129 716.117 161.873C716.112 161.654 716.061 161.41 716.142 161.226C716.28 160.911 716.453 160.478 716.718 160.391C716.942 160.315 717.385 160.569 717.604 160.799C720.029 163.319 722.433 165.856 724.843 168.397C726.62 170.271 728.378 172.165 730.186 174.014C730.481 174.314 730.97 174.426 731.368 174.625C731.515 174.238 731.785 173.856 731.79 173.469C731.836 171.539 731.811 169.609 731.811 167.679C731.785 167.663 731.77 167.663 731.755 167.663Z" fill="white"/>
<path d="M281.62 180.257C281.62 174.976 281.625 169.69 281.615 164.409C281.615 163.793 281.523 163.177 281.447 162.561C281.264 161.094 282.043 160.172 283.53 160.121C284.799 160.081 285.654 161.007 285.603 162.382C285.537 164.165 285.446 165.947 285.415 167.735C285.41 168.137 285.608 168.544 285.71 168.947C286.036 168.712 286.444 168.544 286.678 168.239C288.471 165.952 290.239 163.645 291.996 161.328C292.618 160.508 295.017 159.724 295.995 160.081C296.881 160.406 297.069 161.226 296.407 162.016C294.237 164.608 292.057 167.19 289.867 169.767C289.032 170.755 289.108 171.457 289.974 172.425C291.96 174.65 293.881 176.932 295.837 179.183C296.504 179.952 297.202 180.695 297.879 181.464C298.328 181.974 298.165 182.371 297.635 182.717C296.367 183.552 294.298 183.262 293.081 181.856C291.461 179.993 289.984 178.006 288.441 176.071C287.941 175.445 287.468 174.793 286.913 174.223C286.637 173.937 286.199 173.805 285.838 173.601C285.68 174.019 285.374 174.437 285.384 174.849C285.43 176.738 285.563 178.628 285.67 180.517C285.726 181.495 285.537 182.284 284.508 182.748C282.919 183.466 281.982 183.043 281.656 181.332C281.59 180.975 281.569 180.609 281.528 180.247C281.559 180.262 281.59 180.257 281.62 180.257Z" fill="white"/>
<path d="M417.032 172.242C417.032 168.967 417.048 165.698 417.027 162.423C417.017 160.926 417.679 160.213 419.355 160.244C421.321 160.274 423.293 160.33 425.244 160.549C426.858 160.732 428.646 162.148 429.043 163.982C429.446 165.82 429.797 167.541 429.069 169.42C428.519 170.841 427.673 171.86 426.4 172.568C425.233 173.214 425.05 173.866 425.911 174.905C427.607 176.942 429.349 178.944 431.04 180.986C431.295 181.291 431.565 181.8 431.473 182.111C431.381 182.407 430.852 182.687 430.475 182.763C429.094 183.033 427.841 182.758 426.991 181.526C425.682 179.621 424.403 177.691 423.109 175.771C423.028 175.649 422.967 175.501 422.855 175.419C422.325 175.022 421.775 174.64 421.235 174.253C421.087 174.88 420.822 175.501 420.807 176.132C420.761 177.808 420.786 179.483 420.848 181.159C420.883 182.132 420.471 182.671 419.554 182.875C418.591 183.089 417.781 182.834 417.353 181.918C417.134 181.439 417.043 180.869 417.037 180.334C417.007 177.64 417.022 174.946 417.022 172.257C417.032 172.242 417.032 172.242 417.032 172.242ZM420.944 168.376C420.843 168.412 420.741 168.448 420.639 168.488C420.96 169.1 421.138 169.986 421.642 170.256C422.213 170.561 423.206 170.561 423.787 170.256C425.259 169.476 425.778 167.984 425.839 166.406C425.896 165.01 424.887 164.094 423.843 163.498C423.231 163.146 422.192 163.182 421.51 163.452C421.148 163.594 421.026 164.603 420.975 165.234C420.883 166.273 420.944 167.327 420.944 168.376Z" fill="white"/>
<path d="M506.428 171.513C506.428 168.488 506.433 165.463 506.428 162.438C506.428 161.038 506.85 160.442 508.272 160.417C510.421 160.376 512.591 160.34 514.715 160.605C516.427 160.819 517.726 161.975 518.22 163.661C518.749 165.463 519.223 167.287 518.474 169.222C517.904 170.694 517.063 171.829 515.698 172.578C514.522 173.219 514.374 173.958 515.255 175.022C516.972 177.1 518.688 179.173 520.405 181.25C521.113 182.111 520.96 182.6 519.85 182.783C518.439 183.018 517.15 182.778 516.269 181.49C514.797 179.331 513.33 177.166 511.863 175.007C511.781 174.885 511.72 174.727 511.608 174.656C511.257 174.431 510.89 174.238 510.528 174.034C510.391 174.416 510.131 174.793 510.126 175.175C510.116 177.034 510.182 178.893 510.197 180.751C510.212 182.305 509.8 182.773 508.465 182.804C507.105 182.834 506.433 182.152 506.428 180.69C506.417 177.64 506.423 174.574 506.428 171.513ZM510.233 166.788C510.222 166.788 510.217 166.788 510.207 166.788C510.207 167.551 510.172 168.315 510.217 169.074C510.289 170.286 510.752 170.663 511.975 170.592C513.544 170.505 514.761 169.176 515.021 167.276C515.265 165.474 514.415 163.829 512.983 163.335C511.043 162.668 510.136 163.34 510.233 165.367C510.248 165.845 510.233 166.314 510.233 166.788Z" fill="white"/>
<path d="M322.762 183.089C321.632 182.967 320.842 182.233 320.282 181.251C319.854 180.497 319.548 179.677 319.197 178.883C318.81 178.007 318.152 177.451 317.195 177.421C315.269 177.36 313.339 177.294 311.413 177.38C310.435 177.421 309.697 177.961 309.391 179.061C309.147 179.957 308.709 180.823 308.22 181.617C307.563 182.682 305.78 183.206 304.608 182.783C303.803 182.493 303.676 181.877 304.022 181.195C305.286 178.699 306.62 176.245 307.863 173.739C308.663 172.125 309.32 170.439 310.079 168.799C310.838 167.159 311.643 165.545 312.412 163.91C312.626 163.452 312.672 162.887 312.972 162.51C313.369 162.011 313.909 161.384 314.454 161.318C314.816 161.272 315.427 162.041 315.682 162.566C316.859 164.97 317.954 167.409 319.069 169.843C319.767 171.356 320.424 172.889 321.158 174.386C322.197 176.499 323.297 178.587 324.372 180.685C325.08 182.07 324.423 183.094 322.762 183.089ZM313.594 174.61C314.358 174.518 315.183 174.518 315.937 174.279C316.278 174.172 316.767 173.505 316.685 173.24C316.263 171.829 315.743 170.439 315.132 169.095C314.857 168.483 314.266 168.371 313.899 169.105C313.298 170.307 312.672 171.508 312.203 172.761C311.729 174.034 312.208 174.605 313.594 174.61Z" fill="white"/>
<path d="M490.087 160.3C491.33 160.3 492.568 160.294 493.81 160.305C494.172 160.305 494.544 160.305 494.9 160.366C495.675 160.498 496.337 160.834 496.347 161.731C496.357 162.693 495.593 162.958 494.85 162.983C493.102 163.044 491.35 163.06 489.603 162.978C487.948 162.897 487.397 163.319 487.387 164.99C487.382 166.008 487.382 167.032 487.433 168.05C487.499 169.293 487.917 169.66 489.155 169.639C490.688 169.614 492.216 169.558 493.749 169.532C494.147 169.527 494.559 169.527 494.946 169.594C495.766 169.736 496.418 170.098 496.388 171.07C496.357 172.058 495.736 172.532 494.829 172.552C493.153 172.588 491.472 172.573 489.797 172.522C487.693 172.456 487.347 172.756 487.357 174.829C487.362 175.924 487.357 177.019 487.397 178.108C487.443 179.32 487.79 179.677 489.002 179.682C490.571 179.692 492.14 179.636 493.709 179.621C494.182 179.616 494.727 179.519 495.109 179.713C495.598 179.957 496.164 180.39 496.332 180.869C496.576 181.576 496.184 182.279 495.425 182.508C494.773 182.707 494.065 182.783 493.383 182.788C490.973 182.804 488.569 182.773 486.16 182.743C484.061 182.717 483.404 181.801 483.74 179.723C483.934 178.511 483.924 177.258 483.908 176.025C483.862 172.461 483.776 168.891 483.699 165.326C483.679 164.455 483.659 163.579 483.608 162.708C483.511 161.033 484 160.437 485.711 160.376C487.168 160.32 488.63 160.366 490.087 160.366C490.087 160.34 490.087 160.32 490.087 160.3Z" fill="white"/>
<path d="M571.205 177.197C570.512 177.197 569.819 177.181 569.127 177.202C567.262 177.253 566.269 178.063 565.811 179.891C565.332 181.8 564.074 182.844 562.388 182.738C561.15 182.661 560.763 181.877 561.328 180.797C562.199 179.137 562.994 177.436 563.819 175.756C564.965 173.423 566.132 171.101 567.242 168.753C568.245 166.635 569.162 164.475 570.186 162.367C570.39 161.95 570.915 161.405 571.271 161.415C571.623 161.43 572.056 162.021 572.275 162.454C573.008 163.9 573.655 165.387 574.338 166.859C575.438 169.222 576.533 171.585 577.649 173.943C578.051 174.788 578.509 175.603 578.942 176.433C579.696 177.874 580.476 179.305 581.199 180.762C581.52 181.408 581.637 182.101 581 182.666C580.404 183.196 579.64 183.308 579.1 182.788C578.204 181.928 577.18 181.026 576.711 179.926C575.769 177.721 575.137 177.125 572.733 177.217C572.224 177.238 571.714 177.222 571.2 177.222C571.205 177.212 571.205 177.202 571.205 177.197ZM570.802 174.824C570.808 174.854 570.813 174.88 570.818 174.91C571.531 174.778 572.259 174.701 572.952 174.508C573.894 174.243 574.175 173.627 573.777 172.756C573.298 171.702 572.804 170.648 572.239 169.634C572.03 169.263 571.602 168.789 571.266 168.784C570.971 168.774 570.573 169.308 570.375 169.685C569.891 170.612 569.575 171.631 569.05 172.527C568.164 174.029 568.434 174.666 570.14 174.793C570.364 174.803 570.583 174.813 570.802 174.824Z" fill="white"/>
<path d="M805.996 182.829C804.193 182.682 804.137 181.882 804.952 180.105C806.378 177.008 807.937 173.973 809.44 170.907C810.891 167.944 812.328 164.969 813.815 162.021C813.978 161.695 814.477 161.242 814.707 161.303C815.094 161.405 815.522 161.802 815.695 162.179C817.202 165.453 818.588 168.789 820.152 172.038C821.593 175.043 823.228 177.961 824.726 180.94C824.909 181.301 824.94 182.111 824.757 182.218C824.105 182.59 823.29 183.023 822.612 182.921C821.374 182.732 820.671 181.683 820.345 180.527C819.642 178.063 818.42 176.957 816.27 177.156C814.752 177.294 813.209 177.197 811.681 177.146C810.693 177.11 810.076 177.676 809.664 178.404C809.21 179.203 808.925 180.105 808.599 180.97C808.181 182.05 807.117 182.829 805.996 182.829ZM813.555 174.875C814.559 174.752 815.572 174.676 816.566 174.498C817.396 174.345 817.564 173.82 817.146 173.036C816.943 172.654 816.759 172.262 816.596 171.86C816.214 170.928 815.868 169.976 815.471 169.049C815.134 168.254 814.477 168.005 814.207 168.56C813.453 170.123 812.72 171.712 812.155 173.347C811.844 174.248 812.577 174.946 813.555 174.875Z" fill="white"/>
<path d="M752.868 160.325C754.106 160.325 755.349 160.32 756.587 160.33C756.984 160.335 757.397 160.335 757.784 160.422C758.502 160.58 759.159 160.916 759.119 161.761C759.078 162.627 758.324 162.922 757.641 162.937C755.869 162.978 754.091 162.963 752.323 162.841C751.024 162.749 750.25 163.253 750.215 164.547C750.179 165.749 750.245 166.95 750.23 168.152C750.215 169.206 750.673 169.68 751.753 169.634C753.281 169.568 754.814 169.573 756.347 169.553C756.673 169.548 757.005 169.543 757.331 169.568C758.446 169.65 759.18 170.24 759.19 171.045C759.2 171.793 758.395 172.527 757.336 172.547C755.696 172.583 754.055 172.532 752.415 172.476C750.586 172.41 750.199 172.736 750.179 174.543C750.169 175.71 750.159 176.876 750.194 178.042C750.235 179.336 750.566 179.672 751.839 179.682C753.373 179.697 754.901 179.641 756.434 179.641C757.015 179.641 757.595 179.692 758.171 179.774C758.93 179.881 759.327 180.313 759.312 181.113C759.297 181.907 758.966 182.468 758.161 182.61C757.483 182.727 756.786 182.819 756.098 182.814C753.765 182.809 751.437 182.763 749.104 182.727C747.041 182.697 746.394 181.816 746.756 179.794C746.939 178.77 746.904 177.696 746.893 176.647C746.842 172.827 746.771 169.008 746.685 165.188C746.664 164.353 746.567 163.523 746.491 162.688C746.353 161.155 746.949 160.406 748.503 160.345C749.96 160.289 751.417 160.335 752.879 160.335C752.868 160.335 752.868 160.33 752.868 160.325Z" fill="white"/>
<path d="M775.327 160.295C777.043 160.177 778.521 160.804 779.937 161.583C780.955 162.143 781.317 162.968 780.935 163.61C780.497 164.338 778.979 164.812 778.225 164.435C777.965 164.307 777.716 164.145 777.507 163.946C776.57 163.06 775.551 162.815 774.303 163.284C772.673 163.895 772.062 166.711 773.432 167.806C774.272 168.478 775.25 168.977 776.188 169.522C777.339 170.189 778.592 170.714 779.662 171.488C782.219 173.337 782.662 175.399 781.984 178.017C781.439 180.115 779.794 181.826 777.593 182.376C776.014 182.773 774.216 182.855 772.632 182.519C770.9 182.147 769.428 180.904 768.547 179.305C768.313 178.877 768.679 177.884 769.077 177.406C769.586 176.789 770.406 176.693 771.124 177.314C771.868 177.956 772.591 178.633 773.386 179.198C774.782 180.191 776.86 179.677 777.986 178.119C778.801 176.988 778.398 174.589 777.191 173.795C776.473 173.321 775.688 172.934 774.894 172.598C773.065 171.834 771.328 170.913 770.09 169.339C769.581 168.697 769.189 167.847 769.061 167.042C768.634 164.369 769.499 162.184 772.067 161.023C773.06 160.575 774.237 160.524 775.327 160.295Z" fill="white"/>
<path d="M368.107 160.126C370.557 160.126 372.63 160.111 374.703 160.137C375.202 160.142 375.814 160.137 376.175 160.401C376.573 160.692 376.99 161.318 376.95 161.751C376.909 162.179 376.354 162.815 375.931 162.902C374.836 163.126 373.695 163.146 372.564 163.167C371.341 163.192 370.97 163.589 371.005 164.827C371.082 167.847 371.097 170.867 371.163 173.887C371.209 176.031 371.285 178.18 371.372 180.324C371.408 181.281 371.321 182.126 370.318 182.631C368.54 183.517 367.012 182.549 367.027 180.538C367.068 176.102 367.083 171.666 367.119 167.231C367.124 166.686 367.159 166.136 367.241 165.601C367.547 163.666 366.237 162.515 364.348 163.126C363.507 163.401 362.662 163.589 361.984 162.922C361.617 162.556 361.24 161.899 361.327 161.461C361.403 161.038 362.045 160.457 362.483 160.417C364.475 160.223 366.477 160.198 368.107 160.126Z" fill="white"/>
<path d="M549.893 160.32C551.742 160.32 553.53 160.315 555.318 160.325C555.791 160.33 556.357 160.228 556.708 160.447C557.126 160.707 557.574 161.252 557.595 161.695C557.61 162.041 557.049 162.647 556.652 162.739C555.74 162.943 554.773 162.953 553.83 162.943C551.976 162.917 551.431 163.482 551.482 165.356C551.579 168.957 551.64 172.557 551.711 176.153C551.742 177.568 551.737 178.984 551.813 180.395C551.895 181.816 551.054 182.885 549.725 182.941C548.716 182.982 548.023 182.116 548.013 180.695C548.003 178.694 548.044 176.693 548.074 174.696C548.12 171.564 548.166 168.432 548.227 165.3C548.263 163.355 546.724 162.316 544.845 162.927C544.254 163.121 543.459 163.136 542.909 162.892C542.466 162.693 541.972 161.939 542.033 161.501C542.089 161.094 542.817 160.508 543.291 160.468C545.212 160.305 547.147 160.32 549.078 160.279C549.373 160.269 549.664 160.305 549.893 160.32Z" fill="white"/>
<path d="M533.144 171.569C533.144 174.63 533.139 177.691 533.15 180.751C533.155 182.233 532.615 182.85 531.178 182.936C530.012 183.002 529.212 182.208 529.217 180.833C529.243 175.404 529.314 169.975 529.35 164.547C529.355 163.783 529.253 163.019 529.253 162.255C529.258 161.074 530.139 160.157 531.183 160.188C532.518 160.228 533.15 160.926 533.144 162.281C533.139 165.377 533.144 168.473 533.144 171.569Z" fill="white"/>
<path d="M612.408 171.569C612.408 174.701 612.429 177.828 612.398 180.96C612.388 182.361 611.374 183.125 609.994 182.865C609.097 182.697 608.568 182.244 608.573 181.245C608.583 174.803 608.562 168.361 608.578 161.919C608.583 160.707 609.016 160.381 610.32 160.386C611.756 160.391 612.342 160.85 612.352 162.077C612.373 165.244 612.357 168.407 612.357 171.575C612.378 171.569 612.393 171.569 612.408 171.569Z" fill="white"/>
<path d="M792.07 172.063C792.07 168.753 792.065 165.443 792.075 162.133C792.075 161.013 792.926 160.188 794.011 160.218C795.284 160.249 795.926 160.87 795.926 162.092C795.921 168.387 795.895 174.681 795.921 180.976C795.926 181.953 795.559 182.544 794.703 182.946C793.883 183.328 793.252 182.941 792.727 182.447C792.421 182.162 792.192 181.648 792.177 181.23C792.1 179.341 792.111 177.446 792.1 175.557C792.09 174.396 792.1 173.23 792.1 172.069C792.085 172.063 792.08 172.063 792.07 172.063Z" fill="white"/>
</svg>
