<svg xmlns="http://www.w3.org/2000/svg" viewBox="0 0 741.98 494.66"><defs><style>.cls-1{fill:#ffd4da;}.cls-2{fill:#f5f5f5;}.cls-3{fill:#ebebeb;}.cls-4{fill:#e0e0e0;}.cls-5{fill:#fafafa;}.cls-6{fill:#fff;}.cls-7{fill:#dc3545;}.cls-8{fill:#263238;}.cls-9{fill:#455a64;}.cls-10{opacity:0.3;}.cls-11{fill:#ffbe9d;}.cls-12{fill:#eb996e;}.cls-13{opacity:0.6;}</style></defs><g id="OBJECTS"><path class="cls-1" d="M230.8,39.53c-36.65,25.82-75.34,54.24-90.59,96.39-12.89,35.63-6.65,75.27,3.59,111.75S168.2,320,171,357.78c2.6,35-2.24,76.47,24.74,98.92,11.22,9.34,25.91,13.11,40.08,16.62,33.65,8.34,70,16.53,102.16,3.57,37.57-15.14,58.37-54.27,84.75-85a241.27,241.27,0,0,1,79.79-60.8c28.82-13.59,61.38-22.15,83.53-45.05,33.82-34.95,31.6-92.23,12.76-137.07-8.55-20.35-20.25-39.79-36.91-54.27C535.25,71.5,499.08,63.35,464.53,56l-164-35c-25.8-5.51-48.84,2.45-69.74,18.55"/><path class="cls-2" d="M513.24,266.11l-72.72-27.5a9.73,9.73,0,0,1-5.66-12.54l38.07-100.66a9.72,9.72,0,0,1,12.54-5.66l46.12,17.44,21.78,50.3-27.59,73A9.72,9.72,0,0,1,513.24,266.11Z"/><path class="cls-3" d="M531.59,137.19l-10.72,28.33a9.06,9.06,0,0,0,5.27,11.67l27.23,10.3Z"/><path class="cls-4" d="M520.31,168.15s-3,6.73,4,11.95a8.92,8.92,0,0,0,.82.54c3.31,2,25.15,15,25.35,14.46l2.88-7.61-27.24-10.3S519.42,174.39,520.31,168.15Z"/><path class="cls-4" d="M515.21,162.06c-.13.36-7.78-2.19-17.07-5.7s-16.71-6.66-16.57-7,7.78,2.18,17.07,5.7S515.35,161.7,515.21,162.06Z"/><path class="cls-4" d="M530.88,186.29c-.13.37-12.64-4-27.93-9.81s-27.58-10.76-27.44-11.13,12.64,4,27.94,9.82S531,185.93,530.88,186.29Z"/><path class="cls-4" d="M530.81,201.56c-.13.36-13.76-4.46-30.42-10.76s-30.08-11.71-29.94-12.07,13.76,4.45,30.43,10.75S531,201.19,530.81,201.56Z"/><path class="cls-4" d="M526,214.18c-.14.36-13.76-4.46-30.43-10.76s-30.07-11.71-29.93-12.07,13.76,4.45,30.43,10.75S526.18,213.81,526,214.18Z"/><path class="cls-4" d="M521.27,226.79c-.14.37-13.76-4.45-30.43-10.75S460.77,204.33,460.91,204s13.76,4.45,30.43,10.75S521.41,226.43,521.27,226.79Z"/><path class="cls-4" d="M516.5,239.41c-.14.37-13.77-4.45-30.43-10.75S456,217,456.13,216.59s13.76,4.45,30.44,10.75S516.63,239.05,516.5,239.41Z"/><rect class="cls-3" x="191.81" y="173.95" width="114.31" height="158.27" rx="6.36" transform="translate(-69.65 96.5) rotate(-19.3)"/><rect class="cls-4" x="200.31" y="182.33" width="98.27" height="144.26" transform="translate(-70.08 96.74) rotate(-19.3)"/><rect class="cls-5" x="198.2" y="181.77" width="98.27" height="141.51" transform="translate(-69.56 95.93) rotate(-19.3)"/><path class="cls-4" d="M317.09,303.06c-.4-1.12-19.23-54.73-46.9-133.51l.17.08-92.73,32.49h0l.09-.19c17.48,50.17,33.75,96.5,46.74,133.57l-.15-.07,92.79-32.37-92.71,32.59-.11,0,0-.11L177.44,202l-.05-.14.14,0h0l92.73-32.46.13,0,0,.12C298,248.29,316.7,301.94,317.09,303.06Z"/><path class="cls-4" d="M284.19,314.58s20.65-17.42,24.23-35.56a26.22,26.22,0,0,1-17.66,10.63S290.35,308.7,284.19,314.58Z"/><rect class="cls-3" x="202.81" y="232.26" width="12.01" height="12.01" rx="3.42" transform="translate(-67.01 82.4) rotate(-19.3)"/><path class="cls-6" d="M208.68,240.15h0a.28.28,0,0,1-.22,0l-2.24-1.3a.28.28,0,0,1-.1-.38.27.27,0,0,1,.38-.1l2,1.14,2.37-5.05a.28.28,0,0,1,.37-.14.27.27,0,0,1,.13.37L208.84,240A.29.29,0,0,1,208.68,240.15Z"/><path class="cls-4" d="M272.73,211.07c0,.08-12,4.36-26.9,9.57s-27,9.38-27,9.3,12-4.36,26.9-9.57S272.7,211,272.73,211.07Z"/><path class="cls-4" d="M244.44,230.28a5.32,5.32,0,0,1-.87.37l-2.42.9c-2.05.74-4.88,1.75-8,2.85s-6,2.07-8,2.77l-2.45.81a8.86,8.86,0,0,1-.91.26,6.46,6.46,0,0,1,.88-.37L225,237c2-.74,4.88-1.75,8-2.85s6-2.07,8-2.77l2.45-.81A6.46,6.46,0,0,1,244.44,230.28Z"/><path class="cls-4" d="M274,214.75c0,.07-12,4.36-26.9,9.57s-27,9.37-27,9.3,12-4.36,26.9-9.58S274,214.67,274,214.75Z"/><rect class="cls-3" x="209.78" y="252.16" width="12.01" height="12.01" rx="3.42" transform="translate(-73.2 85.83) rotate(-19.3)"/><path class="cls-6" d="M215.65,260.05h0a.33.33,0,0,1-.22,0l-2.24-1.3a.28.28,0,0,1-.1-.38.28.28,0,0,1,.38-.11l2,1.15,2.37-5a.28.28,0,0,1,.37-.14.27.27,0,0,1,.13.37l-2.49,5.33A.29.29,0,0,1,215.65,260.05Z"/><path class="cls-4" d="M279.69,231c0,.08-12,4.36-26.89,9.57s-27,9.38-27,9.3,12-4.36,26.9-9.57S279.67,230.89,279.69,231Z"/><path class="cls-4" d="M251.41,250.18a5.9,5.9,0,0,1-.87.37l-2.42.9c-2.05.74-4.88,1.75-8,2.85s-6,2.07-8,2.77l-2.45.81a5.48,5.48,0,0,1-.91.25s.31-.14.88-.36l2.41-.9c2-.74,4.88-1.75,8-2.85s6-2.07,8-2.77l2.45-.81A6.46,6.46,0,0,1,251.41,250.18Z"/><path class="cls-4" d="M281,234.64c0,.08-12,4.37-26.9,9.58s-27,9.37-27,9.3,12-4.36,26.91-9.58S281,234.57,281,234.64Z"/><rect class="cls-3" x="216.75" y="272.06" width="12.01" height="12.01" rx="3.42" transform="translate(-79.38 89.24) rotate(-19.3)"/><path class="cls-6" d="M222.62,280h0a.31.31,0,0,1-.23,0l-2.23-1.29a.27.27,0,0,1-.1-.38.28.28,0,0,1,.38-.11l2,1.15,2.36-5.06a.29.29,0,0,1,.38-.13.27.27,0,0,1,.13.37l-2.49,5.33A.29.29,0,0,1,222.62,280Z"/><path class="cls-4" d="M286.66,250.87c0,.08-12,4.36-26.9,9.57s-27,9.38-27,9.3,12-4.36,26.9-9.57S286.64,250.79,286.66,250.87Z"/><path class="cls-4" d="M258.38,270.08a6.46,6.46,0,0,1-.88.37l-2.41.89c-2.05.75-4.88,1.76-8,2.86s-6,2.07-8,2.77l-2.45.81a5.48,5.48,0,0,1-.91.25,8.1,8.1,0,0,1,.87-.36l2.42-.9c2-.74,4.88-1.75,8-2.85s6-2.08,8-2.77l2.45-.81A6.46,6.46,0,0,1,258.38,270.08Z"/><path class="cls-4" d="M288,254.54c0,.08-12,4.37-26.9,9.58s-27,9.37-27,9.3,12-4.36,26.9-9.58S287.92,254.47,288,254.54Z"/><rect class="cls-3" x="223.72" y="291.96" width="12.01" height="12.01" rx="3.42" transform="translate(-85.57 92.67) rotate(-19.3)"/><path class="cls-6" d="M229.59,299.85h0a.31.31,0,0,1-.23,0l-2.23-1.29a.29.29,0,0,1-.11-.39.3.3,0,0,1,.39-.1l2,1.15,2.36-5.06a.27.27,0,0,1,.37-.13.28.28,0,0,1,.14.37l-2.49,5.33A.33.33,0,0,1,229.59,299.85Z"/><path class="cls-4" d="M293.63,270.77c0,.07-12,4.36-26.9,9.57s-27,9.38-27,9.3,12-4.36,26.91-9.57S293.6,270.69,293.63,270.77Z"/><path class="cls-4" d="M265.35,290a6.46,6.46,0,0,1-.88.37l-2.42.89c-2,.75-4.87,1.76-8,2.86l-8,2.77-2.45.8a5.36,5.36,0,0,1-.91.26,6.1,6.1,0,0,1,.87-.36l2.42-.9c2-.74,4.88-1.75,8-2.85s6-2.08,8.05-2.77l2.45-.81A6.46,6.46,0,0,1,265.35,290Z"/><path class="cls-4" d="M294.92,274.44c0,.08-12,4.37-26.9,9.58s-27,9.37-27,9.3,12-4.37,26.9-9.58S294.89,274.37,294.92,274.44Z"/><path class="cls-4" d="M188.08,189l2.45,7a7.76,7.76,0,0,0,9.91,4.77l51.3-18a7.77,7.77,0,0,0,4.77-9.92l-2.44-7Z"/><path class="cls-4" d="M221.76,179.49a7.3,7.3,0,1,1,4.47-9.3A7.3,7.3,0,0,1,221.76,179.49Zm-3.9-11.13a4.5,4.5,0,1,0,5.73,2.76A4.5,4.5,0,0,0,217.86,168.36Z"/><path class="cls-4" d="M262.76,197.63c.05.13-13.48,5-30.21,10.85s-30.33,10.5-30.38,10.36,13.48-5,30.21-10.84S262.71,197.5,262.76,197.63Z"/><path class="cls-4" d="M245.44,200.12c0,.13-5.91,2.34-13.3,4.92s-13.42,4.58-13.47,4.45,5.91-2.34,13.3-4.93S245.39,200,245.44,200.12Z"/><path class="cls-7" d="M511.94,402.75a19.14,19.14,0,0,1,11.81-1.44c2.14.36,4.38,1,5.84,2.61s1.73,4.44.06,5.82a5.59,5.59,0,0,1-3.68.93c-3.12,0-6.59-.58-9.08,1.3-1.42,1.07-2.37,2.85-4.07,3.38a4,4,0,0,1-4.43-2,6.89,6.89,0,0,1-.5-5.07A7.78,7.78,0,0,1,511.94,402.75Z"/><path class="cls-7" d="M503.72,386.87c2.19,3.13,6.46,2.09,8.44.18s2.82-4.69,3.58-7.34c1.74-6,3.49-12.39,2.2-18.54a10.34,10.34,0,0,0-2.37-5,5.37,5.37,0,0,0-5.1-1.7c-2.15.57-3.49,2.67-4.46,4.68a44.34,44.34,0,0,0-4.37,19c0,3.06.35,6.26,2.08,8.79"/><path class="cls-7" d="M497.69,391.37a11.44,11.44,0,0,0,1.77-10.51,20.26,20.26,0,0,0-6.22-9,33.49,33.49,0,0,0-11.14-6.57,11.7,11.7,0,0,0-5-.85,5.24,5.24,0,0,0-4.2,2.54c-1.17,2.24-.05,5,1.17,7.16a84.81,84.81,0,0,0,7.31,11.14c2.19,2.83,4.71,5.62,8.05,6.89s6.81,1.13,8.58-1.19"/><path class="cls-8" d="M503.57,434.18a6.88,6.88,0,0,0,.2-1.42c.1-1,.22-2.34.38-3.89a56.92,56.92,0,0,1,.87-5.71,43.41,43.41,0,0,1,2.07-6.73,25.08,25.08,0,0,1,3.44-6.1,12.91,12.91,0,0,1,4.35-3.61,12.1,12.1,0,0,1,3.66-1.14,6.39,6.39,0,0,0,1.42-.21,7.28,7.28,0,0,0-1.44,0,11,11,0,0,0-3.82,1,12.79,12.79,0,0,0-4.59,3.64,24.27,24.27,0,0,0-3.56,6.22,40.42,40.42,0,0,0-2.06,6.84,48.85,48.85,0,0,0-.76,5.78c-.12,1.65-.17,3-.19,3.91A6.7,6.7,0,0,0,503.57,434.18Z"/><path class="cls-8" d="M503.84,431.19a2.82,2.82,0,0,0,0-.66v-1.9c0-1.64,0-4,.08-6.94.15-5.87.65-12.18,1.63-21.08.92-8.37,2.16-18.11,3.47-24.44.28-1.44.56-2.74.83-3.88s.47-2.11.68-2.91.33-1.35.44-1.84a2.58,2.58,0,0,0,.12-.65,2.86,2.86,0,0,0-.23.62c-.15.48-.33,1.08-.55,1.81s-.49,1.77-.78,2.9-.61,2.42-.92,3.86A217.39,217.39,0,0,0,505,398.76c-1,8.92-1.41,17-1.45,22.92,0,2.94,0,5.32.1,7,.05.77.09,1.39.12,1.89A2.71,2.71,0,0,0,503.84,431.19Z"/><path class="cls-8" d="M503.88,415.52a12.88,12.88,0,0,0,0-2c-.07-1.27-.25-3.11-.6-5.35a70.73,70.73,0,0,0-1.74-7.8,63.68,63.68,0,0,0-3.27-9.23,49.14,49.14,0,0,0-9.57-14.91,24.26,24.26,0,0,0-2.25-2.09c-.35-.3-.66-.59-1-.82l-.87-.6a13.8,13.8,0,0,0-1.66-1.07,60.58,60.58,0,0,1,5.45,4.87,51.69,51.69,0,0,1,9.33,14.85,72.51,72.51,0,0,1,3.28,9.15,78.08,78.08,0,0,1,1.86,7.72c.4,2.22.64,4,.78,5.3A10.74,10.74,0,0,0,503.88,415.52Z"/><polygon class="cls-8" points="488.74 443.15 490.31 464.66 517.93 464.66 519.5 443.15 488.74 443.15"/><rect class="cls-8" x="486.07" y="434.68" width="36.73" height="8.48"/><polygon class="cls-9" points="486.07 463.83 486.07 466.18 487.79 466.18 522.19 466.18 522.19 463.83 486.07 463.83"/><polygon class="cls-9" points="489.49 470.32 487.79 466.18 520.87 466.18 518.9 470.32 489.49 470.32"/><path class="cls-4" d="M519,450.18s0,.07-.12.2l-.42.55L516.83,453l-.07.09-.07-.1-4-5.47H513L509.08,453l-.13.18-.13-.17c-1.44-1.7-3-3.56-4.62-5.49h.27l-.26.32L500.09,453l-.14.18-.13-.18-3.89-5.51h.22L491.36,453l-.09.1-.06-.11-1.5-2.52-.39-.68-.12-.24a1.23,1.23,0,0,1,.16.22l.43.64c.38.61.91,1.44,1.58,2.48h-.15l4.72-5.53.11-.14.11.15,3.93,5.48h-.26l4.11-5.19.26-.31.13-.17.13.16,4.61,5.5-.26,0,3.93-5.49.12-.16.11.16c1.55,2.23,2.88,4.11,3.87,5.53h-.14l1.67-2,.45-.52A1.45,1.45,0,0,1,519,450.18Z"/><path class="cls-9" d="M519.88,443c0,.1-6.92.17-15.45.17S489,443.11,489,443s6.92-.17,15.46-.17S519.88,442.92,519.88,443Z"/><path class="cls-8" d="M521.28,466.41c0,.1-7.52.18-16.8.18s-16.8-.08-16.8-.18,7.52-.17,16.8-.17S521.28,466.32,521.28,466.41Z"/><path class="cls-8" d="M248.79,397.82c-.08.09-.71-.29-1.41-.85s-1.21-1.1-1.13-1.19.7.28,1.41.85S248.87,397.72,248.79,397.82Z"/><path class="cls-9" d="M268,369.18a22.16,22.16,0,0,0-.66-8c-.84-2.54-2.8-4.87-5.42-5.42-3-.62-6.06,1.27-7.74,3.83s-2.25,5.65-2.75,8.67a306.4,306.4,0,0,0-3.75,62.95L259.87,433C265.25,411,267,391.79,268,369.18Z"/><path class="cls-8" d="M260.17,355.71a.88.88,0,0,1-.06.19l-.2.56c-.2.52-.47,1.22-.82,2.11-.17.46-.39,1-.58,1.53s-.38,1.2-.59,1.86-.44,1.38-.69,2.13l-.63,2.43a106.2,106.2,0,0,0-2.36,12.12c-.67,4.6-1.1,9.7-1.44,15.06-.63,10.73-.73,20.47-1,27.51-.13,3.52-.26,6.37-.39,8.34-.06.95-.12,1.71-.15,2.26,0,.24,0,.43,0,.59s0,.2,0,.2a1.57,1.57,0,0,1,0-.2c0-.16,0-.35,0-.59,0-.56,0-1.31.07-2.27.08-2,.16-4.82.25-8.34.19-7,.24-16.78.87-27.53.34-5.36.79-10.48,1.48-15.09a102.48,102.48,0,0,1,2.46-12.14c.23-.85.46-1.66.67-2.43s.49-1.46.72-2.13.43-1.28.63-1.85.43-1.06.62-1.52c.37-.88.67-1.58.89-2.09q.15-.32.24-.54C260.13,355.76,260.16,355.7,260.17,355.71Z"/><path class="cls-8" d="M261.3,355.71a9,9,0,0,1,1.5,2.54,18.73,18.73,0,0,1,1.11,7.92c-.32,6.77-.93,16.09-1.73,26.39s-1.71,19.6-2.43,26.33c-.36,3.36-.68,6.08-.91,8-.11.91-.21,1.63-.27,2.16l-.09.56c0,.13,0,.19,0,.19s0-.07,0-.19,0-.34,0-.57c0-.53.11-1.26.19-2.17.19-1.92.45-4.64.77-8,.64-6.74,1.49-16.05,2.3-26.34s1.46-19.62,1.87-26.36a19.27,19.27,0,0,0-1-7.85A16.92,16.92,0,0,0,261.3,355.71Z"/><path class="cls-8" d="M269.79,387.41a13.14,13.14,0,0,1-4.49-1.61,13.14,13.14,0,0,1,4.49,1.61Z"/><path class="cls-8" d="M271.27,374.93a14.27,14.27,0,0,1-4.6,2.05,7.32,7.32,0,0,1,2.21-1.22A7.41,7.41,0,0,1,271.27,374.93Z"/><path class="cls-8" d="M270.5,364.74a4,4,0,0,1-1.82.1,4,4,0,0,1-1.8-.35,4,4,0,0,1,1.83-.09A4,4,0,0,1,270.5,364.74Z"/><path class="cls-8" d="M257.87,358.22c-.11.06-.64-.61-1.2-1.5a4.4,4.4,0,0,1-.83-1.72c.1-.07.64.6,1.2,1.49A4.35,4.35,0,0,1,257.87,358.22Z"/><path class="cls-8" d="M253.69,364.37a6.8,6.8,0,0,1-3.47-.07,7.11,7.11,0,0,1,3.47.07Z"/><path class="cls-8" d="M250.69,376.7a4.28,4.28,0,0,1-1.83-.5,4.42,4.42,0,0,1-1.67-.91,4.28,4.28,0,0,1,1.84.5C250,376.18,250.74,376.59,250.69,376.7Z"/><path class="cls-8" d="M250.37,387.06c0,.12-.67.37-1.56.55a3.33,3.33,0,0,1-1.64.13c0-.12.67-.37,1.55-.56S250.35,386.94,250.37,387.06Z"/><path class="cls-8" d="M249,404a3.65,3.65,0,0,1-1.65.51c-.94.17-1.71.21-1.73.09s.71-.35,1.65-.52A3.6,3.6,0,0,1,249,404Z"/><path class="cls-8" d="M248,413.37c.06.11-.56.55-1.38,1s-1.52.7-1.58.59.56-.54,1.38-1S248,413.27,248,413.37Z"/><path class="cls-8" d="M255.67,424c-.11.06-.65-.69-1.21-1.66a5,5,0,0,1-.82-1.88c.11-.06.64.68,1.2,1.66A5.13,5.13,0,0,1,255.67,424Z"/><path class="cls-8" d="M257.87,406.34c.08.09-.51.82-1.34,1.62s-1.56,1.4-1.64,1.31.51-.81,1.34-1.62A5.32,5.32,0,0,1,257.87,406.34Z"/><path class="cls-8" d="M257.38,397.08c-.09.09-.64-.37-1.24-1s-1-1.23-.92-1.31.64.37,1.24,1S257.47,397,257.38,397.08Z"/><path class="cls-8" d="M258.9,385.25c.09.08-.41.78-1.12,1.57s-1.35,1.36-1.44,1.28.41-.78,1.12-1.57S258.81,385.17,258.9,385.25Z"/><path class="cls-8" d="M259.75,376.66c-.08.09-.78-.46-1.56-1.22s-1.33-1.45-1.25-1.54.79.46,1.56,1.22S259.84,376.57,259.75,376.66Z"/><path class="cls-8" d="M261.43,365.05a4.45,4.45,0,0,1-.78,1.74c-.54.9-1.06,1.57-1.16,1.51a4.45,4.45,0,0,1,.78-1.74C260.81,365.67,261.32,365,261.43,365.05Z"/><path class="cls-8" d="M264.58,354.29c.11.06-.2.84-.69,1.74s-1,1.59-1.08,1.53a4.38,4.38,0,0,1,.7-1.74C264,354.92,264.48,354.24,264.58,354.29Z"/><path class="cls-8" d="M268.16,359.18c0,.11-.44.45-1.09.77s-1.23.48-1.29.37.44-.46,1.1-.77S268.11,359.07,268.16,359.18Z"/><path class="cls-8" d="M268.25,397.82a5,5,0,0,1-2.4-.58,5.17,5.17,0,0,1-2.08-1.33,12,12,0,0,1,2.25.92A11.8,11.8,0,0,1,268.25,397.82Z"/><path class="cls-8" d="M266.78,406c0,.12-.71.36-1.64.54s-1.71.23-1.73.11.71-.36,1.64-.54S266.76,405.88,266.78,406Z"/><path class="cls-8" d="M265,420a4.79,4.79,0,0,1-1.87-1.63,4.92,4.92,0,0,1-1.17-2.19,13.27,13.27,0,0,1,1.51,1.91A15.21,15.21,0,0,1,265,420Z"/><path class="cls-8" d="M245.3,426.45c-.08-.09.42-.65,1.11-1.24s1.32-1,1.4-.9-.42.64-1.11,1.23S245.38,426.54,245.3,426.45Z"/><path class="cls-9" d="M239.64,395.82c-.79-2.49-2.29-5.39-4.9-5.42a4.34,4.34,0,0,0-3.68,2.46,9.07,9.07,0,0,0-1,4.5A117.22,117.22,0,0,0,235.69,430h9.56A113.36,113.36,0,0,0,239.64,395.82Z"/><path class="cls-9" d="M222.35,380.16a10.6,10.6,0,0,0-9.95-8.5c-4.23.74-5.87,4.9-6.37,9.16s.82,8.5,2.13,12.59q6.28,19.68,12.58,39.36l11.9-1.29C228.87,413.89,226.71,397.6,222.35,380.16Z"/><path class="cls-8" d="M234.74,390.4a10.09,10.09,0,0,0-.81,1.35,8.81,8.81,0,0,0-.45,4.23c.19,1.81.39,4,.7,6.4s.74,5,1.28,7.78c1.08,5.49,2.3,10.42,3.07,14,.39,1.8.69,3.26.88,4.27.08.46.14.85.2,1.17a1.78,1.78,0,0,1,0,.41,1.27,1.27,0,0,1-.13-.4c-.08-.31-.17-.69-.28-1.15-.25-1.06-.6-2.49-1-4.23-.85-3.57-2.11-8.49-3.2-14-.54-2.75-1-5.39-1.25-7.81-.15-1.21-.26-2.36-.35-3.44s-.21-2.07-.26-3a8.64,8.64,0,0,1,.6-4.32A3.75,3.75,0,0,1,234.74,390.4Z"/><path class="cls-8" d="M212.57,371.32a15.45,15.45,0,0,0-1.44,1.93,13.61,13.61,0,0,0-1.81,6.22,29,29,0,0,0,1.47,9.58c1.05,3.54,2.19,7.42,3.4,11.5,2.37,8.16,4.52,15.53,6.09,20.93.75,2.65,1.36,4.81,1.79,6.35.2.73.35,1.3.47,1.74a5.55,5.55,0,0,1,.14.61,2.74,2.74,0,0,1-.22-.59l-.55-1.71c-.47-1.53-1.13-3.68-1.93-6.31-1.6-5.39-3.79-12.76-6.21-20.89-1.19-4.09-2.33-8-3.36-11.52a28.61,28.61,0,0,1-1.4-9.71,13.33,13.33,0,0,1,2-6.29A7.31,7.31,0,0,1,212.57,371.32Z"/><path class="cls-8" d="M230.05,430.2a2.5,2.5,0,0,1-.27-.57c-.16-.38-.41-.93-.68-1.67-.57-1.46-1.29-3.61-2-6.32s-1.5-5.95-2.21-9.59-1.45-7.64-2.24-11.83-1.75-8.15-2.82-11.69a65.23,65.23,0,0,0-3.47-9.16,47.09,47.09,0,0,0-3.21-5.78c-.4-.67-.78-1.15-1-1.5a3.38,3.38,0,0,1-.33-.53,3.69,3.69,0,0,1,.4.48c.25.33.64.8,1.08,1.45a44.45,44.45,0,0,1,3.34,5.74,61.86,61.86,0,0,1,3.57,9.19A116.14,116.14,0,0,1,223,400.13c.78,4.2,1.52,8.2,2.2,11.84s1.41,6.89,2.12,9.59,1.39,4.87,1.91,6.34c.24.75.47,1.31.6,1.7S230.06,430.2,230.05,430.2Z"/><path class="cls-8" d="M208.37,391.44c0,.12-.62.38-1.44.58s-1.52.27-1.55.15.62-.37,1.44-.57S208.34,391.33,208.37,391.44Z"/><path class="cls-8" d="M207.11,383.33a5.93,5.93,0,0,1-2,.21,5.36,5.36,0,0,1-2-.06,4.19,4.19,0,0,1,2-.37A4,4,0,0,1,207.11,383.33Z"/><path class="cls-8" d="M208.45,375.91c-.08.09-.72-.33-1.44-.94s-1.24-1.17-1.16-1.27.72.33,1.44.94S208.53,375.82,208.45,375.91Z"/><path class="cls-8" d="M212.08,369.05c.12,0,.09.6.07,1.3s0,1.28-.15,1.3-.31-.56-.29-1.31S212,369,212.08,369.05Z"/><path class="cls-8" d="M219.49,372.28c.1.07-.19.66-.64,1.31s-.91,1.13-1,1.06.19-.66.65-1.31S219.4,372.21,219.49,372.28Z"/><path class="cls-8" d="M224.31,380.64c0,.11-.57.47-1.38.8s-1.49.5-1.54.39.57-.47,1.38-.8S224.26,380.53,224.31,380.64Z"/><path class="cls-8" d="M227.23,389.24a3.68,3.68,0,0,1-1.89.83,3.75,3.75,0,0,1-2.06.07,7.33,7.33,0,0,1,2-.5A8.28,8.28,0,0,1,227.23,389.24Z"/><path class="cls-8" d="M213.82,386.8c-.11,0,0-.63.19-1.33s.49-1.23.6-1.19,0,.63-.18,1.32S213.94,386.84,213.82,386.8Z"/><path class="cls-8" d="M215.69,397.6a4.12,4.12,0,0,1,.54-1.79c.41-.94.83-1.66.94-1.61a4.13,4.13,0,0,1-.54,1.78C216.22,396.92,215.8,397.65,215.69,397.6Z"/><path class="cls-8" d="M211.07,400.55c0,.12-.8-.09-1.71-.37s-1.65-.55-1.62-.67.82,0,1.75.25S211.12,400.44,211.07,400.55Z"/><path class="cls-8" d="M213.74,409.36c.07.1-.44.58-1.14,1.08s-1.32.82-1.39.72.44-.58,1.13-1.08S213.67,409.26,213.74,409.36Z"/><path class="cls-8" d="M215.87,418.14c0,.11-.6.37-1.41.56s-1.48.26-1.51.15.6-.38,1.41-.57S215.84,418,215.87,418.14Z"/><path class="cls-8" d="M227.46,396.58c.06.1-.48.53-1.26.82s-1.48.33-1.5.21.6-.34,1.34-.62S227.4,396.47,227.46,396.58Z"/><path class="cls-8" d="M229.12,410.23c-.05.11-.7-.08-1.44-.43s-1.3-.72-1.25-.83.7.08,1.44.43S229.17,410.12,229.12,410.23Z"/><path class="cls-8" d="M232,420a4.36,4.36,0,0,1-1.89-.5,4.66,4.66,0,0,1-1.74-.92,4.68,4.68,0,0,1,1.9.51A4.57,4.57,0,0,1,232,420Z"/><path class="cls-8" d="M216.34,427.66c-.06-.11.72-.64,1.62-1.35s1.6-1.34,1.69-1.25-.48.86-1.42,1.6A3.92,3.92,0,0,1,216.34,427.66Z"/><path class="cls-8" d="M224.07,422.69c-.13,0-.29-.64-.59-1.41s-.61-1.36-.51-1.43.6.45.91,1.28S224.18,422.68,224.07,422.69Z"/><path class="cls-8" d="M222,410.94c-.07.1-.57-.14-1.12-.53s-.93-.79-.86-.89.57.14,1.12.53S222.09,410.84,222,410.94Z"/><path class="cls-8" d="M240,392.52c.07.1-.41.58-1.09,1.07s-1.27.82-1.34.72.41-.57,1.08-1.07S240,392.42,240,392.52Z"/><path class="cls-8" d="M242.74,399.94c0,.12-.75.28-1.69.17s-1.65-.41-1.61-.53.76,0,1.66.1S242.74,399.82,242.74,399.94Z"/><path class="cls-8" d="M231.08,401.6c0,.12-.68.37-1.59.43s-1.65-.09-1.64-.21.73-.16,1.61-.22S231.05,401.48,231.08,401.6Z"/><path class="cls-8" d="M232.08,394.59c0,.11-.72.13-1.5-.23s-1.23-.91-1.15-1,.62.27,1.33.6S232.09,394.46,232.08,394.59Z"/><path class="cls-8" d="M243.75,407.91c-.07.1-.8-.24-1.63-.77s-1.46-1-1.4-1.14.79.24,1.63.77S243.81,407.8,243.75,407.91Z"/><rect class="cls-7" x="209.97" y="428.73" width="62.25" height="11.03"/><polygon class="cls-7" points="214.61 437.58 222.18 470.55 259.29 470.55 267.57 437.58 214.61 437.58"/><path class="cls-8" d="M272.18,439.78c0,.12-14,.22-31.36.22s-31.36-.1-31.36-.22,14-.22,31.36-.22S272.18,439.66,272.18,439.78Z"/><path class="cls-8" d="M237.56,401.85c-.1.06-.53-.44-.95-1.11s-.68-1.28-.58-1.34.53.43.95,1.11S237.66,401.78,237.56,401.85Z"/><path class="cls-8" d="M237.59,410.72c-.12,0,0-.79.32-1.67s.63-1.58.74-1.54,0,.79-.32,1.68S237.7,410.76,237.59,410.72Z"/><path class="cls-8" d="M240.62,420c-.11,0-.57-.69-1-1.66a4.53,4.53,0,0,1-.64-1.86c.11,0,.57.7,1,1.67A4.55,4.55,0,0,1,240.62,420Z"/><path class="cls-8" d="M234.05,427.54c-.09-.08.28-.66.83-1.29s1.07-1.08,1.16-1-.28.65-.83,1.29S234.14,427.62,234.05,427.54Z"/><path class="cls-8" d="M232.67,413.93c0,.12-.62.11-1.34,0s-1.28-.32-1.26-.44.62-.12,1.34,0S232.69,413.81,232.67,413.93Z"/><rect class="cls-4" x="301.62" y="352.9" width="147.62" height="117.72"/><g class="cls-10"><path d="M312.38,353.15c17.37,6.2,36.55,7.52,55.2,7.87,3.86.08,7.77.07,11.51,1s7.36,3.07,9.27,6.43c2.09,3.65,1.87,8.22.69,12.25s-3.25,7.75-4.73,11.69A43.63,43.63,0,0,0,382,414.2a20.52,20.52,0,0,0,3.08,8.8,10.13,10.13,0,0,0,7.82,4.58c5.61.08,9.45-5.44,12.23-10.31,11.41-20,23.75-42.71,31.05-64.53Z"/></g><path class="cls-9" d="M351.92,470c-.14,0-.26-26.1-.26-58.28s.12-58.27.26-58.27.26,26.08.26,58.27S352.06,470,351.92,470Z"/><path class="cls-7" d="M412.41,265.91c-.44-2.94-9.21-12.64-9.21-12.64s-4.39-17.61-5.71-22.8a16.92,16.92,0,0,0-1.9-4.26,34.35,34.35,0,0,0-12.81-12.35L370.64,207l-2.91-6.47-29.17-15-7.91,13.95s-19.21,6.11-21.76,10.47,1.27,62.79,1.27,62.79-8.05,33.73-9.74,40.71.55,15.3.55,15.3l14.3-18c4.45-5.57,14.21-8.14,21.22-8l59.91.26L394,286.28l48.44,9.42s8.34-16.25,9-16.58S412.41,265.91,412.41,265.91Z"/><path class="cls-6" d="M337.31,205c-.42-.43,3.39,12.42,8.16,25.51a64.31,64.31,0,0,1,3.87,22.07V300l28.72-1.95-4.29-31.22s-3.5-20.15-4.48-27.81c-.9-7-4-26-4-26S349.34,217.27,337.31,205Z"/><path class="cls-8" d="M401.05,277.68a1.92,1.92,0,0,1,0-.72,10.49,10.49,0,0,1,.38-1.93,13,13,0,0,1,8.85-8.87,10.49,10.49,0,0,1,1.93-.38,1.92,1.92,0,0,1,.72,0c0,.09-1,.2-2.54.73a14.45,14.45,0,0,0-5.31,3.31,14.22,14.22,0,0,0-3.3,5.32C401.25,276.68,401.14,277.7,401.05,277.68Z"/><path class="cls-8" d="M402.53,266.31a9.13,9.13,0,0,1,4.39-1.27,9,9,0,0,1,4.53.54c0,.15-2-.23-4.49,0S402.59,266.46,402.53,266.31Z"/><g class="cls-10"><path d="M307.26,292.18,304.77,295a20.11,20.11,0,0,0,10.12,6.7,52,52,0,0,0,12.21,1.1,17.79,17.79,0,0,0,4.94-.47c1.62-.47,3.14-1.39,4.82-1.49a12.46,12.46,0,0,1,3.36.48,6.56,6.56,0,0,0,3.35.05,2.67,2.67,0,0,0,2-2.48A177,177,0,0,0,307.26,292.18Z"/></g><path class="cls-11" d="M389.26,295.8l-7.05-7.49-14.49-3.66s-13.29,4-13.61,4-11.56-3.07-11.56-3.07L338.62,300l20.25,1.38,23.13-.92s1.2-1.12.49-1.89,3.86,1.3,4.4,1.32,1.59.44,2.3-.42C389.68,298.84,390.34,297,389.26,295.8Z"/><path class="cls-12" d="M382.49,298.53a12.6,12.6,0,0,1-2.31-.66c-1.4-.44-3.35-1-5.52-1.6s-4.17-1-5.62-1.26a13.35,13.35,0,0,1-2.33-.54,9.47,9.47,0,0,1,2.39.18,52.31,52.31,0,0,1,5.69,1.12,51,51,0,0,1,5.51,1.75A9.39,9.39,0,0,1,382.49,298.53Z"/><path class="cls-12" d="M389.26,295.8a31,31,0,0,1-3.21-1c-2-.66-4.74-1.48-7.8-2.33s-5.8-1.83-7.86-1.95a21.08,21.08,0,0,0-3.34.13,3,3,0,0,1,.87-.29,9.36,9.36,0,0,1,2.49-.2c2.13,0,4.95.9,8,1.8s5.83,1.74,7.78,2.5c1,.37,1.76.7,2.29.95A3,3,0,0,1,389.26,295.8Z"/><path class="cls-7" d="M308.89,210s-10.45,7.27-13,17.73-13.56,53.21-11.3,59.6S330.81,300,330.81,300l5.2-22-22.31-6.11s.28-20.35.56-28.78S308.89,210,308.89,210Z"/><polygon class="cls-6" points="335.72 281.31 342.91 283.08 338.59 299.66 331.52 298.53 335.72 281.31"/><path class="cls-8" d="M284.43,285.07s0,.36.11,1a4.89,4.89,0,0,0,1.53,2.5c1.91,1.78,5.56,3.26,10.19,4.09h0c2.11.69,4.52,1.25,7.1,1.83s5.34,1.17,8.27,1.76c5.84,1.2,12.31,2.45,19.17,3.74l-.3.19c.5-2,1-4.19,1.55-6.38,1.24-5,2.43-9.92,3.56-14.55l.18.3L316,273.93h0a19.58,19.58,0,0,0-8.65-1.52,18.94,18.94,0,0,0-6.53,1.54A22,22,0,0,0,297,276l-.91.67a1.8,1.8,0,0,1-.32.21s.09-.1.28-.26.49-.41.88-.71a19.67,19.67,0,0,1,3.73-2.19,18.73,18.73,0,0,1,6.6-1.65,19.87,19.87,0,0,1,8.83,1.46h0L336,279.1l.23.07-.06.24c-1.12,4.63-2.31,9.51-3.54,14.56-.53,2.18-1.06,4.33-1.56,6.37l-.06.24-.24,0c-6.85-1.3-13.32-2.57-19.17-3.8-2.92-.61-5.69-1.21-8.27-1.81s-5-1.17-7.12-1.9h0c-4.67-.89-8.33-2.43-10.26-4.3a5,5,0,0,1-1.5-2.62A3.36,3.36,0,0,1,284.43,285.07Z"/><path class="cls-8" d="M314.9,273.38c-.06.07-.8-.62-2.15-1.52a20.64,20.64,0,0,0-11.88-3.46c-1.61,0-2.61.22-2.63.13a8.4,8.4,0,0,1,2.61-.5A18.32,18.32,0,0,1,313,271.56,8.15,8.15,0,0,1,314.9,273.38Z"/><path class="cls-8" d="M317.83,237.58a7,7,0,0,1,0,1.34c0,.86-.09,2.11-.21,3.64-.24,3.07-.7,7.31-1.5,11.95a83.05,83.05,0,0,1-2.78,11.72c-.24.73-.49,1.38-.71,2l-.64,1.44a6.53,6.53,0,0,1-.68,1.15,6.9,6.9,0,0,1,.5-1.23c.16-.44.34-.92.55-1.46s.41-1.24.63-2a102.4,102.4,0,0,0,2.61-11.7c.8-4.62,1.32-8.84,1.66-11.89.15-1.45.27-2.66.37-3.62A6.45,6.45,0,0,1,317.83,237.58Z"/><path class="cls-8" d="M343.31,226.25s-.1-.28-.34-.74a4.49,4.49,0,0,0-1.5-1.65,3.79,3.79,0,0,0-3.26-.47,4.22,4.22,0,0,0-2.74,3.1l-.14.72-.31-.66a70.24,70.24,0,0,1-3-7.72,40.59,40.59,0,0,1-2.26-13.64,22.92,22.92,0,0,1,.18-2.4c.12-.7.21-1.3.31-1.78a8.57,8.57,0,0,1,.45-1.48,33.91,33.91,0,0,0-.57,5.66,43.28,43.28,0,0,0,2.38,13.48,77.25,77.25,0,0,0,3,7.68l-.44.05A4.57,4.57,0,0,1,338.1,223a4,4,0,0,1,3.52.62,4.34,4.34,0,0,1,1.48,1.81,2.41,2.41,0,0,1,.19.59C343.32,226.17,343.33,226.24,343.31,226.25Z"/><path class="cls-8" d="M367.7,228.5a6,6,0,0,1-.24-1.19,12.63,12.63,0,0,1-.21-3.35,7,7,0,0,1,2.41-4.43,4.64,4.64,0,0,1,2.91-1.05,4,4,0,0,1,3.06,1.37l-.44.25c-.3-.76-.62-1.57-.95-2.39-1.86-4.71-3.53-9-4.7-12.09-.56-1.48-1-2.72-1.37-3.68a7.22,7.22,0,0,1-.44-1.38,8.23,8.23,0,0,1,.63,1.31c.39.95.91,2.16,1.52,3.63,1.27,3.07,3,7.32,4.85,12l.94,2.39.61,1.55-1-1.29a3.46,3.46,0,0,0-2.66-1.2,4.07,4.07,0,0,0-2.62.91,6.78,6.78,0,0,0-2.36,4.11,14.08,14.08,0,0,0,.06,3.28A5.65,5.65,0,0,1,367.7,228.5Z"/><path class="cls-8" d="M386.24,231c.14,0,2.4,15.18,5.05,34s4.67,34,4.53,34-2.4-15.18-5.05-34S386.1,231,386.24,231Z"/><g class="cls-10"><path d="M332.27,219a31.67,31.67,0,0,0,2.49,11.29c1.09-1.34,2.3-2.76,4-3.16,2.06-.49,4.15.78,5.64,2.33a10.12,10.12,0,0,0-1.8-4.31,5,5,0,0,0-4-2.07,3.5,3.5,0,0,0-3.34,2.72l-2.87-6.73"/></g><path class="cls-8" d="M315.39,230c-.1,0-.07-1-.37-2.68a16.45,16.45,0,0,0-2.43-6,17.47,17.47,0,0,0-2.29-2.72,15.41,15.41,0,0,0-2.29-1.78c-1.4-.89-2.39-1.23-2.36-1.32a2.16,2.16,0,0,1,.72.18,4.17,4.17,0,0,1,.8.31,8.88,8.88,0,0,1,1,.51,13.72,13.72,0,0,1,2.43,1.75,16.15,16.15,0,0,1,2.39,2.78,14.86,14.86,0,0,1,2.36,6.18,10.07,10.07,0,0,1,.1,2A2.44,2.44,0,0,1,315.39,230Z"/><path class="cls-11" d="M373.43,158.61a21.43,21.43,0,0,0-21.86-19.14l-1.11,0c-11.95,1-17.76,11.71-16.43,23.62l3.28,41.9,1.39,1.7A22.43,22.43,0,0,0,365.31,213h0l-.92-13.48s11.45-2.08,11.3-13.58C375.61,180.37,374.53,168.94,373.43,158.61Z"/><path class="cls-12" d="M364.48,199.49a27.92,27.92,0,0,1-15.18-4s3.75,8.19,15.2,6.85Z"/><path class="cls-8" d="M369.79,168.13a1.63,1.63,0,0,1-1.54,1.69,1.57,1.57,0,0,1-1.73-1.43,1.65,1.65,0,0,1,1.54-1.7A1.57,1.57,0,0,1,369.79,168.13Z"/><path class="cls-8" d="M370.52,161.87c-.13.21-1.43.34-3,1.19s-2.49,1.88-2.71,1.87,0-.29.39-.76a7.44,7.44,0,0,1,2.11-1.63,6.78,6.78,0,0,1,2.44-.81C370.34,161.68,370.59,161.78,370.52,161.87Z"/><path class="cls-8" d="M353.2,169a1.66,1.66,0,0,1-1.55,1.7,1.58,1.58,0,0,1-1.73-1.44,1.65,1.65,0,0,1,1.54-1.7A1.58,1.58,0,0,1,353.2,169Z"/><path class="cls-8" d="M352.94,164.29c-.23.05-1.3-.67-3-1.09s-3.1-.33-3.26-.47.18-.2.79-.25a8.2,8.2,0,0,1,2.65.25,7.57,7.57,0,0,1,2.36,1C352.93,164.05,353.05,164.27,352.94,164.29Z"/><path class="cls-8" d="M359.88,178a11.38,11.38,0,0,1,2.85-.59c.45-.06.88-.16.94-.47a2.29,2.29,0,0,0-.33-1.33c-.45-1.08-.93-2.21-1.42-3.4-2-4.84-3.43-8.83-3.23-8.91s2,3.79,3.94,8.63c.47,1.2.93,2.33,1.36,3.42a2.61,2.61,0,0,1,.28,1.77,1.15,1.15,0,0,1-.72.68,3.37,3.37,0,0,1-.77.12A11,11,0,0,1,359.88,178Z"/><path class="cls-8" d="M353,157.47c-.2.47-2,.15-4,.3s-3.79.64-4,.19c-.11-.21.2-.65.9-1.08a6.75,6.75,0,0,1,3-.9,6.85,6.85,0,0,1,3.12.52C352.69,156.85,353.06,157.24,353,157.47Z"/><path class="cls-8" d="M370.48,157.86c-.38.4-1.91,0-3.73,0s-3.37.31-3.73-.11c-.16-.2.08-.61.75-1a6.55,6.55,0,0,1,6,.08C370.43,157.25,370.65,157.66,370.48,157.86Z"/><path class="cls-8" d="M376.78,148.44a2.19,2.19,0,0,0-2.3-1.76,4.74,4.74,0,0,0,1.58-.81,1.58,1.58,0,0,0,.55-1.61c-.3-.89-1.43-1.07-2.34-1.32a6,6,0,0,1-3-2c-1.09-1.38-1.51-3.17-2.45-4.66A7.65,7.65,0,0,0,357,135a7.95,7.95,0,0,0-12.78,1.95,9.28,9.28,0,0,0-12.71,10.16l7.16,4.39a3.87,3.87,0,0,1,4.72-3.36c2.16.63,3.54,3.13,5.79,3.3,1.74.13,3.23-1.22,4.92-1.68,2.06-.55,4.22.28,6.08,1.32s3.61,2.34,5.67,2.86a11.83,11.83,0,0,0,7.3-.87,7.56,7.56,0,0,0,2.7-1.67A3.37,3.37,0,0,0,376.78,148.44Z"/><path class="cls-8" d="M339.88,148.08l32.79-.19a15,15,0,0,0-5-5.43,25.53,25.53,0,0,0-15-4.93c-5.34.05-16,6.87-19.82,10.66-3,3-2.92,5.59-2.92,5.59-.38,4.26,2.14,9,3.2,13.17.55,2.14,1.67,8.62,1.67,8.62h0c1.8,0,2.44-1.51,2.11-3.29l-.53-7a10.6,10.6,0,0,0,2.89-12.45C338.82,152.22,337.75,149.33,339.88,148.08Z"/><path class="cls-8" d="M335.91,164.82c-1.67-5.81-3.2-12-1.43-17.81l-1,0-.41.3a4.59,4.59,0,0,0-5.15,7.07,4,4,0,0,0-4,3.47,7.34,7.34,0,0,0,1.06,3.83,9.07,9.07,0,0,1,1.24,3.79,2.86,2.86,0,0,1-2.18,3,3.27,3.27,0,0,0,3.71,1.81,6.53,6.53,0,0,1-2.25,2.84c2.14,1.45,5.07,1,7.39-.17a6.3,6.3,0,0,0,3.3-3.06C336.85,168.23,336.38,166.45,335.91,164.82Z"/><path class="cls-11" d="M335.37,171.59c-.2-.08-8-2.14-7.5,5.72s8.24,5.78,8.24,5.55S335.37,171.59,335.37,171.59Z"/><path class="cls-12" d="M334.23,180s-.13.11-.35.23a1.42,1.42,0,0,1-1,.08c-.84-.26-1.62-1.54-1.74-2.95a4.56,4.56,0,0,1,.27-2,1.6,1.6,0,0,1,1-1.11.7.7,0,0,1,.83.33c.12.21.08.37.12.38s.16-.14.08-.46a.9.9,0,0,0-.34-.47,1,1,0,0,0-.77-.16,2,2,0,0,0-1.36,1.3,4.73,4.73,0,0,0-.34,2.22c.14,1.58,1,3,2.19,3.27a1.44,1.44,0,0,0,1.24-.28C334.23,180.2,334.26,180,334.23,180Z"/><path class="cls-9" d="M327.22,165.07s-.22-.29-.15-.91a3,3,0,0,1,1.47-2,9,9,0,0,1,3.6-.86,4.41,4.41,0,0,0,3.58-1.83,6.49,6.49,0,0,0,.62-4.12c-.19-1.32-.54-2.52-.71-3.55a5.93,5.93,0,0,1,.05-3.37,15.6,15.6,0,0,0,.37,3.29c.23,1,.62,2.16.85,3.55a6.92,6.92,0,0,1-.65,4.52,3.91,3.91,0,0,1-1.88,1.59,8,8,0,0,1-2.17.48,9.37,9.37,0,0,0-3.45.68,2.86,2.86,0,0,0-1.44,1.72A5.58,5.58,0,0,0,327.22,165.07Z"/><path class="cls-9" d="M325.32,161.65s-.17-.22-.24-.71a3.35,3.35,0,0,1,.39-2,3.56,3.56,0,0,1,.93-1.12,4.12,4.12,0,0,1,1.51-.71,4.14,4.14,0,0,0,1.49-.61A1.78,1.78,0,0,0,330,155c0-.6-.06-1.23-.05-1.86a9.24,9.24,0,0,1,.2-1.78,8.64,8.64,0,0,1,1.13-2.81,2.14,2.14,0,0,1,1.74-1.1c.52,0,.73.24.71.26s-.26-.09-.69,0a2,2,0,0,0-1.4,1.09,9.49,9.49,0,0,0-.94,2.69,10,10,0,0,0-.15,1.68c0,.58.09,1.19.07,1.88a2.41,2.41,0,0,1-.83,1.88,4.7,4.7,0,0,1-1.72.69,3.27,3.27,0,0,0-2.21,1.49A4.39,4.39,0,0,0,325.32,161.65Z"/><path class="cls-9" d="M371.28,140.94c.05,0-.59.43-1.62-.05a4.59,4.59,0,0,1-1.48-1.27,6.62,6.62,0,0,0-1.83-1.62,5.46,5.46,0,0,0-5.92.4c-1,.7-1.83,1.68-3,2.51a5.24,5.24,0,0,1-2,.91,4.34,4.34,0,0,1-2.23-.21c-1.42-.51-2.54-1.38-3.76-1.82a9.93,9.93,0,0,0-9.63,1.38,10.54,10.54,0,0,0-2.81,3.29c-.49.91-.67,1.47-.72,1.45s0-.15.08-.42a7.7,7.7,0,0,1,.43-1.14,10.09,10.09,0,0,1,9-5.79,10.23,10.23,0,0,1,3.91.67c1.31.47,2.45,1.35,3.74,1.8a3.64,3.64,0,0,0,1.92.19,4.55,4.55,0,0,0,1.73-.8c1.06-.76,1.94-1.74,3-2.48a5.76,5.76,0,0,1,3.43-1.14,6.17,6.17,0,0,1,3,.83,6.4,6.4,0,0,1,1.87,1.77,4.46,4.46,0,0,0,1.33,1.27A2.23,2.23,0,0,0,371.28,140.94Z"/><path class="cls-8" d="M355.51,180.08c.25-.06.53,1.62,2.17,2.57s3.4.47,3.45.7-.35.39-1.1.54a4.25,4.25,0,0,1-2.86-.49,3.65,3.65,0,0,1-1.71-2.17C355.27,180.54,355.39,180.09,355.51,180.08Z"/><path class="cls-7" d="M459,336.33A15.38,15.38,0,0,0,448,332.68l-6.76,21.48c4.95.22,9.89,2.77,14.68,1.46a10.47,10.47,0,0,0,7.28-8.6A12.45,12.45,0,0,0,459,336.33Z"/><path class="cls-2" d="M448.07,332.18c0-.18.73-.31,2.05-.3a17,17,0,0,1,5.53,1,15,15,0,0,1,6.73,5.24,14,14,0,0,1,2.25,4.65,12.45,12.45,0,0,1,.17,5.64,11.38,11.38,0,0,1-2.46,5.12,10.76,10.76,0,0,1-4.36,3,15.67,15.67,0,0,1-8.5.55,26.74,26.74,0,0,1-5.3-1.65c-1.19-.51-1.81-.89-1.76-1.06s.78-.12,2.05.09,3.07.59,5.27.79a15.09,15.09,0,0,0,7.34-.95,8.62,8.62,0,0,0,3.3-2.43,9.2,9.2,0,0,0,1.86-4,11,11,0,0,0-1.83-8.39,14.4,14.4,0,0,0-5.5-4.92,24.85,24.85,0,0,0-4.93-1.72C448.75,332.57,448.05,332.36,448.07,332.18Z"/><path class="cls-7" d="M385.45,412.73l-14.7,41.19,51.15,18.55c1.47-5-21.44-24.4-21.44-24.4l10.51-26Z"/><g class="cls-13"><path class="cls-6" d="M385.45,440.12a2.22,2.22,0,0,0-2.31,1.86,2.14,2.14,0,0,0,1.83,2.3,2.34,2.34,0,0,0,2.43-2c0-1.09-1.08-2.34-2.16-2.19"/></g><path class="cls-6" d="M370.75,453.92l1.48-4.16,48.59,19.38s1.91,1.82,1.08,3.33Z"/><path class="cls-8" d="M401.39,448.11c-.1.25-1.39-.09-2.91.27s-2.56,1.16-2.75,1,.7-1.49,2.55-1.89S401.53,447.9,401.39,448.11Z"/><path class="cls-8" d="M406,452.28c0,.26-1.27.29-2.5,1s-1.88,1.78-2.13,1.68.11-1.58,1.66-2.48S406,452,406,452.28Z"/><path class="cls-8" d="M406.67,459.8c-.25,0-.14-1.4,1-2.54s2.51-1.25,2.54-1-1,.72-1.88,1.67S406.92,459.87,406.67,459.8Z"/><path class="cls-8" d="M403.12,441.92c-.18.19-1.2-.57-2.65-1s-2.71-.37-2.76-.63,1.33-.77,3-.25S403.32,441.77,403.12,441.92Z"/><path class="cls-8" d="M404.11,435.41a5.17,5.17,0,0,1-2.56-.94,12.11,12.11,0,0,1-2.38-1.8,12.63,12.63,0,0,1-1.19-1.31,3.32,3.32,0,0,1-.55-.89,1.15,1.15,0,0,1,.36-1.37,1.47,1.47,0,0,1,1.3-.17,3.44,3.44,0,0,1,.92.48,9.85,9.85,0,0,1,1.39,1.12,9.42,9.42,0,0,1,1.8,2.41c.79,1.53.86,2.61.75,2.63s-.43-.95-1.31-2.3a10.88,10.88,0,0,0-1.82-2.11,9.56,9.56,0,0,0-1.31-1c-.49-.34-.95-.51-1.17-.32s-.11.11,0,.31a2.42,2.42,0,0,0,.41.64,13.76,13.76,0,0,0,1.07,1.27,15.9,15.9,0,0,0,2.13,1.85C403.22,434.86,404.16,435.27,404.11,435.41Z"/><path class="cls-8" d="M403.65,435.65a4.41,4.41,0,0,1,.22-2.72,9,9,0,0,1,1.37-2.68,8.8,8.8,0,0,1,1.22-1.32,2.26,2.26,0,0,1,2.1-.7,1.28,1.28,0,0,1,.81,1.1,3.76,3.76,0,0,1-.08,1,5.86,5.86,0,0,1-.62,1.72,6.21,6.21,0,0,1-2.05,2.25c-1.48,1-2.64.89-2.63.8a24.26,24.26,0,0,0,2.24-1.32,6.26,6.26,0,0,0,1.68-2.12,5.55,5.55,0,0,0,.49-1.49c.12-.58.07-1.09-.15-1.11a1.59,1.59,0,0,0-1.2.52,8.31,8.31,0,0,0-1.14,1.16,10,10,0,0,0-1.42,2.37C403.87,434.63,403.8,435.66,403.65,435.65Z"/><path class="cls-8" d="M335.89,302.73c-7.76.18-15.12,1.27-20.47,6.9-7.08,7.46-15.85,18.1-16.35,25.47-.74,11,5.91,14.3,10.76,17a13.43,13.43,0,0,0,7.05,1.63l89.68-.68,2.82-15.19-58-14.29,2.41-21.83Z"/><path class="cls-8" d="M353.78,301.72l28.22-1.3s48.73,2.71,59.13,12.24,9.09,20.35,5.63,30.75-34,76.88-34,76.88,2.48,4.23,1.09,8.45a11.15,11.15,0,0,1-8,7.58l-27.12-10s-3.68-1.3-1.08-4.77,4.33-4.11,4.33-4.11v-6.93s9.53-17.33,10.4-19.71,10-37.65,10-37.65l6.06-10.42s-14.67-6.9-27.39-11.9l-29.7-7.32Z"/><path class="cls-9" d="M399.54,425.1c-.05.07-.91-.61-2.38-1.56a33.21,33.21,0,0,0-6.07-3.08,32.55,32.55,0,0,0-6.59-1.73,27.93,27.93,0,0,1-2.82-.42,10.37,10.37,0,0,1,2.87.05,27,27,0,0,1,6.72,1.61,26.67,26.67,0,0,1,6.1,3.27A10.52,10.52,0,0,1,399.54,425.1Z"/><path class="cls-9" d="M413.1,420.34a9.32,9.32,0,0,1-1.58-1.66c-.92-1.07-2.13-2.6-3.41-4.33s-2.37-3.35-3.12-4.54a9.49,9.49,0,0,1-1.11-2,10.57,10.57,0,0,1,1.42,1.79l3.23,4.44,3.28,4.41A11,11,0,0,1,413.1,420.34Z"/><path class="cls-9" d="M423,333.25c0,.08-1,.3-2.56.82a27.32,27.32,0,0,0-5.84,2.74,28.18,28.18,0,0,0-5,4,26.9,26.9,0,0,1-1.87,1.95,9.71,9.71,0,0,1,1.6-2.2,22.79,22.79,0,0,1,5-4.23,22.56,22.56,0,0,1,6-2.65A9.13,9.13,0,0,1,423,333.25Z"/><path class="cls-9" d="M395.29,380.33a3,3,0,0,1,.11-.59l.42-1.65c.4-1.5.95-3.55,1.63-6,1.43-5.16,3.39-12.17,5.55-19.91,1.12-3.89,2.09-7.59,3.17-10.95a22.87,22.87,0,0,1,5.11-7.79,28.87,28.87,0,0,1,4.85-4c.62-.4,1.11-.7,1.46-.89a4.22,4.22,0,0,1,.53-.26s-.67.46-1.88,1.31a33,33,0,0,0-4.7,4.09,22.87,22.87,0,0,0-4.92,7.7c-1,3.31-2,7-3.13,10.92-2.21,7.73-4.22,14.72-5.69,19.87l-1.78,6c-.21.66-.38,1.2-.52,1.62A2.54,2.54,0,0,1,395.29,380.33Z"/><path class="cls-9" d="M370.34,329.54c-.14,0-.74-5.26-1.33-11.78s-.94-11.82-.8-11.83.73,5.26,1.32,11.78S370.48,329.53,370.34,329.54Z"/><path class="cls-9" d="M323.38,343.62c-.08,0-.51-.81-1.39-2.07a21,21,0,0,0-4.1-4.3,20.79,20.79,0,0,0-5.17-2.93c-1.43-.56-2.36-.77-2.34-.86a7.61,7.61,0,0,1,2.46.51,17.75,17.75,0,0,1,9.45,7.38A7.7,7.7,0,0,1,323.38,343.62Z"/><path class="cls-9" d="M340.67,324.47c-.05.08-1.25-.69-3.32-1.63A31.36,31.36,0,0,0,320,320.35c-2.25.33-3.61.73-3.64.64a3.44,3.44,0,0,1,.94-.36A19.71,19.71,0,0,1,320,320a28.33,28.33,0,0,1,17.56,2.52,20.28,20.28,0,0,1,2.36,1.36A3.91,3.91,0,0,1,340.67,324.47Z"/><path class="cls-9" d="M408.22,337.83a3,3,0,0,1-.7-.12l-2-.43-7.3-1.64c-6.18-1.39-14.72-3.24-24.18-5.11S356,327.11,349.73,326l-7.38-1.27-2-.36a2.81,2.81,0,0,1-.69-.16,6.3,6.3,0,0,1,.71.06l2,.26c1.75.24,4.29.61,7.41,1.11,6.25,1,14.87,2.46,24.35,4.33s18,3.79,24.16,5.27c3.08.74,5.56,1.35,7.27,1.8l2,.53A3.86,3.86,0,0,1,408.22,337.83Z"/><path class="cls-9" d="M351.37,326.12c-.1,0-.31-1.18-1.24-2.86a12.37,12.37,0,0,0-2.05-2.66,34,34,0,0,0-3.14-2.71,47.09,47.09,0,0,0-6.42-4,21.18,21.18,0,0,1-2.75-1.56,16.89,16.89,0,0,1,2.91,1.23,37.22,37.22,0,0,1,6.58,3.91,28.65,28.65,0,0,1,3.17,2.79,12.16,12.16,0,0,1,2,2.81,9.92,9.92,0,0,1,.8,2.2C351.38,325.81,351.41,326.12,351.37,326.12Z"/><path class="cls-8" d="M451.26,339.68c.11.11-1.39,1.63-2.55,3.94S447.16,348,447,348a9.08,9.08,0,0,1,1.24-4.6A9.19,9.19,0,0,1,451.26,339.68Z"/><g class="cls-10"><path d="M387.07,237.2l6.42,45.22.32.73A97,97,0,0,0,387.07,237.2Z"/></g><path class="cls-4" d="M421.64,263.19,400.77,299.7l-51.43,1.12-.13,2.32,49.8-.37,1.58,0,52.59.1L463.8,284.5,477.38,265a1.92,1.92,0,0,0-1.58-3l-52.5.2A1.94,1.94,0,0,0,421.64,263.19Z"/><path class="cls-11" d="M463.8,284.5s2.7,2.47,2.28,4.58-.29,3.67-2.28,3.81a3,3,0,0,1-2.7,3.13s.61,3.3-3.23,3.87c0,0-1.18,3.52-3.6,2.67a21.32,21.32,0,0,1-4-1.85l-.71-1.28s-3.56-1.34-2.69-3.35c.54-1.22,2.38-1.54,2.38-1.54a3.45,3.45,0,0,1,.23-3.13c.85-1.14,3.63-.19,3.63-.19a4,4,0,0,1,.88-2.73c.95-1.12,5.38,1.93,5.38,1.93l2.41-2.88Z"/><path class="cls-12" d="M457.87,299.89a25.42,25.42,0,0,1-4.44-2.45,25,25,0,0,1-4.16-2.9,25.42,25.42,0,0,1,4.44,2.45A24.33,24.33,0,0,1,457.87,299.89Z"/><path class="cls-12" d="M461.1,296a21.14,21.14,0,0,1-4.12-2.18,21.76,21.76,0,0,1-3.85-2.62,20.44,20.44,0,0,1,4.12,2.17A20.89,20.89,0,0,1,461.1,296Z"/><path class="cls-12" d="M456.7,288.78c.08-.15,1.73.72,3.65,1.94a30.93,30.93,0,0,1,3.43,2.28c-.07.17-1.79-.61-3.71-1.84A19.59,19.59,0,0,1,456.7,288.78Z"/><path class="cls-8" d="M477.39,263.41l-.26,0-.74,0-2.83.05-10.45.08-34.45.08h-2.51a2.06,2.06,0,0,0-1.91.9l-2.34,4.22c-1.54,2.77-3,5.45-4.43,8-2.83,5.08-5.38,9.67-7.54,13.53s-3.88,6.92-5.11,9.1c-.6,1-1.07,1.87-1.42,2.46l-.38.64a.87.87,0,0,1-.14.21s0-.09.1-.24.2-.39.33-.66l1.33-2.51c1.2-2.2,2.89-5.33,5-9.18s4.64-8.48,7.44-13.59l4.41-8,2.35-4.25a2.58,2.58,0,0,1,2.34-1.13h2.51l34.45.07,10.45.09,2.83,0,.74,0A.9.9,0,0,1,477.39,263.41Z"/><path class="cls-6" d="M440.38,281.76a2.21,2.21,0,1,0,3.31-.39A2.37,2.37,0,0,0,440.38,281.76Z"/><g class="cls-10"><path d="M294.39,267.64c-.45.18-1,.48-1,1a.87.87,0,0,0,.74.78,10.51,10.51,0,0,0,2.13-.57c5.41-1.19,9.87-.05,15,2l.16-.17C309.43,266.28,300.2,265.3,294.39,267.64Z"/></g><path class="cls-8" d="M573,470.63c0,.14-90.45.26-202,.26s-202-.12-202-.26,90.44-.26,202-.26S573,470.48,573,470.63Z"/><path class="cls-9" d="M266.41,151.88c.17.17,33.38-11.25,33.38-11.25L287,111.33l-29.56,11.3L273.72,132Z"/><path class="cls-9" d="M282,120.16V80.26s45.81-8.37,78.81-7.88,67,5.91,67,5.91V116.6S324.35,107.36,282,120.16Z"/><path class="cls-8" d="M281.75,120.2l18,20.61V116.6S284.7,118.4,281.75,120.2Z"/><path class="cls-8" d="M282,80.26c.14,0,.2,8.94.14,20s-.24,20-.38,20-.21-8.93-.14-20S281.84,80.26,282,80.26Z"/><path class="cls-9" d="M443.31,148.82c-.17.17-33.37-11.25-33.37-11.25l12.76-29.3,29.56,11.3L436,128.92Z"/><path class="cls-8" d="M428,117.14l-18,20.61V115.29A133.08,133.08,0,0,1,428,117.14Z"/><path class="cls-8" d="M427.79,78.3c.14,0,.3,8.69.35,19.41s0,19.43-.16,19.43-.31-8.69-.36-19.42S427.64,78.3,427.79,78.3Z"/><polygon class="cls-9" points="448.29 81.92 450.9 85 458.28 81.92 456.13 78.7 448.29 81.92"/><path class="cls-7" d="M444.9,67.32a3.84,3.84,0,1,1-3.84-3.84A3.84,3.84,0,0,1,444.9,67.32Z"/><path class="cls-7" d="M358.88,124.6a1.92,1.92,0,1,1-1.92-1.93A1.92,1.92,0,0,1,358.88,124.6Z"/><path class="cls-7" d="M269.43,95.74A1.46,1.46,0,1,1,268,94.28,1.46,1.46,0,0,1,269.43,95.74Z"/><polygon class="cls-9" points="264.01 79.66 268.31 79.93 270.36 71.47 266.34 71.64 264.01 79.66"/><polygon class="cls-7" points="398.41 147.19 399.86 151.26 408.44 149.82 406.71 146.19 398.41 147.19"/><polygon class="cls-9" points="311.63 123.77 308.98 127.17 314.79 133.64 316.93 130.23 311.63 123.77"/><polygon class="cls-7" points="301.36 43.89 311.52 54.25 325.81 48.85 326.37 52.39 320.18 65.07 325.89 74.53 325.41 77.36 311.58 75.03 303.41 84 301.49 82.54 299.79 71.13 286.89 64.42 286.33 61.81 299.31 58.26 301.36 43.89"/><g class="cls-10"><polygon points="301.36 43.89 311.52 54.25 325.81 48.85 326.37 52.39 320.18 65.07 325.89 74.53 325.41 77.36 311.58 75.03 303.41 84 301.49 82.54 299.79 71.13 286.89 64.42 286.33 61.81 299.31 58.26 301.36 43.89"/></g><polygon class="cls-7" points="301.36 40.99 311.52 51.35 325.81 48.85 319.1 61.71 325.89 74.53 311.58 72.12 301.49 82.54 299.36 68.19 286.33 61.81 299.31 55.35 301.36 40.99"/><polygon class="cls-7" points="406.61 43.89 396.45 54.25 382.16 48.85 381.59 52.39 387.78 65.07 382.08 74.53 382.56 77.36 396.38 75.03 404.56 84 406.48 82.54 408.17 71.13 421.07 64.42 421.64 61.81 408.65 58.26 406.61 43.89"/><g class="cls-10"><polygon points="406.61 43.89 396.45 54.25 382.16 48.85 381.59 52.39 387.78 65.07 382.08 74.53 382.56 77.36 396.38 75.03 404.56 84 406.48 82.54 408.17 71.13 421.07 64.42 421.64 61.81 408.65 58.26 406.61 43.89"/></g><polygon class="cls-7" points="406.61 40.99 396.45 51.35 382.16 48.85 388.87 61.71 382.08 74.53 396.38 72.12 406.48 82.54 408.61 68.19 421.64 61.81 408.65 55.35 406.61 40.99"/><polygon class="cls-7" points="353.65 25.73 362.1 42.23 381.59 41.09 380.93 45.63 368.55 58.74 371.91 72.45 370.25 75.72 354.26 67.61 340.87 75.44 339.08 72.94 341.36 58.37 328.18 45.26 328.48 41.87 345.69 42.48 353.65 25.73"/><g class="cls-10"><polygon points="353.65 25.73 362.1 42.23 381.59 41.09 380.93 45.63 368.55 58.74 371.91 72.45 370.25 75.72 354.26 67.61 340.87 75.44 339.08 72.94 341.36 58.37 328.18 45.26 328.48 41.87 345.69 42.48 353.65 25.73"/></g><polygon class="cls-7" points="354.75 22.18 363.2 38.69 381.59 41.09 368.5 54.23 371.91 72.45 355.37 64.07 339.08 72.94 341.95 54.61 328.48 41.87 346.79 38.93 354.75 22.18"/><path class="cls-5" d="M388.42,170.3l14.12,1.55a33.17,33.17,0,1,1-5,10.78h0Z"/><path class="cls-8" d="M388.42,170.3c.56.73,3.41,4.52,9.25,12.27h-.22v0a.14.14,0,0,1,.18-.05.13.13,0,0,1,.06.15,32.87,32.87,0,0,0,.22,17.07,29.72,29.72,0,0,0,1.83,4.86c.4.8.78,1.62,1.22,2.43s1,1.57,1.48,2.37a33.38,33.38,0,0,0,8.35,8.38,33,33,0,0,0,11.79,5.14,32.54,32.54,0,0,0,13.76.07,33.33,33.33,0,0,0,13.17-6.1,32.24,32.24,0,0,0,9.55-11.73,32.7,32.7,0,0,0,3.28-15.08,33.43,33.43,0,0,0-3.7-14.33A32.28,32.28,0,0,0,449.71,165a33.18,33.18,0,0,0-23.64-6.76,35.87,35.87,0,0,0-10.36,2.86,32.91,32.91,0,0,0-13.06,10.86.18.18,0,0,1-.12,0l-14.11-1.68,14.14,1.43-.12.05a32.9,32.9,0,0,1,13.12-11A35.56,35.56,0,0,1,426,157.81a33.52,33.52,0,0,1,24,6.78,32.59,32.59,0,0,1,9.09,10.92,33.81,33.81,0,0,1,3.78,14.54,33.24,33.24,0,0,1-3.33,15.33,32.66,32.66,0,0,1-9.7,11.9,33.81,33.81,0,0,1-13.38,6.19,33,33,0,0,1-14-.09,33.36,33.36,0,0,1-20.38-13.76l-1.49-2.4c-.44-.82-.82-1.66-1.23-2.47a29.36,29.36,0,0,1-1.82-4.92,33.07,33.07,0,0,1-.12-17.24l.24.1v0a.13.13,0,0,1-.17,0l-.05,0Z"/><path class="cls-8" d="M417.39,179.11a3.09,3.09,0,0,1,0,.46c0,.33,0,.75,0,1.28,0,1.16,0,2.77.05,4.81,0,4.14.07,10,.12,17l-.23-.23,23.53,0c.06,0-.49.5-.25.26h0V196.3q0-3.12,0-6.09c0-4,0-7.67,0-11.1l.23.23-17-.12-4.81-.06-1.28,0-.46,0a3,3,0,0,1,.41,0l1.24,0,4.75-.06,17.14-.11h.22v.22c0,3.43,0,7.15,0,11.1v12.41h0l-.27.27-23.53,0h-.22v-.22c.05-7.06.09-13,.11-17.14,0-2,.05-3.61.06-4.75,0-.51,0-.92,0-1.24S417.39,179.1,417.39,179.11Z"/><path class="cls-7" d="M438.39,183c.34.27-2.83,4.83-7.08,10.18-.84,1.07-1.67,2.09-2.44,3l-.5.61-.56-.51c-3.68-3.31-6.17-5.85-5.95-6.11s3.11,1.83,6.92,5l-1.07.1c.73-1,1.53-2,2.38-3.07C434.33,186.86,438.05,182.73,438.39,183Z"/><path class="cls-6" d="M315.31,95.69a4.26,4.26,0,0,1,1.33,2.59,4.38,4.38,0,0,1-1.08,3.72,6.84,6.84,0,0,1-4.14,2q-4.12.64-8.23,1.44l-3.33-17.47c2.81-.53,5.64-1,8.46-1.48A7.21,7.21,0,0,1,313,87a4.33,4.33,0,0,1,1.59,5.81,4.61,4.61,0,0,1-2,1.76A4.3,4.3,0,0,1,315.31,95.69Zm-9.64-1.52,2.93-.49a2.72,2.72,0,0,0,1.61-.73,1.9,1.9,0,0,0-.43-2.74A2.59,2.59,0,0,0,308,90c-1,.16-2,.32-3,.5C305.24,91.73,305.46,93,305.67,94.17Zm6.05,5.69a1.76,1.76,0,0,0,.39-1.51,1.81,1.81,0,0,0-.86-1.35,2.64,2.64,0,0,0-1.83-.25l-3.21.54c.23,1.29.45,2.58.68,3.87q1.61-.28,3.21-.54A2.68,2.68,0,0,0,311.72,99.86Z"/><path class="cls-6" d="M332.59,95.36c-3.35.26-6.7.59-10,1a2.94,2.94,0,0,0,1.09,1.91,2.71,2.71,0,0,0,1.94.48,2.34,2.34,0,0,0,2.15-1.59c1.56-.15,3.13-.29,4.7-.42a6.42,6.42,0,0,1-1.1,2.61,6.63,6.63,0,0,1-2.18,2,7.68,7.68,0,0,1-3.05.94,7.93,7.93,0,0,1-3.8-.47,6.46,6.46,0,0,1-2.86-2.2A7.78,7.78,0,0,1,318,95.85a7.52,7.52,0,0,1,.44-3.94,6.18,6.18,0,0,1,2.32-2.84,8.24,8.24,0,0,1,3.81-1.32,8.13,8.13,0,0,1,3.92.48,6.19,6.19,0,0,1,2.82,2.22,7.16,7.16,0,0,1,1.24,3.64C332.6,94.49,332.6,94.91,332.59,95.36Zm-4.69-2a2.19,2.19,0,0,0-1-1.69,3,3,0,0,0-2-.45,3,3,0,0,0-1.84.83,2.77,2.77,0,0,0-.75,1.9Q325.1,93.63,327.9,93.35Z"/><path class="cls-6" d="M341,87.22a5.37,5.37,0,0,1,2.64-.79l.18,4.58-1.24,0a3.88,3.88,0,0,0-2.49.82,3,3,0,0,0-.71,2.49l.36,6.54c-1.45.08-2.9.17-4.34.28q-.51-7.05-1-14.1c1.52-.11,3.05-.2,4.57-.29,0,.79.08,1.57.13,2.36A5.78,5.78,0,0,1,341,87.22Z"/><path class="cls-6" d="M359.15,87.86a6.06,6.06,0,0,1,1.45,4.44c-.05,2.75-.11,5.5-.16,8.26l-4.33-.06,0-7.67a3,3,0,0,0-.75-2.21,3.07,3.07,0,0,0-4.12,0,3,3,0,0,0-.73,2.21l.12,7.67c-1.45,0-2.9.06-4.35.1q-.29-9.36-.58-18.73c1.55-.05,3.09-.08,4.64-.11q.06,3.25.1,6.51a4.74,4.74,0,0,1,1.88-1.51,6.22,6.22,0,0,1,2.7-.57A5.36,5.36,0,0,1,359.15,87.86Z"/><path class="cls-6" d="M363.76,89.72a6.18,6.18,0,0,1,2.44-2.45,6.34,6.34,0,0,1,3.38-.73,5.82,5.82,0,0,1,2.73.76A4.51,4.51,0,0,1,374,89c0-.67.09-1.33.13-2,1.52.1,3,.22,4.57.34l-1.17,14.08-4.34-.32c0-.66.09-1.33.13-2a4.76,4.76,0,0,1-1.87,1.48,5.62,5.62,0,0,1-2.67.47,6,6,0,0,1-3.11-1,6.4,6.4,0,0,1-2.18-2.64,8.38,8.38,0,0,1-.73-3.86A8.19,8.19,0,0,1,363.76,89.72Zm9.18,1.73a3.24,3.24,0,0,0-4.55-.27,3.39,3.39,0,0,0-1.05,2.5,3.55,3.55,0,0,0,.8,2.61,3.13,3.13,0,0,0,4.47.26,3.49,3.49,0,0,0,1.09-2.49A3.45,3.45,0,0,0,372.94,91.45Z"/><path class="cls-6" d="M383.22,101.53a5.83,5.83,0,0,1-2.12-2,4.6,4.6,0,0,1-.72-2.54c1.45.13,2.91.27,4.36.43a1.68,1.68,0,0,0,.56,1.26,2.6,2.6,0,0,0,1.47.62,2.18,2.18,0,0,0,1.3-.17,1,1,0,0,0,0-1.73,12.64,12.64,0,0,0-2-.88,23,23,0,0,1-2.51-1,4.62,4.62,0,0,1-1.67-1.41,3.33,3.33,0,0,1-.54-2.36,3.73,3.73,0,0,1,.9-2.14,4.76,4.76,0,0,1,2.23-1.37A8.13,8.13,0,0,1,387.8,88,6.68,6.68,0,0,1,392,89.88a5,5,0,0,1,1.36,3.71c-1.37-.19-2.75-.37-4.13-.53a1.71,1.71,0,0,0-.53-1.24,2.41,2.41,0,0,0-1.44-.6,2.13,2.13,0,0,0-1.24.15.93.93,0,0,0-.51.75,1,1,0,0,0,.57,1,11.22,11.22,0,0,0,2,.84,22.92,22.92,0,0,1,2.53,1.11,4.61,4.61,0,0,1,1.62,1.49,3.55,3.55,0,0,1,.47,2.43,3.7,3.7,0,0,1-1,2.1,4.77,4.77,0,0,1-2.2,1.26,8,8,0,0,1-3.1.19A8.68,8.68,0,0,1,383.22,101.53Z"/><path class="cls-6" d="M397.54,87.36a2.18,2.18,0,0,1,.49-3.31,3,3,0,0,1,2.09-.36,2.91,2.91,0,0,1,1.85,1,2.18,2.18,0,0,1-.53,3.3,3.26,3.26,0,0,1-3.9-.6Zm3.89,2.77q-1.14,7-2.27,14c-1.43-.24-2.87-.46-4.31-.67l2-14C398.41,89.65,399.92,89.88,401.43,90.13Z"/><path class="cls-6" d="M410.1,87l-3.51,18.41c-1.44-.28-2.87-.54-4.3-.79q1.6-9.22,3.22-18.46Q407.81,86.54,410.1,87Z"/></g></svg>