<svg width="282" height="156" viewBox="0 0 282 156" fill="none" xmlns="http://www.w3.org/2000/svg">
<path d="M87.1418 27.8162C49.3446 22.1684 17.4487 57.6847 6.22541 76.1489C-15.4971 108.19 26.3188 182.046 82.2543 145.661C138.19 109.276 215.305 159.238 267.439 116.336C319.573 73.4336 217.477 30.5316 184.35 38.6775C151.223 46.8235 134.388 34.8761 87.1418 27.8162Z" fill="#BBD070"/>
<path d="M245.184 132.145C232.593 171.642 134.271 149.125 86.6835 132.93C12.0821 114.548 37.9175 38.6938 69.9422 44.1218C101.967 49.5499 151.404 10.263 179.691 1.3653C207.978 -7.53242 260.922 82.7735 245.184 132.145Z" stroke="#97A43C" stroke-linecap="round" stroke-linejoin="round" stroke-dasharray="10 10"/>
<path d="M124.834 145.216C124.745 144.933 124.599 144.677 124.384 144.49C124.271 144.391 124.142 144.316 124.034 144.215C123.518 143.736 123.567 143.267 122.822 143.385C121.973 143.521 121.129 143.697 120.283 143.854C120.249 143.862 120.215 143.866 120.188 143.891C120.152 143.925 120.142 143.983 120.138 144.033C120.109 144.338 120.077 144.643 120.048 144.945C119.966 145.767 119.26 146.021 118.682 146.355C118.534 146.442 118.379 146.529 118.222 146.616C117.567 146.991 115.574 147.833 116.583 148.885C116.999 149.32 117.707 149.308 118.254 149.354C118.781 149.4 119.308 149.259 119.826 149.177C121.485 148.824 123.011 148.287 124.503 147.431C125.037 147.124 124.989 146.282 124.931 145.688C124.911 145.528 124.882 145.368 124.834 145.216Z" fill="#9F2F2E"/>
<path d="M121.574 91.8718L123.383 98.7061L121.826 118.297L124.462 144.278L119.502 144.8L112.646 120.021L107.11 92.8778L121.574 91.8718Z" fill="#9F2F2E"/>
<path d="M101.789 147.702C101.77 147.407 101.688 147.119 101.523 146.885C101.436 146.761 101.33 146.655 101.248 146.529C100.858 145.934 101.016 145.494 100.263 145.424C99.4074 145.344 98.5464 145.305 97.6903 145.247C97.6565 145.245 97.6202 145.243 97.5912 145.259C97.5477 145.284 97.5259 145.337 97.509 145.385C97.4098 145.673 97.3082 145.961 97.2091 146.249C96.9382 147.027 96.1934 147.097 95.5549 147.276C95.3905 147.322 95.2212 147.368 95.0471 147.417C94.324 147.617 92.1934 147.939 92.9262 149.211C93.2285 149.738 93.9201 149.9 94.4377 150.084C94.9383 150.261 95.4824 150.256 96.0047 150.302C97.6976 150.369 99.3034 150.229 100.95 149.77C101.54 149.605 101.69 148.776 101.773 148.183C101.794 148.026 101.802 147.862 101.789 147.702Z" fill="#9F2F2E"/>
<path d="M111.047 95.1148L113.434 100.075L105.139 120.824L101.649 146.698L96.7109 145.973L95.8258 120.217L96.7762 92.4933L111.047 95.1148Z" fill="#9F2F2E"/>
<path d="M127.286 91.9226C127.09 90.6602 126.887 89.6106 126.829 89.2334C126.058 84.1089 123.838 79.2093 122.406 74.2589C120.703 68.3726 118.72 62.5734 116.464 56.8902C115.627 54.7838 114.566 52.4961 112.522 51.6472C110.171 50.6726 107.905 48.7017 105.56 50.1261C105.081 50.4163 104.493 50.5541 103.99 50.8153C101.008 52.3558 99.5089 54.8685 98.8511 58.2397C98.3215 60.9531 97.7919 63.664 97.2647 66.3774C96.8294 68.6047 96.3965 70.8321 96.0579 73.0787C95.1728 78.9577 94.9576 84.9263 94.9914 90.8754C95.0084 93.8573 95.0882 96.8391 95.1801 99.8209C95.2381 101.727 96.0676 100.812 97.0906 100.094C98.8536 98.856 100.597 97.5622 102.665 96.9262C103.671 96.6166 104.713 96.4715 105.756 96.3506C112.092 95.6106 118.561 95.7484 124.778 97.2139C125.148 97.301 125.523 97.3953 125.842 97.6081C126.268 97.8911 126.882 98.5779 127.39 98.1112C127.705 97.8185 127.685 96.9697 127.702 96.5827C127.767 95.0277 127.523 93.4486 127.286 91.9226Z" fill="#FF2323"/>
<path d="M102.034 38.339C101.562 39.4829 101.41 40.7549 101.487 42.0004C101.509 42.3317 101.526 42.7138 101.294 42.9387C101.045 43.1781 101.33 43.6086 101.095 43.3522C100.861 43.0959 100.058 42.2084 99.9902 41.8601C99.8306 41.0451 99.746 40.2132 99.7339 39.3813C99.7242 38.6582 99.7871 37.894 100.174 37.2967C100.404 36.9436 100.733 36.6752 101.057 36.4164C101.526 36.0391 102.012 35.657 102.578 35.4781C103.555 35.1709 104.205 35.4756 103.403 36.3076C102.827 36.9049 102.355 37.5579 102.034 38.339Z" fill="#16202E"/>
<path d="M109.698 51.7004C108.341 51.9906 106.982 52.2808 105.625 52.571C105.286 51.3498 105.032 50.097 104.866 48.8322C103.649 48.7524 102.201 48.5058 101.656 47.2361C101.485 46.8371 101.434 46.3873 101.383 45.9447C101.18 44.1237 100.977 42.3027 100.774 40.4816C100.704 39.8529 100.633 39.2023 100.779 38.5953C101.033 37.5288 101.884 36.813 102.74 36.3269C104.929 35.0839 107.603 34.8203 109.862 35.9787C110.464 36.2858 111.045 36.7042 111.436 37.3184C112.041 38.264 112.106 39.507 112.15 40.6703C112.188 41.744 112.23 42.8202 112.268 43.894C112.314 45.1297 112.285 46.5614 111.448 47.3111C111.003 47.7101 110.389 47.8431 110.019 48.3341C109.371 49.2023 109.852 50.5589 109.698 51.7004Z" fill="#EACDB0"/>
<path d="M101.18 47.0427C101.511 48.1527 102.147 49.1781 103.093 49.7149C104.164 50.3244 105.419 50.2349 106.604 50.1285C107.253 50.0704 107.901 50.0148 108.549 49.9568C110.188 49.8117 111.792 49.4054 112.445 47.4997C112.745 46.6219 112.769 45.6352 112.612 44.7017C112.568 44.4453 112.51 44.1817 112.37 43.9713C112.23 43.7609 111.993 43.6158 111.768 43.6739C111.482 43.7489 111.342 44.0971 111.182 44.3728C110.834 44.975 110.145 45.3667 109.533 45.1346C109.352 45.0669 109.19 44.9508 109.028 44.8323C108.962 44.7839 108.895 44.7355 108.827 44.6896C108.157 44.2398 107.381 44.085 106.617 44.0681C105.954 44.0536 104.967 43.9085 104.544 44.5493C104.297 44.9218 104.051 45.2942 103.804 45.6642C103.702 45.8165 103.598 45.9737 103.458 46.0801C103.313 46.189 103.139 46.2398 102.965 46.2639C102.527 46.322 102.012 46.1648 101.814 45.7126C101.727 45.5167 101.715 45.2918 101.683 45.0765C101.652 44.8613 101.598 44.634 101.453 44.4865C100.904 43.9181 100.868 44.9242 100.883 45.2652C100.912 45.8673 101.008 46.4695 101.18 47.0427ZM105.669 46.8516C106.225 47.1587 106.769 47.1031 107.325 46.854C107.61 46.7283 107.789 47.2337 107.504 47.3595C106.834 47.6569 106.145 47.7125 105.477 47.3425C105.199 47.1902 105.388 46.6968 105.669 46.8516Z" fill="#16202E"/>
<path d="M99.6057 35.42C99.4461 34.992 99.3131 34.5518 99.2139 34.102C99.6299 34.2036 100.07 34.1939 100.479 34.073C100.452 33.8118 100.426 33.5482 100.399 33.287C100.377 33.0694 103.168 32.5978 103.393 32.5519C105.506 32.1262 107.441 31.7296 109.494 32.7139C111.25 33.5555 112.467 34.9702 112.928 36.9412C113.369 38.8227 113.035 41.3837 112.15 43.0886C112.104 42.5808 112.256 41.3498 112.092 40.8783C111.971 40.4018 111.763 39.952 111.499 39.5482C110.972 38.738 110.217 38.0899 109.378 37.6618C108.041 36.9799 106.542 36.709 105.069 36.6606C103.717 36.6171 102.077 36.6195 100.803 37.1395C100.189 37.3886 100.101 37.5675 99.6492 36.9412C99.5694 36.8299 98.8899 35.5119 98.9431 35.5047C99.1631 35.4756 99.3856 35.449 99.6057 35.42Z" fill="#16202E"/>
<path d="M26.0465 43.7416C26.3295 43.9399 26.5592 44.2785 26.7406 44.5904C27.0332 45.1007 27.425 45.6811 27.9981 45.6714C28.4939 45.6618 28.8953 45.1902 29.3911 45.1805C29.9328 45.1708 30.3415 45.7246 30.4455 46.2736C30.5519 46.8226 30.4503 47.3909 30.4866 47.9495C30.5519 48.958 31.2677 50.3534 30.2762 51.0982C29.9933 51.3086 29.2339 51.519 28.8929 51.415C28.3899 51.2603 28.4455 51.0257 28.2569 50.5275C28.0537 49.9834 27.8506 49.4417 27.6475 48.8975C27.3452 48.0874 26.668 47.9955 26.0465 47.5021C25.6257 47.166 25.3597 46.6702 25.1058 46.189C24.8615 45.7271 24.6124 45.241 24.61 44.7138C24.6076 44.1866 24.9437 43.6183 25.4516 43.5699C25.6717 43.5457 25.87 43.6183 26.0465 43.7416Z" fill="#EACDB0"/>
<path d="M30.5374 63.0232C29.5507 60.1042 28.8784 57.074 28.2762 54.0438C28.0948 53.1393 26.7478 50.3969 27.2605 49.6376C27.8844 48.7089 30.5446 49.1636 31.304 49.6593C32.2931 50.3074 32.934 52.1502 33.4515 53.1853C34.8638 56.0269 36.0053 59.2046 38.518 61.2384C38.1601 60.9482 44.7041 56.9289 45.3377 56.675C47.4369 55.8358 51.9302 53.8165 51.9205 57.4585C51.9157 59.0039 51.8625 60.5492 51.7609 62.0897C51.5916 64.6822 50.4671 67.2964 48.3099 68.7498C46.6461 69.8695 44.6679 70.3653 42.7162 70.7329C40.3293 71.1803 37.911 71.4657 35.4878 71.5817C33.2919 71.6881 32.9171 68.6507 32.0851 66.8853C31.4902 65.6302 30.9824 64.3388 30.5374 63.0232Z" fill="#FF2323"/>
<path d="M65.8406 146.955C66.5346 147.044 67.1852 146.827 67.8647 146.788C67.9663 144.321 67.8381 141.944 67.4584 139.482C66.3436 140.626 65.4972 139.874 65.4101 142.137C65.3787 142.87 66.0364 145.847 65.8406 146.955Z" fill="#9F2F2E"/>
<path d="M68.0824 145.571C68.8901 145.325 68.9627 147.291 68.9433 147.75C68.9312 148.026 68.8853 148.307 68.9385 148.577C68.9965 148.875 69.1707 149.134 69.3424 149.383C69.6979 149.903 70.0534 150.423 70.4113 150.945C70.5709 151.18 70.7353 151.419 70.8127 151.695C71.0062 152.377 70.583 153.148 69.9542 153.431C67.768 154.415 65.9736 151.615 65.6108 149.816C65.5552 149.54 65.5189 149.259 65.4827 148.981C65.4077 148.403 65.057 147.131 65.3061 146.587C65.5987 145.951 66.3484 146.469 66.8708 146.251C67.3521 146.048 67.7559 145.671 68.0824 145.571Z" fill="#9F2F2E"/>
<path d="M55.1248 105.598C56.8007 111.289 58.7886 116.878 59.7729 122.788C60.9893 130.092 63.2021 137.274 64.138 144.577C64.9965 144.657 65.8623 144.669 66.7233 144.614C67.7099 144.551 69.2819 144.369 69.6978 143.281C69.9107 142.725 69.768 141.794 69.7728 141.204C69.7873 139.315 69.7607 137.426 69.7293 135.54C69.6422 130.198 69.6761 124.8 69.0159 119.502C68.3218 113.927 67.6713 108.336 67.0981 102.769C66.8006 99.891 66.3992 97.0277 65.8672 94.1861C65.7293 93.4534 64.2976 85.9081 63.9325 85.9468C59.606 86.4014 55.5142 87.6348 51.6545 89.7049C51.2796 89.9056 50.9144 90.1499 50.7669 90.5392C50.6194 90.9286 50.7137 91.2768 50.8129 91.642C51.7415 95.1365 53.0523 98.4376 54.0559 101.922C54.4017 103.141 54.7572 104.353 55.1248 105.598Z" fill="#9F2F2E"/>
<path d="M51.8189 144.865C51.1538 145.088 50.4743 145.001 49.802 145.095C49.253 142.694 48.9483 140.333 48.8733 137.84C50.1768 138.747 50.8709 137.842 51.3691 140.05C51.5287 140.766 51.4247 143.818 51.8189 144.865Z" fill="#9F2F2E"/>
<path d="M49.1587 144.345C49.0837 145.68 47.9882 147.061 47.3594 148.229C47.2845 148.367 47.2095 148.51 47.1974 148.667C47.1805 148.899 47.3062 149.114 47.4296 149.313C47.5988 149.586 47.7826 149.874 48.068 150.009C48.3485 150.142 48.6726 150.103 48.9773 150.053C49.4876 149.968 49.993 149.859 50.4912 149.726C50.6145 149.692 50.7427 149.656 50.8467 149.579C50.97 149.487 51.0498 149.346 51.1248 149.209C51.5118 148.507 51.8358 148.012 51.86 147.206C51.8866 146.374 51.831 145.506 52.0244 144.691C52.1188 144.297 52.2421 143.792 51.9253 143.552C51.6786 143.368 51.1974 143.574 50.9168 143.605C50.4211 143.659 49.9688 143.6 49.4997 143.842C49.4054 143.891 49.311 143.951 49.2482 144.041C49.1877 144.128 49.1659 144.234 49.1587 144.345Z" fill="#9F2F2E"/>
<path d="M54.8298 102.167C54.2179 108.082 53.2796 113.956 53.3884 119.954C53.5214 127.364 52.6532 134.848 53.0595 142.203C52.23 142.447 51.3812 142.628 50.5251 142.742C49.5432 142.873 47.9665 142.998 47.3619 142.012C47.0523 141.506 47.0233 140.565 46.9096 139.987C46.5517 138.135 46.2349 136.275 45.9229 134.416C45.0378 129.153 44.0245 123.857 43.7077 118.524C43.3764 112.914 42.9992 107.296 42.5518 101.719C42.3196 98.8366 42.1963 95.9443 42.2011 93.0495C42.2035 92.3046 42.2398 84.6143 42.605 84.5828C46.9387 84.1886 51.1805 84.607 55.3473 85.8912C55.7512 86.0169 56.155 86.1862 56.3703 86.5393C56.5855 86.8924 56.5565 87.2527 56.5275 87.6324C56.2493 91.243 55.5625 94.7424 55.2094 98.3602C55.0909 99.6129 54.9628 100.873 54.8298 102.167Z" fill="#9F2F2E"/>
<path d="M59.8479 54.704C59.9156 54.733 59.9857 54.7621 60.051 54.7935C61.1804 55.3134 62.1163 56.1841 63.0329 57.0426C64.4089 58.3316 65.0909 58.8999 65.5504 60.7161C65.9784 62.4089 66.2082 64.184 66.4331 65.9155C67.5842 74.8078 67.4198 83.5841 68.1066 92.5151C68.2928 94.9455 68.3847 97.7968 66.5685 99.3518C63.6399 96.7085 59.7995 96.3409 56.0849 96.1208C53.4755 95.9661 50.9749 94.9431 48.3438 95.0906C45.8287 95.2309 43.6812 94.4594 41.1371 94.4812C40.5228 94.486 39.7441 94.4352 39.5361 93.8379C40.5615 91.1704 40.7066 88.2442 41.0621 85.3978C41.9811 78.0315 44.7404 71.0739 46.0971 63.785C46.559 61.3061 46.958 57.1732 48.9338 55.3932C51.0789 53.4586 55.7173 53.6883 58.3098 54.2421C58.8298 54.3558 59.3521 54.4985 59.8479 54.704Z" fill="#FF2323"/>
<path d="M57.5795 55.8817C57.5335 55.9616 57.4755 56.0365 57.3981 56.1091C57.091 56.3872 56.6798 56.5323 56.2784 56.5686C55.7488 56.6145 55.2192 56.4936 54.704 56.3606C54.0076 56.1792 54.0559 55.756 53.9882 55.0885C53.9519 54.7234 53.9374 54.3582 53.9302 53.9906C53.9278 53.7899 54.0414 53.0789 53.9253 52.9313C53.8479 52.8322 53.5045 52.8443 53.3594 52.7548C53.1297 52.6121 52.9459 52.3655 52.8153 52.1309C52.6073 51.7488 52.5033 51.3159 52.4018 50.8903C52.2276 50.1478 52.0511 49.4078 51.877 48.6654C51.698 47.9084 51.5191 47.1442 51.49 46.3655C51.4465 45.1902 51.7198 43.553 52.6218 42.7476C53.4417 42.0149 54.5928 41.8069 55.6424 41.7319C57.0305 41.6304 58.4452 41.9738 59.5964 42.8008C60.0607 43.1346 60.4936 43.5578 60.7499 44.1188C61.1417 44.9846 61.0522 46.0318 60.9507 47.0088C60.8588 47.9108 60.7645 48.8129 60.6726 49.7149C60.5661 50.7524 60.3751 51.9447 59.5891 52.4646C59.1732 52.7403 58.646 52.7742 58.2808 53.1393C57.8261 53.5964 57.8141 54.3195 57.7608 54.9289C57.7318 55.2699 57.7391 55.6012 57.5795 55.8817Z" fill="#EACDB0"/>
<path d="M51.5722 48.0342C51.6012 48.2421 51.6278 48.4525 51.6423 48.6702C51.7608 50.5275 51.4827 52.3171 51.8431 54.1792C50.2228 53.3618 48.7717 52.0728 47.6399 50.4477C47.4465 50.1672 47.2578 49.8721 47.1611 49.5215C47.0692 49.1877 47.0668 48.8274 47.0692 48.4743C47.0934 46.2156 47.3594 43.952 47.8552 41.7634C48.0511 40.8952 48.2881 40.0246 48.6943 39.2676C49.9205 36.9847 52.3775 36.2205 54.5927 36.1963C55.8745 36.1818 57.2166 36.3777 58.2517 37.2725C59.369 38.2374 59.6737 39.9036 59.6181 41.3256C59.6036 41.6739 59.5794 42.0391 59.4101 42.3414C59.057 42.9677 58.2445 43.0886 57.5431 43.1249C56.5589 43.1757 55.5649 43.1926 54.6024 43.4103C53.6399 43.6279 52.6919 44.0705 52.0438 44.8371C51.1345 45.9133 51.4102 46.8975 51.5722 48.0342Z" fill="#16202E"/>
<path d="M63.0256 39.5409C63.3279 40.1648 63.5649 40.8323 63.7487 41.5312C64.4017 44.0003 65.0135 46.3341 64.6604 48.9507C64.6121 49.3159 64.5468 49.6811 64.4162 50.0148C64.2396 50.4646 63.9519 50.8346 63.6592 51.1853C62.4912 52.5879 61.1828 53.814 59.7729 54.8249C60.3679 51.6738 60.9531 48.2953 60.0027 45.3159C59.2627 43.0016 57.7198 41.3619 56.0269 40.1019C55.0813 39.3982 52.5372 37.9714 53.1902 36.3994C54.0898 34.2326 59.0136 35.6111 60.3775 36.4841C61.5819 37.2555 62.4307 38.3099 63.0256 39.5409Z" fill="#16202E"/>
<path d="M117.465 91.2599H87.3059V121.364H117.465V91.2599Z" fill="#E0AC3B"/>
<path d="M117.465 121.361L124.923 113.654V83.5502L117.465 91.2599V121.361Z" fill="#CFA345"/>
<path d="M117.465 91.2599L124.923 83.5502H94.7641L87.3059 91.2599H117.465Z" fill="#FFC955"/>
<path d="M107.698 83.5502L100.242 91.2599V97.3276H104.525V91.2599H104.529L111.988 83.5502H107.698Z" fill="#CFA345"/>
<path d="M108.65 99.1559L104.527 104.658H107.03V113.473H110.271V104.658H112.774L108.65 99.1559Z" fill="white"/>
<path d="M91.9951 104.658H94.4981V113.473H97.7411V104.658H100.244L96.1184 99.1559L91.9951 104.658Z" fill="white"/>
<path d="M113.473 115.175H91.2962V115.627H113.473V115.175Z" fill="white"/>
<path d="M113.473 116.525H91.2962V116.977H113.473V116.525Z" fill="white"/>
<path d="M113.473 117.876H91.2962V118.329H113.473V117.876Z" fill="white"/>
<path d="M64.9627 91.035H34.8033V121.139H64.9627V91.035Z" fill="#E0AC3B"/>
<path d="M64.9627 121.136L72.4209 113.429V83.3253L64.9627 91.035V121.136Z" fill="#CFA345"/>
<path d="M64.9627 91.035L72.4209 83.3253H42.2616L34.8033 91.035H64.9627Z" fill="#CFA345"/>
<path d="M56.1478 98.9334L52.0245 104.435H54.5275V113.248H57.7705V104.435H60.2735L56.1478 98.9334Z" fill="white"/>
<path d="M39.495 104.435H41.998V113.248H45.2386V104.435H47.7416L43.6183 98.9334L39.495 104.435Z" fill="white"/>
<path d="M72.4209 83.3253L81.1705 91.9806L73.7123 99.6879L64.9627 91.035L72.4209 83.3253Z" fill="#FFC955"/>
<path d="M42.2592 83.3253L32.7985 89.1076L25.3427 96.8173L34.8034 91.035L42.2592 83.3253Z" fill="#FFC955"/>
<path d="M42.2591 83.3253V91.035H34.8033L42.2591 83.3253Z" fill="#A77860"/>
<path d="M64.9627 91.035L61.9591 98.0168H31.6111L34.8033 91.035H64.9627Z" fill="#FFC955"/>
<path d="M60.9724 114.95H38.7961V115.402H60.9724V114.95Z" fill="white"/>
<path d="M60.9724 116.3H38.7961V116.752H60.9724V116.3Z" fill="white"/>
<path d="M60.9724 117.651H38.7961V118.104H60.9724V117.651Z" fill="white"/>
<path d="M40.2567 53.2844C37.4587 45.7779 30.9388 40.0028 22.6898 38.7453C16.9123 37.865 11.3308 39.3595 6.86163 42.5155C6.65849 42.6606 6.8181 42.9847 7.04785 42.8928C10.0563 41.6812 13.3985 41.2362 16.8229 41.7561C24.3899 42.9097 30.2762 48.4647 32.4116 55.5384L27.4056 56.9773L33.2774 61.4295L39.2435 65.9542L41.6884 59.9035L44.9024 51.9495L40.2567 53.2844Z" fill="#48753A"/>
<path d="M171.136 55.2772H140.977V85.3809H171.136V55.2772Z" fill="#E0AC3B"/>
<path d="M171.136 85.3809L178.594 77.6712V47.5675L171.136 55.2772V85.3809Z" fill="#CFA345"/>
<path d="M171.136 55.2772L178.594 47.5674H148.435L140.977 55.2772H171.136Z" fill="#FFC955"/>
<path d="M161.371 47.5675L153.912 55.2772V61.3448H158.195V55.2772H158.2L165.658 47.5675H161.371Z" fill="#CFA345"/>
<path d="M162.321 63.1755L158.198 68.6773H160.701V77.4898H163.941V68.6773H166.444L162.321 63.1755Z" fill="white"/>
<path d="M145.666 68.6773H148.169V77.4898H151.412V68.6773H153.915L149.791 63.1755L145.666 68.6773Z" fill="white"/>
<path d="M167.143 79.1923H144.967V79.6446H167.143V79.1923Z" fill="white"/>
<path d="M167.143 80.5418H144.967V80.994H167.143V80.5418Z" fill="white"/>
<path d="M167.143 81.8936H144.967V82.3459H167.143V81.8936Z" fill="white"/>
<path d="M157.291 41.7803C157.482 41.6425 157.528 41.3716 157.395 41.1733C157.262 40.9774 156.998 40.9291 156.807 41.0669L143.637 51.2554C143.523 51.3377 143.458 51.4707 143.458 51.6134V52.7113L144.302 51.8383L157.291 41.7803Z" fill="#E1473D"/>
<path d="M165.25 37.287C165.017 37.1951 164.771 37.2725 164.633 37.4829C162.95 40.0318 160.082 39.7199 160.024 39.715C157.753 39.715 155.905 37.8142 155.905 35.4781C155.905 33.6063 157.126 31.9328 158.877 31.4104C159.17 31.3233 159.467 31.2822 159.782 31.2387C160.217 31.1806 160.664 31.1178 161.102 30.9243C161.806 30.6123 162.372 30.0755 162.691 29.4177C163.107 28.564 163.088 27.616 163.068 26.6994C163.063 26.518 163.061 26.3367 163.061 26.1577V24.061C163.061 23.9256 162.955 23.8167 162.824 23.8167H160.038C159.907 23.8167 159.801 23.9256 159.801 24.061C159.801 24.061 159.791 26.6752 159.789 26.7357C159.784 27.6523 159.1 27.9207 158.053 28.2182C156.551 28.6462 155.175 29.5821 154.217 30.8517C153.223 32.1673 152.677 33.8094 152.677 35.4757C152.677 37.2652 153.301 39.0016 154.43 40.3656C155.733 41.9375 157.678 42.825 159.625 42.825C160.232 42.825 160.839 42.738 161.426 42.5614C163.646 41.8867 165.274 40.0439 165.574 37.8602C165.612 37.6086 165.479 37.3789 165.25 37.287Z" fill="#D67086"/>
<path d="M165.25 37.287C165.017 37.1951 164.771 37.2725 164.633 37.4829C162.95 40.0318 159.917 39.9931 158.442 39.3886C158.444 39.391 158.449 39.391 158.452 39.3934C158.449 39.391 158.444 39.391 158.442 39.3886C158.024 39.2096 157.644 38.9605 157.31 38.6558C156.677 38.0488 156.338 37.5095 156.142 36.8952C156.73 39.0742 158.606 40.6388 160.901 40.6388C162.967 40.6388 164.739 39.3426 165.499 37.4974C165.443 37.4055 165.358 37.3305 165.25 37.287Z" fill="#C45B76"/>
<path opacity="0.2" d="M157.496 29.4878C157.448 29.4999 157.397 29.5095 157.349 29.5241C154.357 30.4213 152.635 33.657 153.504 36.7501C153.876 38.073 154.662 39.1515 155.671 39.8867C155.172 39.2072 154.778 38.4285 154.536 37.5603C153.654 34.414 154.947 31.154 157.496 29.4878Z" fill="white"/>
<path d="M150.5 4.2377H172.923V15.3331H150.464L150.5 4.2377Z" fill="#D67086"/>
<path d="M150.464 15.3331L156.304 21.3694H161.692H167.083L172.923 15.3331H150.464Z" fill="#C45B76"/>
<path d="M164.137 24.061H159.088C158.88 24.061 158.713 23.8917 158.713 23.6862V21.3694H164.514V23.6862C164.514 23.8941 164.345 24.061 164.137 24.061Z" fill="#A0405C"/>
<path d="M173.508 4.2377H149.879C149.637 4.2377 149.441 4.04181 149.441 3.79997V2.18693C149.441 1.94509 149.637 1.74921 149.879 1.74921H173.508C173.75 1.74921 173.946 1.94509 173.946 2.18693V3.79997C173.946 4.04181 173.75 4.2377 173.508 4.2377Z" fill="#C45B76"/>
<path d="M175.286 51.4223C175.286 51.2893 175.225 51.1635 175.124 51.0813L159.709 39.0983C159.557 38.9726 159.339 38.975 159.187 39.1008L158.65 39.4683L158.938 39.5602L174.442 51.6351L174.497 81.9009L173.864 82.5562H174.918C175.029 82.5562 175.138 82.5103 175.218 82.4281C175.298 82.3458 175.341 82.2346 175.341 82.1185L175.286 51.4223Z" fill="#E1473D"/>
<path d="M180.331 128.948H32.7454C31.1347 128.948 29.8288 127.598 29.8288 125.932C29.8288 124.266 31.1347 122.916 32.7454 122.916H180.331C181.941 122.916 183.247 124.266 183.247 125.932C183.25 127.596 181.944 128.948 180.331 128.948Z" fill="#E2E2E2"/>
<path d="M50.9266 127.83C51.9403 127.83 52.7621 126.98 52.7621 125.932C52.7621 124.883 51.9403 124.034 50.9266 124.034C49.9128 124.034 49.091 124.883 49.091 125.932C49.091 126.98 49.9128 127.83 50.9266 127.83Z" fill="#A22B25"/>
<path d="M101.881 127.83C102.895 127.83 103.717 126.98 103.717 125.932C103.717 124.883 102.895 124.034 101.881 124.034C100.868 124.034 100.046 124.883 100.046 125.932C100.046 126.98 100.868 127.83 101.881 127.83Z" fill="#A22B25"/>
<path d="M152.834 127.83C153.847 127.83 154.669 126.98 154.669 125.932C154.669 124.883 153.847 124.034 152.834 124.034C151.82 124.034 150.998 124.883 150.998 125.932C150.998 126.98 151.82 127.83 152.834 127.83Z" fill="#A22B25"/>
<path d="M69.9276 86.1645C70.1985 85.5091 70.4065 84.8271 70.6096 84.1475C69.606 83.9081 68.5999 83.6808 67.5891 83.4752C67.5697 83.6687 67.5504 83.8598 67.531 84.0484C67.444 85.0085 67.5044 85.9903 67.3206 86.9407C67.2263 87.4293 67.0764 87.9516 66.791 88.3603C66.5395 88.7207 66.3049 88.8706 66.2275 89.3615C66.155 89.8162 66.7281 89.9685 66.5032 90.4425C66.2565 90.9576 65.5214 90.5852 65.1393 90.9552C65.0304 91.0616 64.9676 91.2067 64.9144 91.3518C64.7765 91.7243 64.6798 92.1547 64.8563 92.5078C65.3932 93.584 66.7934 93.0544 67.4295 92.4812C67.8623 92.0918 68.4379 91.7871 68.7547 91.2769C69.4077 90.2321 68.924 88.8561 69.2843 87.7219C69.4585 87.1874 69.7124 86.6844 69.9276 86.1645Z" fill="#EACDB0"/>
<path d="M61.4779 68.4113C62.6483 70.3145 64.9409 71.6591 66.4476 73.3858C69.3883 76.7546 67.5044 82.9384 67.1223 87.0544L69.6834 88.0991L73.2359 75.5333L67.8406 63.4851C66.2759 59.9881 63.4706 57.2457 60.0075 55.8237L57.5698 54.8225C58.5275 55.2215 59.6496 62.2928 59.9495 63.3738C60.3485 64.8079 60.5661 66.6386 61.2288 67.9687C61.3086 68.1211 61.3908 68.2686 61.4779 68.4113Z" fill="#FF3C3C"/>
<path d="M184.739 57.9954C184.807 57.9881 184.879 57.9809 184.945 57.993C185.559 58.1066 185.813 58.5468 186.369 58.8297C186.618 58.9555 187.23 58.5758 187.298 59.1707C187.322 59.3908 187.312 59.9373 187.361 60.4041C187.433 61.086 187.924 61.9059 188.43 62.4839C189.109 63.2577 189.847 64.063 190.623 64.7184C192.258 66.0969 194.222 67.4439 196.084 68.479C197.871 65.3786 201.433 63.4754 204.916 63.7583C205.278 63.7874 205.656 63.8454 205.96 64.0485C206.219 64.2202 206.408 64.4863 206.56 64.7644C208.168 67.6978 205.409 69.1489 203.235 70.4112C201.878 71.1996 200.451 71.913 198.995 72.4862C196.957 73.2891 195.22 72.5442 193.479 71.2818C191.634 69.9445 189.789 68.5539 188.255 66.8321C187.511 65.9953 186.971 65.0739 186.343 64.1549C185.723 63.2456 185.366 63.5818 184.626 62.9288C184.212 62.5661 183.723 62.2735 183.382 61.8357C182.771 61.0498 183.029 60.0413 183.17 59.1369C183.206 58.9119 183.228 58.7596 183.353 58.5903C183.557 58.3122 183.871 58.2227 184.181 58.1211C184.359 58.0631 184.548 58.0172 184.739 57.9954Z" fill="#E5D1BD"/>
<path d="M202.87 72.491C201.764 72.9868 200.662 73.4245 199.583 73.8018C197.975 74.3653 196.207 74.9287 194.618 74.3096C194.006 74.0702 193.467 73.6688 192.94 73.2697C190.434 71.3762 187.975 69.4173 185.566 67.3955C186.263 65.872 187.182 64.4572 188.287 63.2166C188.596 62.8684 188.957 62.5153 189.409 62.4548C190.084 62.3629 190.652 62.9361 191.104 63.4609C191.839 64.3146 192.577 65.1682 193.312 66.0243C193.552 66.3024 193.827 66.5975 194.185 66.6289C194.42 66.6483 194.645 66.5491 194.858 66.45C198.891 64.5467 201.885 62.1525 205.29 59.2699C206.79 58.0002 208.354 56.6943 210.231 56.1889C214.238 55.1079 217.52 59.6084 215.017 63.2021C212.161 67.294 207.51 70.4064 202.87 72.491Z" fill="#A22B25"/>
<path d="M228.838 149.206L228.954 151.25L225.119 153.53L223.027 151.608L224.886 149.446L228.722 147.165L228.838 149.206Z" fill="#381A1A"/>
<path d="M231.547 87.1874L231.9 93.3905L225.423 120.749L229.007 148.536L225.135 149.583L214.13 116.249L213.868 106.193L216.4 85.5018L231.547 87.1874Z" fill="#381A1A"/>
<path d="M206.72 90.5247L203.968 116.481L205.53 150.464L209.172 150.834L214.403 120.152L222.316 89.7412L206.72 90.5247Z" fill="#381A1A"/>
<path d="M209.194 150.384L209 152.418L204.87 154.055L203.092 151.82L205.254 149.985L209.194 150.384Z" fill="#381A1A"/>
<path d="M235.014 90.4764C235.273 92.8439 235.484 96.0483 234.613 96.249C234.449 96.2877 234.284 96.2176 234.132 96.1498C232.531 95.434 231.346 94.324 229.769 93.6347C228.117 92.9117 226.274 92.619 224.478 92.4618C221.791 92.2128 219.063 92.1571 216.366 92.3627C214.246 92.5247 212.137 92.9117 210.045 93.2913C208.304 93.6081 206.72 94.2974 204.923 94.3385C203.08 94.3796 201.225 93.9709 199.573 93.1245C199.513 93.093 199.448 93.0568 199.419 92.9939C199.387 92.9262 199.404 92.8439 199.423 92.769C199.704 91.6735 199.881 90.5997 200.483 89.659C201.155 88.607 201.583 87.3132 202.033 86.1451C202.971 83.7146 203.832 81.1754 204.41 78.6264C205.319 75.1464 206.41 71.7389 207.278 68.2541C207.88 65.8381 208.408 63.3859 209.31 61.0643C210.016 59.2457 211.322 56.5637 213.099 55.6254C213.701 55.3086 214.388 55.2191 215.058 55.1369C217.092 54.883 219.126 54.6315 221.16 54.3775C221.902 54.2856 222.674 54.1961 223.38 54.4501C224.437 54.8298 225.109 55.8769 225.701 56.8588C228.359 61.2578 230.231 66.0969 231.488 71.1488C232.144 73.7873 232.77 76.433 233.31 79.098C233.912 82.0702 234.41 85.0689 234.724 88.087C234.758 88.4159 234.891 89.3518 235.014 90.4764Z" fill="#A22B25"/>
<path d="M219.165 66.3194C219.194 67.5213 219.464 68.7015 219.733 69.8695C221.37 76.994 223.01 84.1185 224.647 91.2454C219.167 91.7121 213.687 92.1789 208.207 92.6456C208.166 89.9226 208.127 87.1995 208.086 84.474C208.059 82.7279 208.035 80.9746 208.238 79.2407C208.567 76.4426 209.486 73.751 210.398 71.0835C212.084 66.1573 213.769 61.2312 215.455 56.3025C215.544 56.0389 215.641 55.7657 215.832 55.5649C216.062 55.3231 216.393 55.2191 216.712 55.1296C218.253 54.7016 219.999 54.2977 221.593 54.3872C222.117 55.831 220.894 58.5395 220.478 59.9688C219.871 62.0486 219.111 64.1235 219.165 66.3194Z" fill="white"/>
<path d="M217.244 56.1187C218.374 55.9615 219.506 55.8019 220.635 55.6447C220.613 54.704 220.519 53.7657 220.354 52.8419C220.374 52.9531 222.103 51.7923 222.243 51.5529C222.649 50.8636 222.606 49.773 222.732 48.9846C222.998 47.3086 223.22 45.4272 222.253 44.0535C221.252 42.6291 219.331 42.2906 217.631 42.4042C215.498 42.5469 213.179 43.4127 212.253 45.403C211.416 47.1998 212.884 49.5964 213.399 51.3667C213.653 52.2397 214.011 53.2288 214.843 53.5287C215.285 53.6883 215.798 53.6181 216.2 53.8624C216.913 54.2929 216.857 55.3666 217.244 56.1187Z" fill="#EACDB0"/>
<path d="M208.616 42.4623C208.381 41.2579 208.149 40.056 207.914 38.8517C207.827 38.4043 207.74 37.9399 207.844 37.4974C208.016 36.7598 208.679 36.2471 209.368 35.9835C210.055 35.7199 210.797 35.6425 211.496 35.4128C212.243 35.1685 212.952 34.7477 213.733 34.709C215.22 34.6365 216.48 35.9496 217.965 36.0536C220.023 36.1963 221.798 35.0621 223.242 37.4127C223.508 37.8456 223.614 38.3607 223.854 38.8081C224.163 39.3861 224.671 39.8166 225.085 40.322C226.896 42.5421 226.695 46.189 224.93 48.3824C224.074 49.4465 223.767 50.363 222.495 50.7984C222.978 49.4924 221.755 44.5928 220.079 44.1866C219.634 44.0802 218.388 44.7476 217.917 44.8637C216.872 45.1225 215.861 45.3957 214.903 45.9157C213.481 46.6871 211.919 47.2869 210.333 47.5602C210.13 47.594 209.902 47.6255 209.735 47.4997C209.578 47.3812 209.53 47.1684 209.491 46.9701C209.198 45.4659 208.908 43.9641 208.616 42.4623Z" fill="#16202E"/>
<path d="M220.151 119.059L188.243 106.892L203.854 63.1417L235.762 75.306L220.151 119.059Z" fill="#FF2323"/>
<path opacity="0.26" d="M191.293 105.92L191.772 106.104L219.629 117.746L233.655 76.0871L232.207 75.9735L191.293 105.92Z" fill="#000909"/>
<path d="M219.213 116.566L190.521 105.627L204.966 65.1489L233.655 76.0871L219.213 116.566Z" fill="#FCFCFC"/>
<path opacity="0.05" d="M204.865 64.9337L225.501 72.8006L198.461 82.7715L204.865 64.9337Z" fill="#000004"/>
<path opacity="0.12" d="M225.189 73.9807L212.727 69.2311L213.157 68.0292L225.617 72.7788L225.189 73.9807Z" fill="#000100"/>
<path d="M224.359 68.1694L224.166 68.0969L224.214 67.9639C224.664 66.7015 223.885 65.2432 222.475 64.7063L220.618 63.9978C219.208 63.4609 217.699 64.0461 217.249 65.3085L217.201 65.4415L217.007 65.369C215.597 64.8321 214.088 65.4173 213.639 66.6797L212.727 69.2311L225.186 73.9807L226.098 71.4294C226.55 70.167 225.771 68.7087 224.359 68.1694ZM222.306 67.4463L219.024 66.1936C218.688 66.0655 218.514 65.6785 218.637 65.3351C218.761 64.9893 219.136 64.8127 219.472 64.9409L222.753 66.1936C223.09 66.3218 223.264 66.7087 223.14 67.0521C223.017 67.398 222.642 67.5745 222.306 67.4463Z" fill="#DFE4E8"/>
<g opacity="0.47">
<path opacity="0.47" d="M208.945 79.5188C207.539 78.9843 206.137 78.4475 204.732 77.913C204.613 77.867 204.475 77.9323 204.432 78.0557C203.917 79.4994 203.402 80.9408 202.887 82.3845C202.843 82.5055 202.906 82.6481 203.024 82.6941C204.429 83.2285 205.832 83.7654 207.237 84.2999C207.302 84.3241 207.358 84.3192 207.406 84.295C207.409 84.2926 207.414 84.2926 207.416 84.2902C207.419 84.2902 207.421 84.2878 207.421 84.2878C207.469 84.266 207.51 84.2249 207.535 84.1572C208.05 82.7134 208.565 81.2721 209.08 79.8283C209.126 79.7074 209.063 79.5647 208.945 79.5188ZM207.182 83.763C205.924 83.2842 204.666 82.8029 203.409 82.3241C203.871 81.0327 204.33 79.7389 204.792 78.4475C206.05 78.9263 207.307 79.4075 208.565 79.8864C208.103 81.1778 207.641 82.4716 207.182 83.763Z" fill="#8B9498"/>
<path opacity="0.47" d="M206.088 87.5211C204.683 86.9867 203.281 86.4498 201.876 85.9153C201.757 85.8694 201.619 85.9347 201.576 86.058C201.061 87.5018 200.546 88.9431 200.03 90.3869C199.987 90.5078 200.05 90.6505 200.168 90.6964C201.573 91.2309 202.976 91.7678 204.381 92.3022C204.446 92.3264 204.502 92.3216 204.55 92.2974C204.553 92.295 204.558 92.295 204.56 92.2926C204.562 92.2926 204.565 92.2901 204.565 92.2901C204.613 92.2684 204.654 92.2273 204.679 92.1595C205.194 90.7158 205.709 89.2744 206.224 87.8307C206.272 87.7098 206.207 87.5671 206.088 87.5211ZM204.325 91.7654C203.068 91.2865 201.81 90.8053 200.553 90.3264C201.015 89.035 201.474 87.7412 201.936 86.4498C203.194 86.9286 204.451 87.4099 205.709 87.8887C205.247 89.1801 204.787 90.4739 204.325 91.7654Z" fill="#8B9498"/>
<path opacity="0.47" d="M203.235 95.5235C201.83 94.989 200.427 94.4521 199.022 93.9177C198.904 93.8717 198.766 93.937 198.722 94.0604C198.207 95.5041 197.692 96.9455 197.177 98.3892C197.133 98.5102 197.196 98.6528 197.315 98.6988C198.72 99.2332 200.122 99.7701 201.527 100.305C201.593 100.329 201.648 100.324 201.697 100.3C201.699 100.297 201.704 100.297 201.706 100.295C201.709 100.295 201.711 100.292 201.711 100.292C201.76 100.271 201.801 100.23 201.825 100.162C202.34 98.7181 202.855 97.2768 203.37 95.833C203.416 95.7121 203.353 95.5694 203.235 95.5235ZM201.469 99.7677C200.212 99.2889 198.954 98.8076 197.697 98.3288C198.159 97.0374 198.618 95.7435 199.08 94.4521C200.338 94.931 201.595 95.4122 202.853 95.8911C202.393 97.1825 201.931 98.4763 201.469 99.7677Z" fill="#8B9498"/>
</g>
<path d="M205.566 80.0919L206.652 80.1282L206.836 81.3277L212.683 79.6663L213.181 79.9807L206.188 82.4619L205.566 80.0919Z" fill="#FF2323"/>
<path d="M202.287 88.162L203.375 88.2007L203.556 89.4002L209.406 87.7388L209.905 88.0532L202.908 90.5344L202.287 88.162Z" fill="#FF2323"/>
<path d="M199.498 95.7049L200.584 95.7411L200.768 96.9406L206.616 95.2792L207.114 95.5936L200.118 98.0749L199.498 95.7049Z" fill="#FF2323"/>
<path opacity="0.32" d="M219.399 106.145L204.541 100.479L205.312 98.3143L220.173 103.98L219.399 106.145Z" fill="#8B9498"/>
<path opacity="0.32" d="M222.424 97.6686L207.564 92.0024L208.338 89.8379L223.196 95.5041L222.424 97.6686Z" fill="#8B9498"/>
<path opacity="0.32" d="M225.447 89.1922L210.589 83.526L211.36 81.3616L226.221 87.0278L225.447 89.1922Z" fill="#8B9498"/>
<path d="M231.803 77.5527C231.9 77.8211 231.9 78.1984 231.646 78.3144C231.493 78.3846 231.319 78.3265 231.155 78.2951C230.536 78.1814 229.863 78.5635 229.624 79.1657C229.341 79.8743 229.667 80.728 230.238 81.2189C230.809 81.7098 231.568 81.8984 232.306 81.9662C232.77 82.0097 233.288 81.9903 233.629 81.6615C233.803 81.4922 233.907 81.26 233.999 81.0327C234.463 79.8574 234.85 78.3217 233.953 77.2528C233.242 76.4088 231.145 75.7316 231.803 77.5527Z" fill="#EACDB0"/>
<path d="M237.116 77.3132C237.022 77.1923 236.915 77.0811 236.794 76.9771C235.808 76.15 234.531 75.3568 233.22 75.7776C233.614 78.2903 233.239 80.9287 232.158 83.2189C232.074 83.4002 231.982 83.6106 232.062 83.7944C232.212 84.1403 233.288 84.3869 233.612 84.4015C235.041 84.4667 236.514 83.7316 237.133 82.6409C237.496 82.0024 237.575 81.289 237.646 80.595C237.752 79.5236 237.8 78.1984 237.116 77.3132Z" fill="#A22B25"/>
<path d="M107.659 85.2938C107.664 85.2189 107.671 85.1439 107.69 85.0762C107.879 84.4547 108.246 84.2854 108.549 83.7606C108.684 83.526 108.508 82.7957 108.957 82.8585C109.124 82.8827 109.526 83.0182 109.879 83.0714C110.394 83.1487 111.083 82.8174 111.593 82.4136C112.28 81.8719 112.999 81.2769 113.615 80.6022C114.909 79.1899 116.237 77.4197 117.315 75.6905C115.33 73.1005 114.527 68.907 115.325 65.2964C115.407 64.9192 115.514 64.5346 115.717 64.2589C115.888 64.0244 116.116 63.8841 116.346 63.7874C118.783 62.7547 119.385 65.9953 119.951 68.5781C120.304 70.1912 120.587 71.8574 120.764 73.5261C121.013 75.8622 120.169 77.5261 118.94 79.0786C117.639 80.7231 116.302 82.3579 114.771 83.5865C114.029 84.1838 113.257 84.5441 112.471 84.9988C111.695 85.4486 111.884 85.9008 111.277 86.5345C110.938 86.8875 110.641 87.3373 110.259 87.5985C109.574 88.0677 108.873 87.5647 108.23 87.2116C108.07 87.1221 107.961 87.0641 107.857 86.8948C107.688 86.6167 107.673 86.266 107.652 85.9178C107.644 85.7074 107.644 85.4994 107.659 85.2938Z" fill="#EACDB0"/>
<path d="M121.429 69.4342C121.608 70.7111 121.743 71.9759 121.84 73.202C121.983 75.0279 122.101 77.023 121.373 78.5587C121.093 79.1512 120.706 79.63 120.321 80.0968C118.498 82.312 116.636 84.4643 114.735 86.5514C113.726 85.4728 112.839 84.179 112.111 82.7328C111.905 82.3265 111.707 81.867 111.739 81.3737C111.785 80.6409 112.304 80.1717 112.769 79.8114C113.523 79.2286 114.28 78.6433 115.035 78.0605C115.279 77.8719 115.545 77.647 115.63 77.277C115.685 77.0351 115.649 76.774 115.61 76.5249C114.887 71.8332 113.627 68.1307 112.075 63.8817C111.39 62.0099 110.691 60.0631 110.636 57.9664C110.515 53.49 114.394 51.045 116.624 54.5033C119.165 58.4476 120.677 64.0606 121.429 69.4342Z" fill="#FF3C3C"/>
<path d="M99.226 86.4522C99.4847 86.1572 99.5742 85.6953 99.3928 85.3422C100.058 85.4317 100.742 85.5211 101.393 85.3519C102.043 85.1826 102.662 84.6892 102.788 84.0097C101.988 83.0278 100.798 82.3966 99.5597 82.2975C99.0204 82.2539 98.4448 82.3192 98.0119 82.653C96.2175 84.0314 97.3614 88.5804 99.226 86.4522Z" fill="#EACDB0"/>
<path d="M98.1232 84.4692C98.5368 84.1233 99.0543 83.9468 99.5646 83.7944C100.116 83.63 100.733 83.4414 101.011 82.9214C101.248 82.4764 101.156 81.9226 100.972 81.451C100.607 80.5176 99.8814 79.7243 98.9672 79.3785C98.0531 79.0351 96.96 79.1802 96.2103 79.8235C95.5332 80.4063 95.1898 81.3229 95.1075 82.2298C94.9745 83.7267 95.4848 86.4256 97.4678 85.8742C97.4703 85.3204 97.7048 84.8174 98.1232 84.4692Z" fill="#EACDB0"/>
</svg>
